  0
SECTION
  2
HEADER
  9
$ACADVER
  1
AC1009
  9
$INSUNITS
  70
4
  9
$EXTMIN
  10
-1.28
  20
-5.3
  9
$EXTMAX
  10
14.22
  20
20.71
  0
ENDSEC
  0
SECTION
  2
TABLES
  0
TABLE
  2
LTYPE
  70
1
  0
LTYPE
  2
CONTINUOUS
  70
64
  3
Solid line
  72
65
  73
0
  40
0
  0
ENDTAB
  0
TABLE
  2
LAYER
  70
8
  0
LAYER
  2
Default
  70
0
  62
1
  6
CONTINUOUS
  0
LAYER
  2
13_0
  70
0
  62
3
  6
CONTINUOUS
  0
LAYER
  2
11_0
  70
0
  62
9
  6
CONTINUOUS
  0
LAYER
  2
12_0
  70
0
  62
50
  6
CONTINUOUS
  0
LAYER
  2
128_0
  70
0
  62
255
  6
CONTINUOUS
  0
LAYER
  2
99_1
  70
0
  62
60
  6
CONTINUOUS
  0
LAYER
  2
99_2
  70
0
  62
66
  6
CONTINUOUS
  0
LAYER
  2
10_0
  70
0
  62
3
  6
CONTINUOUS
  0
ENDTAB
  0
ENDSEC
  0
SECTION
  2
BLOCKS
  0
BLOCK
  2
smaconnector
  3
smaconnector
  10
0
  20
0
  70
0
  0
POLYLINE
  8
13_0
  70
1
  66
1
  0
VERTEX
  8
13_0
  10
5.9
  20
2.6
  0
VERTEX
  8
13_0
  10
7.5
  20
2.6
  0
VERTEX
  8
13_0
  10
7.5
  20
3.4
  0
VERTEX
  8
13_0
  10
13.4
  20
3.4
  0
VERTEX
  8
13_0
  10
13.4
  20
2.7
  0
VERTEX
  8
13_0
  10
13.8
  20
2.7
  0
VERTEX
  8
13_0
  10
13.8
  20
-2.6
  0
VERTEX
  8
13_0
  10
13.5
  20
-2.6
  0
VERTEX
  8
13_0
  10
13.5
  20
-3.3
  0
VERTEX
  8
13_0
  10
7.7
  20
-3.3
  0
VERTEX
  8
13_0
  10
7.7
  20
-2.6
  0
VERTEX
  8
13_0
  10
5.9
  20
-2.6
  0
VERTEX
  8
13_0
  10
5.9
  20
2.6
  0
SEQEND
  0
POLYLINE
  8
13_0
  70
1
  66
1
  0
VERTEX
  8
13_0
  10
4.4
  20
4.8
  0
VERTEX
  8
13_0
  10
4.4
  20
-4.8
  0
VERTEX
  8
13_0
  10
5.9
  20
-4.8
  0
VERTEX
  8
13_0
  10
5.9
  20
4.8
  0
VERTEX
  8
13_0
  10
4.4
  20
4.8
  0
SEQEND
  0
POLYLINE
  8
13_0
  70
1
  66
1
  0
VERTEX
  8
13_0
  10
-0.3
  20
-3.73
  0
VERTEX
  8
13_0
  10
-0.3
  20
-4.8
  0
VERTEX
  8
13_0
  10
4.432
  20
-4.8
  0
VERTEX
  8
13_0
  10
4.432
  20
-3.73
  0
VERTEX
  8
13_0
  10
-0.3
  20
-3.73
  0
SEQEND
  0
POLYLINE
  8
13_0
  70
1
  66
1
  0
VERTEX
  8
13_0
  10
-0.3
  20
4.77
  0
VERTEX
  8
13_0
  10
-0.3
  20
3.7
  0
VERTEX
  8
13_0
  10
4.432
  20
3.7
  0
VERTEX
  8
13_0
  10
4.432
  20
4.77
  0
VERTEX
  8
13_0
  10
-0.3
  20
4.77
  0
SEQEND
  0
POLYLINE
  8
13_0
  70
1
  66
1
  0
VERTEX
  8
13_0
  10
-0.3
  20
4.77
  0
VERTEX
  8
13_0
  10
-0.3
  20
3.7
  0
VERTEX
  8
13_0
  10
4.432
  20
3.7
  0
VERTEX
  8
13_0
  10
4.432
  20
4.77
  0
VERTEX
  8
13_0
  10
-0.3
  20
4.77
  0
SEQEND
  0
POLYLINE
  8
13_0
  70
1
  66
1
  0
VERTEX
  8
13_0
  10
-0.3
  20
-3.73
  0
VERTEX
  8
13_0
  10
-0.3
  20
-4.8
  0
VERTEX
  8
13_0
  10
4.432
  20
-4.8
  0
VERTEX
  8
13_0
  10
4.432
  20
-3.73
  0
VERTEX
  8
13_0
  10
-0.3
  20
-3.73
  0
SEQEND
  0
POLYLINE
  8
11_0
  70
1
  66
1
  0
VERTEX
  8
11_0
  10
-0.3
  20
0.27
  0
VERTEX
  8
11_0
  10
-0.3
  20
-0.3
  0
VERTEX
  8
11_0
  10
4.381
  20
-0.3
  0
VERTEX
  8
11_0
  10
4.381
  20
0.27
  0
VERTEX
  8
11_0
  10
-0.3
  20
0.27
  0
SEQEND
  0
POLYLINE
  8
12_0
  70
1
  66
1
  0
VERTEX
  8
12_0
  10
-0.8
  20
5.27
  0
VERTEX
  8
12_0
  10
-0.8
  20
3.2
  0
VERTEX
  8
12_0
  10
4.432
  20
3.2
  0
VERTEX
  8
12_0
  10
4.432
  20
5.27
  0
VERTEX
  8
12_0
  10
-0.8
  20
5.27
  0
SEQEND
  0
POLYLINE
  8
12_0
  70
1
  66
1
  0
VERTEX
  8
12_0
  10
-0.8
  20
-3.23
  0
VERTEX
  8
12_0
  10
-0.8
  20
-5.3
  0
VERTEX
  8
12_0
  10
4.432
  20
-5.3
  0
VERTEX
  8
12_0
  10
4.432
  20
-3.23
  0
VERTEX
  8
12_0
  10
-0.8
  20
-3.23
  0
SEQEND
  0
POLYLINE
  8
12_0
  70
1
  66
1
  0
VERTEX
  8
12_0
  10
-0.8
  20
0.67
  0
VERTEX
  8
12_0
  10
-0.8
  20
-0.7
  0
VERTEX
  8
12_0
  10
4.332
  20
-0.7
  0
VERTEX
  8
12_0
  10
4.332
  20
0.67
  0
VERTEX
  8
12_0
  10
-0.8
  20
0.67
  0
SEQEND
  0
ENDBLK
  0
BLOCK
  2
0201
  3
0201
  10
0
  20
0
  70
0
  0
POLYLINE
  8
13_0
  70
1
  66
1
  0
VERTEX
  8
13_0
  10
1.15
  20
3.13
  0
VERTEX
  8
13_0
  10
0.9
  20
3.13
  0
VERTEX
  8
13_0
  10
0.9
  20
2.77
  0
VERTEX
  8
13_0
  10
1.15
  20
2.77
  0
VERTEX
  8
13_0
  10
1.15
  20
3.13
  0
SEQEND
  0
POLYLINE
  8
11_0
  70
1
  66
1
  0
VERTEX
  8
11_0
  10
0.9
  20
2.77
  0
VERTEX
  8
11_0
  10
0.9
  20
2.67
  0
VERTEX
  8
11_0
  10
1.15
  20
2.67
  0
VERTEX
  8
11_0
  10
1.15
  20
2.77
  0
VERTEX
  8
11_0
  10
0.9
  20
2.77
  0
SEQEND
  0
POLYLINE
  8
11_0
  70
1
  66
1
  0
VERTEX
  8
11_0
  10
0.9
  20
3.23
  0
VERTEX
  8
11_0
  10
0.9
  20
3.13
  0
VERTEX
  8
11_0
  10
1.15
  20
3.13
  0
VERTEX
  8
11_0
  10
1.15
  20
3.23
  0
VERTEX
  8
11_0
  10
0.9
  20
3.23
  0
SEQEND
  0
ENDBLK
  0
BLOCK
  2
0302
  3
0302
  10
0
  20
0
  70
0
  0
POLYLINE
  8
13_0
  70
1
  66
1
  0
VERTEX
  8
13_0
  10
0.16
  20
0.52
  0
VERTEX
  8
13_0
  10
0.16
  20
0.14
  0
VERTEX
  8
13_0
  10
0.62
  20
0.14
  0
VERTEX
  8
13_0
  10
0.62
  20
0.52
  0
VERTEX
  8
13_0
  10
0.16
  20
0.52
  0
SEQEND
  0
POLYLINE
  8
11_0
  70
1
  66
1
  0
VERTEX
  8
11_0
  10
0.62
  20
0.52
  0
VERTEX
  8
11_0
  10
0.62
  20
0.14
  0
VERTEX
  8
11_0
  10
0.82
  20
0.14
  0
VERTEX
  8
11_0
  10
0.82
  20
0.52
  0
VERTEX
  8
11_0
  10
0.62
  20
0.52
  0
SEQEND
  0
POLYLINE
  8
11_0
  70
1
  66
1
  0
VERTEX
  8
11_0
  10
-0.04
  20
0.52
  0
VERTEX
  8
11_0
  10
-0.04
  20
0.14
  0
VERTEX
  8
11_0
  10
0.16
  20
0.14
  0
VERTEX
  8
11_0
  10
0.16
  20
0.52
  0
VERTEX
  8
11_0
  10
-0.04
  20
0.52
  0
SEQEND
  0
POLYLINE
  8
99_2_0
  70
0
  66
1
  0
VERTEX
  8
128_0
  10
0.62
  20
0.52
  0
VERTEX
  8
128_0
  10
0.62
  20
0.14
  0
SEQEND
  0
POLYLINE
  8
99_1_0
  70
0
  66
1
  0
VERTEX
  8
128_0
  10
0.16
  20
0.14
  0
VERTEX
  8
128_0
  10
0.16
  20
0.52
  0
SEQEND
  0
ENDBLK
  0
BLOCK
  2
0402
  3
0402
  10
0
  20
0
  70
0
  0
POLYLINE
  8
13_0
  70
1
  66
1
  0
VERTEX
  8
13_0
  10
0
  20
0
  0
VERTEX
  8
13_0
  10
1.016
  20
0
  0
VERTEX
  8
13_0
  10
1.016
  20
0.508
  0
VERTEX
  8
13_0
  10
0
  20
0.508
  0
VERTEX
  8
13_0
  10
0
  20
0
  0
SEQEND
  0
POLYLINE
  8
11_0
  70
1
  66
1
  0
VERTEX
  8
11_0
  10
0
  20
0
  0
VERTEX
  8
11_0
  10
0.2286
  20
0
  0
VERTEX
  8
11_0
  10
0.2286
  20
0.508
  0
VERTEX
  8
11_0
  10
0
  20
0.508
  0
VERTEX
  8
11_0
  10
0
  20
0
  0
SEQEND
  0
POLYLINE
  8
11_0
  70
1
  66
1
  0
VERTEX
  8
11_0
  10
0.7874
  20
0.508
  0
VERTEX
  8
11_0
  10
0.7874
  20
0
  0
VERTEX
  8
11_0
  10
1.016
  20
0
  0
VERTEX
  8
11_0
  10
1.016
  20
0.508
  0
VERTEX
  8
11_0
  10
0.7874
  20
0.508
  0
SEQEND
  0
POLYLINE
  8
99_1_0
  70
0
  66
1
  0
VERTEX
  8
99_1
  10
0.2286
  20
0
  0
VERTEX
  8
99_1
  10
0.2286
  20
0.508
  0
SEQEND
  0
POLYLINE
  8
99_2_0
  70
0
  66
1
  0
VERTEX
  8
99_2
  10
0.7874
  20
0.508
  0
VERTEX
  8
99_2
  10
0.7874
  20
0
  0
SEQEND
  0
ENDBLK
  0
BLOCK
  2
0402AF
  3
0402AF
  10
0
  20
0
  70
0
  0
POLYLINE
  8
13_0
  70
1
  66
1
  0
VERTEX
  8
13_0
  10
0
  20
0.89
  0
VERTEX
  8
13_0
  10
0
  20
0.23
  0
VERTEX
  8
13_0
  10
0.51
  20
0.23
  0
VERTEX
  8
13_0
  10
0.51
  20
0.89
  0
VERTEX
  8
13_0
  10
0
  20
0.89
  0
SEQEND
  0
POLYLINE
  8
11_0
  70
1
  66
1
  0
VERTEX
  8
11_0
  10
0
  20
1.12
  0
VERTEX
  8
11_0
  10
0
  20
0.89
  0
VERTEX
  8
11_0
  10
0.51
  20
0.89
  0
VERTEX
  8
11_0
  10
0.51
  20
1.12
  0
VERTEX
  8
11_0
  10
0
  20
1.12
  0
SEQEND
  0
POLYLINE
  8
11_0
  70
1
  66
1
  0
VERTEX
  8
11_0
  10
0
  20
0.23
  0
VERTEX
  8
11_0
  10
0
  20
0
  0
VERTEX
  8
11_0
  10
0.51
  20
0
  0
VERTEX
  8
11_0
  10
0.51
  20
0.23
  0
VERTEX
  8
11_0
  10
0
  20
0.23
  0
SEQEND
  0
POLYLINE
  8
99_1_0
  70
0
  66
1
  0
VERTEX
  8
11_0
  10
0
  20
0.89
  0
VERTEX
  8
11_0
  10
0.51
  20
0.89
  0
SEQEND
  0
POLYLINE
  8
99_2_0
  70
0
  66
1
  0
VERTEX
  8
11_0
  10
0.51
  20
0.23
  0
VERTEX
  8
11_0
  10
0
  20
0.23
  0
SEQEND
  0
ENDBLK
  0
BLOCK
  2
0402CS
  3
0402CS
  10
0
  20
0
  70
0
  0
POLYLINE
  8
13_0
  70
1
  66
1
  0
VERTEX
  8
13_0
  10
0
  20
0
  0
VERTEX
  8
13_0
  10
1.016
  20
0
  0
VERTEX
  8
13_0
  10
1.016
  20
0.508
  0
VERTEX
  8
13_0
  10
0
  20
0.508
  0
VERTEX
  8
13_0
  10
0
  20
0
  0
SEQEND
  0
POLYLINE
  8
11_0
  70
1
  66
1
  0
VERTEX
  8
11_0
  10
0
  20
0
  0
VERTEX
  8
11_0
  10
0.2286
  20
0
  0
VERTEX
  8
11_0
  10
0.2286
  20
0.508
  0
VERTEX
  8
11_0
  10
0
  20
0.508
  0
VERTEX
  8
11_0
  10
0
  20
0
  0
SEQEND
  0
POLYLINE
  8
11_0
  70
1
  66
1
  0
VERTEX
  8
11_0
  10
0.7874
  20
0.508
  0
VERTEX
  8
11_0
  10
0.7874
  20
0
  0
VERTEX
  8
11_0
  10
1.016
  20
0
  0
VERTEX
  8
11_0
  10
1.016
  20
0.508
  0
VERTEX
  8
11_0
  10
0.7874
  20
0.508
  0
SEQEND
  0
POLYLINE
  8
99_1_0
  70
0
  66
1
  0
VERTEX
  8
99_1
  10
0.2286
  20
0
  0
VERTEX
  8
99_1
  10
0.2286
  20
0.508
  0
SEQEND
  0
POLYLINE
  8
99_2_0
  70
0
  66
1
  0
VERTEX
  8
99_2
  10
0.7874
  20
0.508
  0
VERTEX
  8
99_2
  10
0.7874
  20
0
  0
SEQEND
  0
ENDBLK
  0
BLOCK
  2
0402DF
  3
0402DF
  10
0
  20
0
  70
0
  0
POLYLINE
  8
13_0
  70
1
  66
1
  0
VERTEX
  8
13_0
  10
0
  20
0
  0
VERTEX
  8
13_0
  10
1.1
  20
0
  0
VERTEX
  8
13_0
  10
1.1
  20
0.46
  0
VERTEX
  8
13_0
  10
0
  20
0.46
  0
VERTEX
  8
13_0
  10
0
  20
0
  0
SEQEND
  0
POLYLINE
  8
11_0
  70
1
  66
1
  0
VERTEX
  8
11_0
  10
0.9
  20
0.46
  0
VERTEX
  8
11_0
  10
0.9
  20
0
  0
VERTEX
  8
11_0
  10
1.1
  20
0
  0
VERTEX
  8
11_0
  10
1.1
  20
0.46
  0
VERTEX
  8
11_0
  10
0.9
  20
0.46
  0
SEQEND
  0
POLYLINE
  8
11_0
  70
1
  66
1
  0
VERTEX
  8
11_0
  10
0
  20
0
  0
VERTEX
  8
11_0
  10
0.2
  20
0
  0
VERTEX
  8
11_0
  10
0.2
  20
0.46
  0
VERTEX
  8
11_0
  10
0
  20
0.46
  0
VERTEX
  8
11_0
  10
0
  20
0
  0
SEQEND
  0
POLYLINE
  8
99_2_0
  70
0
  66
1
  0
VERTEX
  8
99_2
  10
0.9
  20
0.46
  0
VERTEX
  8
99_2
  10
0.9
  20
0
  0
SEQEND
  0
POLYLINE
  8
99_1_0
  70
0
  66
1
  0
VERTEX
  8
99_1
  10
0.2
  20
0
  0
VERTEX
  8
99_1
  10
0.2
  20
0.46
  0
SEQEND
  0
ENDBLK
  0
BLOCK
  2
0402HL
  3
0402HL
  10
0
  20
0
  70
0
  0
POLYLINE
  8
13_0
  70
1
  66
1
  0
VERTEX
  8
13_0
  10
0
  20
0
  0
VERTEX
  8
13_0
  10
1.22
  20
0
  0
VERTEX
  8
13_0
  10
1.22
  20
0.46
  0
VERTEX
  8
13_0
  10
0
  20
0.46
  0
VERTEX
  8
13_0
  10
0
  20
0
  0
SEQEND
  0
POLYLINE
  8
11_0
  70
1
  66
1
  0
VERTEX
  8
11_0
  10
1.02
  20
0.46
  0
VERTEX
  8
11_0
  10
1.02
  20
0
  0
VERTEX
  8
11_0
  10
1.22
  20
0
  0
VERTEX
  8
11_0
  10
1.22
  20
0.46
  0
VERTEX
  8
11_0
  10
1.02
  20
0.46
  0
SEQEND
  0
POLYLINE
  8
11_0
  70
1
  66
1
  0
VERTEX
  8
11_0
  10
0
  20
0
  0
VERTEX
  8
11_0
  10
0.2
  20
0
  0
VERTEX
  8
11_0
  10
0.2
  20
0.46
  0
VERTEX
  8
11_0
  10
0
  20
0.46
  0
VERTEX
  8
11_0
  10
0
  20
0
  0
SEQEND
  0
POLYLINE
  8
99_2_0
  70
0
  66
1
  0
VERTEX
  8
99_2
  10
1.02
  20
0.46
  0
VERTEX
  8
99_2
  10
1.02
  20
0
  0
SEQEND
  0
POLYLINE
  8
99_1_0
  70
0
  66
1
  0
VERTEX
  8
99_1
  10
0.2
  20
0
  0
VERTEX
  8
99_1
  10
0.2
  20
0.46
  0
SEQEND
  0
ENDBLK
  0
BLOCK
  2
0402PA
  3
0402PA
  10
0
  20
0
  70
0
  0
POLYLINE
  8
13_0
  70
1
  66
1
  0
VERTEX
  8
13_0
  10
-0.2
  20
0.85
  0
VERTEX
  8
13_0
  10
-0.2
  20
0.29
  0
VERTEX
  8
13_0
  10
0.31
  20
0.29
  0
VERTEX
  8
13_0
  10
0.31
  20
0.85
  0
VERTEX
  8
13_0
  10
-0.2
  20
0.85
  0
SEQEND
  0
POLYLINE
  8
11_0
  70
1
  66
1
  0
VERTEX
  8
11_0
  10
-0.2
  20
0.29
  0
VERTEX
  8
11_0
  10
-0.2
  20
0.06
  0
VERTEX
  8
11_0
  10
0.31
  20
0.06
  0
VERTEX
  8
11_0
  10
0.31
  20
0.29
  0
VERTEX
  8
11_0
  10
-0.2
  20
0.29
  0
SEQEND
  0
POLYLINE
  8
11_0
  70
1
  66
1
  0
VERTEX
  8
11_0
  10
-0.2
  20
1.08
  0
VERTEX
  8
11_0
  10
-0.2
  20
0.85
  0
VERTEX
  8
11_0
  10
0.31
  20
0.85
  0
VERTEX
  8
11_0
  10
0.31
  20
1.08
  0
VERTEX
  8
11_0
  10
-0.2
  20
1.08
  0
SEQEND
  0
POLYLINE
  8
99_2_0
  70
0
  66
1
  0
VERTEX
  8
11_0
  10
0.31
  20
0.29
  0
VERTEX
  8
11_0
  10
-0.2
  20
0.29
  0
SEQEND
  0
POLYLINE
  8
99_1_0
  70
0
  66
1
  0
VERTEX
  8
11_0
  10
-0.2
  20
0.85
  0
VERTEX
  8
11_0
  10
0.31
  20
0.85
  0
SEQEND
  0
ENDBLK
  0
BLOCK
  2
0402hp
  3
0402hp
  10
0
  20
0
  70
0
  0
POLYLINE
  8
13_0
  70
1
  66
1
  0
VERTEX
  8
13_0
  10
-0.27
  20
0.74
  0
VERTEX
  8
13_0
  10
-0.27
  20
0.13
  0
VERTEX
  8
13_0
  10
0.24
  20
0.13
  0
VERTEX
  8
13_0
  10
0.24
  20
0.74
  0
VERTEX
  8
13_0
  10
-0.27
  20
0.74
  0
SEQEND
  0
POLYLINE
  8
11_0
  70
1
  66
1
  0
VERTEX
  8
11_0
  10
-0.27
  20
0.13
  0
VERTEX
  8
11_0
  10
-0.27
  20
-0.07
  0
VERTEX
  8
11_0
  10
0.24
  20
-0.07
  0
VERTEX
  8
11_0
  10
0.24
  20
0.13
  0
VERTEX
  8
11_0
  10
-0.27
  20
0.13
  0
SEQEND
  0
POLYLINE
  8
11_0
  70
1
  66
1
  0
VERTEX
  8
11_0
  10
-0.27
  20
0.94
  0
VERTEX
  8
11_0
  10
-0.27
  20
0.74
  0
VERTEX
  8
11_0
  10
0.24
  20
0.74
  0
VERTEX
  8
11_0
  10
0.24
  20
0.94
  0
VERTEX
  8
11_0
  10
-0.27
  20
0.94
  0
SEQEND
  0
POLYLINE
  8
99_1_0
  70
0
  66
1
  0
VERTEX
  8
11_0
  10
-0.27
  20
0.74
  0
VERTEX
  8
11_0
  10
0.24
  20
0.74
  0
SEQEND
  0
POLYLINE
  8
99_2_0
  70
0
  66
1
  0
VERTEX
  8
11_0
  10
0.24
  20
0.13
  0
VERTEX
  8
11_0
  10
-0.27
  20
0.13
  0
SEQEND
  0
ENDBLK
  0
BLOCK
  2
0403
  3
0403
  10
0
  20
0
  70
0
  0
POLYLINE
  8
13_0
  70
1
  66
1
  0
VERTEX
  8
13_0
  10
1.016
  20
0
  0
VERTEX
  8
13_0
  10
1.016
  20
0.762
  0
VERTEX
  8
13_0
  10
0
  20
0.762
  0
VERTEX
  8
13_0
  10
0
  20
0
  0
VERTEX
  8
13_0
  10
1.016
  20
0
  0
SEQEND
  0
POLYLINE
  8
11_0
  70
1
  66
1
  0
VERTEX
  8
11_0
  10
0.2286
  20
0
  0
VERTEX
  8
11_0
  10
0.2286
  20
0.762
  0
VERTEX
  8
11_0
  10
0
  20
0.762
  0
VERTEX
  8
11_0
  10
0
  20
0
  0
VERTEX
  8
11_0
  10
0.2286
  20
0
  0
SEQEND
  0
POLYLINE
  8
11_0
  70
1
  66
1
  0
VERTEX
  8
11_0
  10
0.7874
  20
0
  0
VERTEX
  8
11_0
  10
1.016
  20
0
  0
VERTEX
  8
11_0
  10
1.016
  20
0.762
  0
VERTEX
  8
11_0
  10
0.7874
  20
0.762
  0
VERTEX
  8
11_0
  10
0.7874
  20
0
  0
SEQEND
  0
POLYLINE
  8
99_1_0
  70
0
  66
1
  0
VERTEX
  8
99_1
  10
0.2286
  20
0
  0
VERTEX
  8
99_1
  10
0.2286
  20
0.762
  0
SEQEND
  0
POLYLINE
  8
99_2_0
  70
0
  66
1
  0
VERTEX
  8
99_2
  10
0.7874
  20
0.762
  0
VERTEX
  8
99_2
  10
0.7874
  20
0
  0
SEQEND
  0
ENDBLK
  0
BLOCK
  2
0403HQ
  3
0403HQ
  10
0
  20
0
  70
0
  0
POLYLINE
  8
13_0
  70
1
  66
1
  0
VERTEX
  8
13_0
  10
-1.28
  20
0.81
  0
VERTEX
  8
13_0
  10
-1.28
  20
0.25
  0
VERTEX
  8
13_0
  10
-0.52
  20
0.25
  0
VERTEX
  8
13_0
  10
-0.52
  20
0.81
  0
VERTEX
  8
13_0
  10
-1.28
  20
0.81
  0
SEQEND
  0
POLYLINE
  8
11_0
  70
1
  66
1
  0
VERTEX
  8
11_0
  10
-1.28
  20
0.25
  0
VERTEX
  8
11_0
  10
-1.28
  20
0.02
  0
VERTEX
  8
11_0
  10
-0.52
  20
0.02
  0
VERTEX
  8
11_0
  10
-0.52
  20
0.25
  0
VERTEX
  8
11_0
  10
-1.28
  20
0.25
  0
SEQEND
  0
POLYLINE
  8
11_0
  70
1
  66
1
  0
VERTEX
  8
11_0
  10
-1.28
  20
1.04
  0
VERTEX
  8
11_0
  10
-1.28
  20
0.81
  0
VERTEX
  8
11_0
  10
-0.52
  20
0.81
  0
VERTEX
  8
11_0
  10
-0.52
  20
1.04
  0
VERTEX
  8
11_0
  10
-1.28
  20
1.04
  0
SEQEND
  0
POLYLINE
  8
99_1_0
  70
0
  66
1
  0
VERTEX
  8
13_0
  10
-1.28
  20
0.81
  0
VERTEX
  8
13_0
  10
-0.52
  20
0.81
  0
SEQEND
  0
POLYLINE
  8
99_2_0
  70
0
  66
1
  0
VERTEX
  8
13_0
  10
-0.52
  20
0.25
  0
VERTEX
  8
13_0
  10
-1.28
  20
0.25
  0
SEQEND
  0
ENDBLK
  0
BLOCK
  2
0603
  3
0603
  10
0
  20
0
  70
0
  0
POLYLINE
  8
13_0
  70
1
  66
1
  0
VERTEX
  8
13_0
  10
1.524
  20
0
  0
VERTEX
  8
13_0
  10
1.524
  20
0.762
  0
VERTEX
  8
13_0
  10
0
  20
0.762
  0
VERTEX
  8
13_0
  10
0
  20
0
  0
VERTEX
  8
13_0
  10
1.524
  20
0
  0
SEQEND
  0
POLYLINE
  8
11_0
  70
1
  66
1
  0
VERTEX
  8
11_0
  10
0.3302
  20
0
  0
VERTEX
  8
11_0
  10
0.3302
  20
0.762
  0
VERTEX
  8
11_0
  10
0
  20
0.762
  0
VERTEX
  8
11_0
  10
0
  20
0
  0
VERTEX
  8
11_0
  10
0.3302
  20
0
  0
SEQEND
  0
POLYLINE
  8
11_0
  70
1
  66
1
  0
VERTEX
  8
11_0
  10
1.524
  20
0
  0
VERTEX
  8
11_0
  10
1.524
  20
0.762
  0
VERTEX
  8
11_0
  10
1.1938
  20
0.762
  0
VERTEX
  8
11_0
  10
1.1938
  20
0
  0
VERTEX
  8
11_0
  10
1.524
  20
0
  0
SEQEND
  0
POLYLINE
  8
99_1_0
  70
0
  66
1
  0
VERTEX
  8
99_1
  10
0.3302
  20
0
  0
VERTEX
  8
99_1
  10
0.3302
  20
0.762
  0
SEQEND
  0
POLYLINE
  8
99_2_0
  70
0
  66
1
  0
VERTEX
  8
99_2
  10
1.1938
  20
0.762
  0
VERTEX
  8
99_2
  10
1.1938
  20
0
  0
SEQEND
  0
ENDBLK
  0
BLOCK
  2
0603HL
  3
0603HL
  10
0
  20
0
  70
0
  0
POLYLINE
  8
13_0
  70
1
  66
1
  0
VERTEX
  8
13_0
  10
-0.36
  20
1.24
  0
VERTEX
  8
13_0
  10
-0.36
  20
0.27
  0
VERTEX
  8
13_0
  10
0.38
  20
0.27
  0
VERTEX
  8
13_0
  10
0.38
  20
1.24
  0
VERTEX
  8
13_0
  10
-0.36
  20
1.24
  0
SEQEND
  0
POLYLINE
  8
11_0
  70
1
  66
1
  0
VERTEX
  8
11_0
  10
-0.36
  20
0.27
  0
VERTEX
  8
11_0
  10
-0.36
  20
-0.01
  0
VERTEX
  8
11_0
  10
0.38
  20
-0.01
  0
VERTEX
  8
11_0
  10
0.38
  20
0.27
  0
VERTEX
  8
11_0
  10
-0.36
  20
0.27
  0
SEQEND
  0
POLYLINE
  8
11_0
  70
1
  66
1
  0
VERTEX
  8
11_0
  10
-0.36
  20
1.52
  0
VERTEX
  8
11_0
  10
-0.36
  20
1.24
  0
VERTEX
  8
11_0
  10
0.38
  20
1.24
  0
VERTEX
  8
11_0
  10
0.38
  20
1.52
  0
VERTEX
  8
11_0
  10
-0.36
  20
1.52
  0
SEQEND
  0
POLYLINE
  8
99_2_0
  70
0
  66
1
  0
VERTEX
  8
11_0
  10
0.38
  20
0.27
  0
VERTEX
  8
11_0
  10
-0.36
  20
0.27
  0
SEQEND
  0
POLYLINE
  8
99_1_0
  70
0
  66
1
  0
VERTEX
  8
11_0
  10
-0.36
  20
1.24
  0
VERTEX
  8
11_0
  10
0.38
  20
1.24
  0
SEQEND
  0
ENDBLK
  0
BLOCK
  2
0603HP
  3
0603HP
  10
0
  20
0
  70
0
  0
POLYLINE
  8
13_0
  70
1
  66
1
  0
VERTEX
  8
13_0
  10
-0.36
  20
1.23
  0
VERTEX
  8
13_0
  10
-0.36
  20
0.27
  0
VERTEX
  8
13_0
  10
0.38
  20
0.27
  0
VERTEX
  8
13_0
  10
0.38
  20
1.23
  0
VERTEX
  8
13_0
  10
-0.36
  20
1.23
  0
SEQEND
  0
POLYLINE
  8
11_0
  70
1
  66
1
  0
VERTEX
  8
11_0
  10
-0.36
  20
0.27
  0
VERTEX
  8
11_0
  10
-0.36
  20
-0.06
  0
VERTEX
  8
11_0
  10
0.38
  20
-0.06
  0
VERTEX
  8
11_0
  10
0.38
  20
0.27
  0
VERTEX
  8
11_0
  10
-0.36
  20
0.27
  0
SEQEND
  0
POLYLINE
  8
11_0
  70
1
  66
1
  0
VERTEX
  8
11_0
  10
-0.36
  20
1.56
  0
VERTEX
  8
11_0
  10
-0.36
  20
1.23
  0
VERTEX
  8
11_0
  10
0.38
  20
1.23
  0
VERTEX
  8
11_0
  10
0.38
  20
1.56
  0
VERTEX
  8
11_0
  10
-0.36
  20
1.56
  0
SEQEND
  0
POLYLINE
  8
99_2_0
  70
0
  66
1
  0
VERTEX
  8
11_0
  10
0.38
  20
0.27
  0
VERTEX
  8
11_0
  10
-0.36
  20
0.27
  0
SEQEND
  0
POLYLINE
  8
99_1_0
  70
0
  66
1
  0
VERTEX
  8
11_0
  10
-0.36
  20
1.23
  0
VERTEX
  8
11_0
  10
0.38
  20
1.23
  0
SEQEND
  0
ENDBLK
  0
BLOCK
  2
0603LS
  3
0603LS
  10
0
  20
0
  70
0
  0
POLYLINE
  8
13_0
  70
1
  66
1
  0
VERTEX
  8
13_0
  10
-0.82
  20
1.02
  0
VERTEX
  8
13_0
  10
-0.82
  20
0.16
  0
VERTEX
  8
13_0
  10
-0.06
  20
0.16
  0
VERTEX
  8
13_0
  10
-0.06
  20
1.02
  0
VERTEX
  8
13_0
  10
-0.82
  20
1.02
  0
SEQEND
  0
POLYLINE
  8
11_0
  70
1
  66
1
  0
VERTEX
  8
11_0
  10
-0.82
  20
0.16
  0
VERTEX
  8
11_0
  10
-0.82
  20
-0.17
  0
VERTEX
  8
11_0
  10
-0.06
  20
-0.17
  0
VERTEX
  8
11_0
  10
-0.06
  20
0.16
  0
VERTEX
  8
11_0
  10
-0.82
  20
0.16
  0
SEQEND
  0
POLYLINE
  8
11_0
  70
1
  66
1
  0
VERTEX
  8
11_0
  10
-0.82
  20
1.35
  0
VERTEX
  8
11_0
  10
-0.82
  20
1.02
  0
VERTEX
  8
11_0
  10
-0.06
  20
1.02
  0
VERTEX
  8
11_0
  10
-0.06
  20
1.35
  0
VERTEX
  8
11_0
  10
-0.82
  20
1.35
  0
SEQEND
  0
POLYLINE
  8
99_1_0
  70
0
  66
1
  0
VERTEX
  8
11_0
  10
-0.82
  20
1.02
  0
VERTEX
  8
11_0
  10
-0.06
  20
1.02
  0
SEQEND
  0
POLYLINE
  8
99_2_0
  70
0
  66
1
  0
VERTEX
  8
11_0
  10
-0.06
  20
0.16
  0
VERTEX
  8
11_0
  10
-0.82
  20
0.16
  0
SEQEND
  0
ENDBLK
  0
BLOCK
  2
0603USB
  3
0603USB
  10
0
  20
0
  70
0
  0
POLYLINE
  8
13_0
  70
1
  66
1
  0
VERTEX
  8
13_0
  10
0
  20
0.76
  0
VERTEX
  8
13_0
  10
0
  20
0
  0
VERTEX
  8
13_0
  10
1.52
  20
0
  0
VERTEX
  8
13_0
  10
1.52
  20
0.76
  0
VERTEX
  8
13_0
  10
0
  20
0.76
  0
SEQEND
  0
POLYLINE
  8
11_0
  70
1
  66
1
  0
VERTEX
  8
11_0
  10
1.19
  20
0.76
  0
VERTEX
  8
11_0
  10
1.19
  20
0.51
  0
VERTEX
  8
11_0
  10
1.52
  20
0.51
  0
VERTEX
  8
11_0
  10
1.52
  20
0.76
  0
VERTEX
  8
11_0
  10
1.19
  20
0.76
  0
SEQEND
  0
POLYLINE
  8
11_0
  70
1
  66
1
  0
VERTEX
  8
11_0
  10
1.19
  20
0.25
  0
VERTEX
  8
11_0
  10
1.19
  20
0
  0
VERTEX
  8
11_0
  10
1.52
  20
0
  0
VERTEX
  8
11_0
  10
1.52
  20
0.25
  0
VERTEX
  8
11_0
  10
1.19
  20
0.25
  0
SEQEND
  0
POLYLINE
  8
11_0
  70
1
  66
1
  0
VERTEX
  8
11_0
  10
0
  20
0.76
  0
VERTEX
  8
11_0
  10
0
  20
0.51
  0
VERTEX
  8
11_0
  10
0.33
  20
0.51
  0
VERTEX
  8
11_0
  10
0.33
  20
0.76
  0
VERTEX
  8
11_0
  10
0
  20
0.76
  0
SEQEND
  0
POLYLINE
  8
11_0
  70
1
  66
1
  0
VERTEX
  8
11_0
  10
0
  20
0.25
  0
VERTEX
  8
11_0
  10
0
  20
0
  0
VERTEX
  8
11_0
  10
0.33
  20
0
  0
VERTEX
  8
11_0
  10
0.33
  20
0.25
  0
VERTEX
  8
11_0
  10
0
  20
0.25
  0
SEQEND
  0
POLYLINE
  8
99_2_0
  70
0
  66
1
  0
VERTEX
  8
11_0
  10
1.19
  20
0.76
  0
VERTEX
  8
11_0
  10
1.19
  20
0.51
  0
SEQEND
  0
POLYLINE
  8
99_4_0
  70
0
  66
1
  0
VERTEX
  8
11_0
  10
0.33
  20
0
  0
VERTEX
  8
11_0
  10
0.33
  20
0.25
  0
SEQEND
  0
POLYLINE
  8
99_1_0
  70
0
  66
1
  0
VERTEX
  8
11_0
  10
0.33
  20
0.51
  0
VERTEX
  8
11_0
  10
0.33
  20
0.76
  0
SEQEND
  0
POLYLINE
  8
99_3_0
  70
0
  66
1
  0
VERTEX
  8
11_0
  10
1.19
  20
0.25
  0
VERTEX
  8
11_0
  10
1.19
  20
0
  0
SEQEND
  0
ENDBLK
  0
BLOCK
  2
0604
  3
0604
  10
0
  20
0
  70
0
  0
POLYLINE
  8
13_0
  70
1
  66
1
  0
VERTEX
  8
13_0
  10
1.524
  20
1.016
  0
VERTEX
  8
13_0
  10
0
  20
1.016
  0
VERTEX
  8
13_0
  10
0
  20
0
  0
VERTEX
  8
13_0
  10
1.524
  20
0
  0
VERTEX
  8
13_0
  10
1.524
  20
1.016
  0
SEQEND
  0
POLYLINE
  8
11_0
  70
1
  66
1
  0
VERTEX
  8
11_0
  10
0.3302
  20
1.016
  0
VERTEX
  8
11_0
  10
0
  20
1.016
  0
VERTEX
  8
11_0
  10
0
  20
0
  0
VERTEX
  8
11_0
  10
0.3302
  20
0
  0
VERTEX
  8
11_0
  10
0.3302
  20
1.016
  0
SEQEND
  0
POLYLINE
  8
11_0
  70
1
  66
1
  0
VERTEX
  8
11_0
  10
1.524
  20
1.016
  0
VERTEX
  8
11_0
  10
1.1938
  20
1.016
  0
VERTEX
  8
11_0
  10
1.1938
  20
0
  0
VERTEX
  8
11_0
  10
1.524
  20
0
  0
VERTEX
  8
11_0
  10
1.524
  20
1.016
  0
SEQEND
  0
POLYLINE
  8
99_1_0
  70
0
  66
1
  0
VERTEX
  8
99_1
  10
0.3302
  20
0
  0
VERTEX
  8
99_1
  10
0.3302
  20
1.016
  0
SEQEND
  0
POLYLINE
  8
99_2_0
  70
0
  66
1
  0
VERTEX
  8
99_2
  10
1.1938
  20
1.016
  0
VERTEX
  8
99_2
  10
1.1938
  20
0
  0
SEQEND
  0
ENDBLK
  0
BLOCK
  2
0805
  3
0805
  10
0
  20
0
  70
0
  0
POLYLINE
  8
13_0
  70
1
  66
1
  0
VERTEX
  8
13_0
  10
0
  20
1.27
  0
VERTEX
  8
13_0
  10
0
  20
0
  0
VERTEX
  8
13_0
  10
2.032
  20
0
  0
VERTEX
  8
13_0
  10
2.032
  20
1.27
  0
VERTEX
  8
13_0
  10
0
  20
1.27
  0
SEQEND
  0
POLYLINE
  8
11_0
  70
1
  66
1
  0
VERTEX
  8
11_0
  10
0.508
  20
1.27
  0
VERTEX
  8
11_0
  10
0
  20
1.27
  0
VERTEX
  8
11_0
  10
0
  20
0
  0
VERTEX
  8
11_0
  10
0.508
  20
0
  0
VERTEX
  8
11_0
  10
0.508
  20
1.27
  0
SEQEND
  0
POLYLINE
  8
11_0
  70
1
  66
1
  0
VERTEX
  8
11_0
  10
1.524
  20
1.27
  0
VERTEX
  8
11_0
  10
1.524
  20
0
  0
VERTEX
  8
11_0
  10
2.032
  20
0
  0
VERTEX
  8
11_0
  10
2.032
  20
1.27
  0
VERTEX
  8
11_0
  10
1.524
  20
1.27
  0
SEQEND
  0
POLYLINE
  8
99_1_0
  70
0
  66
1
  0
VERTEX
  8
99_1
  10
0.508
  20
0
  0
VERTEX
  8
99_1
  10
0.508
  20
1.27
  0
SEQEND
  0
POLYLINE
  8
99_2_0
  70
0
  66
1
  0
VERTEX
  8
99_2
  10
1.524
  20
1.27
  0
VERTEX
  8
99_2
  10
1.524
  20
0
  0
SEQEND
  0
ENDBLK
  0
BLOCK
  2
0805HT
  3
0805HT
  10
0
  20
0
  70
0
  0
POLYLINE
  8
13_0
  70
1
  66
1
  0
VERTEX
  8
13_0
  10
0
  20
1.27
  0
VERTEX
  8
13_0
  10
0
  20
0
  0
VERTEX
  8
13_0
  10
2.032
  20
0
  0
VERTEX
  8
13_0
  10
2.032
  20
1.27
  0
VERTEX
  8
13_0
  10
0
  20
1.27
  0
SEQEND
  0
POLYLINE
  8
11_0
  70
1
  66
1
  0
VERTEX
  8
11_0
  10
0
  20
1.27
  0
VERTEX
  8
11_0
  10
0
  20
0
  0
VERTEX
  8
11_0
  10
0.4318
  20
0
  0
VERTEX
  8
11_0
  10
0.4318
  20
1.27
  0
VERTEX
  8
11_0
  10
0
  20
1.27
  0
SEQEND
  0
POLYLINE
  8
11_0
  70
1
  66
1
  0
VERTEX
  8
11_0
  10
1.6002
  20
1.27
  0
VERTEX
  8
11_0
  10
1.6002
  20
0
  0
VERTEX
  8
11_0
  10
2.032
  20
0
  0
VERTEX
  8
11_0
  10
2.032
  20
1.27
  0
VERTEX
  8
11_0
  10
1.6002
  20
1.27
  0
SEQEND
  0
POLYLINE
  8
99_1_0
  70
0
  66
1
  0
VERTEX
  8
99_1
  10
0.4318
  20
0
  0
VERTEX
  8
99_1
  10
0.4318
  20
1.27
  0
SEQEND
  0
POLYLINE
  8
99_2_0
  70
0
  66
1
  0
VERTEX
  8
99_2
  10
1.6002
  20
1.27
  0
VERTEX
  8
99_2
  10
1.6002
  20
0
  0
SEQEND
  0
ENDBLK
  0
BLOCK
  2
0805LS
  3
0805LS
  10
0
  20
0
  70
0
  0
POLYLINE
  8
13_0
  70
1
  66
1
  0
VERTEX
  8
13_0
  10
-0.06
  20
1.55
  0
VERTEX
  8
13_0
  10
-0.06
  20
0.53
  0
VERTEX
  8
13_0
  10
1.21
  20
0.53
  0
VERTEX
  8
13_0
  10
1.21
  20
1.55
  0
VERTEX
  8
13_0
  10
-0.06
  20
1.55
  0
SEQEND
  0
POLYLINE
  8
11_0
  70
1
  66
1
  0
VERTEX
  8
11_0
  10
-0.06
  20
2.06
  0
VERTEX
  8
11_0
  10
-0.06
  20
1.55
  0
VERTEX
  8
11_0
  10
1.21
  20
1.55
  0
VERTEX
  8
11_0
  10
1.21
  20
2.06
  0
VERTEX
  8
11_0
  10
-0.06
  20
2.06
  0
SEQEND
  0
POLYLINE
  8
11_0
  70
1
  66
1
  0
VERTEX
  8
11_0
  10
-0.06
  20
0.53
  0
VERTEX
  8
11_0
  10
-0.06
  20
0.02
  0
VERTEX
  8
11_0
  10
1.21
  20
0.02
  0
VERTEX
  8
11_0
  10
1.21
  20
0.53
  0
VERTEX
  8
11_0
  10
-0.06
  20
0.53
  0
SEQEND
  0
POLYLINE
  8
99_2_0
  70
0
  66
1
  0
VERTEX
  8
13_0
  10
1.21
  20
0.53
  0
VERTEX
  8
13_0
  10
-0.06
  20
0.53
  0
SEQEND
  0
POLYLINE
  8
99_1_0
  70
0
  66
1
  0
VERTEX
  8
13_0
  10
-0.06
  20
1.55
  0
VERTEX
  8
13_0
  10
1.21
  20
1.55
  0
SEQEND
  0
ENDBLK
  0
BLOCK
  2
0805USB
  3
0805USB
  10
0
  20
0
  70
0
  0
POLYLINE
  8
10_0
  70
1
  66
1
  0
VERTEX
  8
10_0
  10
0
  20
1.27
  0
VERTEX
  8
10_0
  10
0
  20
0
  0
VERTEX
  8
10_0
  10
2.03
  20
0
  0
VERTEX
  8
10_0
  10
2.03
  20
1.27
  0
VERTEX
  8
10_0
  10
0
  20
1.27
  0
SEQEND
  0
POLYLINE
  8
11_0
  70
1
  66
1
  0
VERTEX
  8
11_0
  10
0
  20
1.27
  0
VERTEX
  8
11_0
  10
0
  20
0.81
  0
VERTEX
  8
11_0
  10
0.51
  20
0.81
  0
VERTEX
  8
11_0
  10
0.51
  20
1.27
  0
VERTEX
  8
11_0
  10
0
  20
1.27
  0
SEQEND
  0
POLYLINE
  8
11_0
  70
1
  66
1
  0
VERTEX
  8
11_0
  10
0
  20
0.46
  0
VERTEX
  8
11_0
  10
0
  20
0
  0
VERTEX
  8
11_0
  10
0.51
  20
0
  0
VERTEX
  8
11_0
  10
0.51
  20
0.46
  0
VERTEX
  8
11_0
  10
0
  20
0.46
  0
SEQEND
  0
POLYLINE
  8
11_0
  70
1
  66
1
  0
VERTEX
  8
11_0
  10
1.53
  20
1.27
  0
VERTEX
  8
11_0
  10
1.53
  20
0.81
  0
VERTEX
  8
11_0
  10
2.03
  20
0.81
  0
VERTEX
  8
11_0
  10
2.03
  20
1.27
  0
VERTEX
  8
11_0
  10
1.53
  20
1.27
  0
SEQEND
  0
POLYLINE
  8
11_0
  70
1
  66
1
  0
VERTEX
  8
11_0
  10
1.53
  20
0.46
  0
VERTEX
  8
11_0
  10
1.53
  20
0
  0
VERTEX
  8
11_0
  10
2.03
  20
0
  0
VERTEX
  8
11_0
  10
2.03
  20
0.46
  0
VERTEX
  8
11_0
  10
1.53
  20
0.46
  0
SEQEND
  0
POLYLINE
  8
99_4_0
  70
0
  66
1
  0
VERTEX
  8
11_0
  10
0.51
  20
0
  0
VERTEX
  8
11_0
  10
0.51
  20
0.46
  0
SEQEND
  0
POLYLINE
  8
99_3_0
  70
0
  66
1
  0
VERTEX
  8
11_0
  10
1.53
  20
0.46
  0
VERTEX
  8
11_0
  10
1.53
  20
0
  0
SEQEND
  0
POLYLINE
  8
99_2_0
  70
0
  66
1
  0
VERTEX
  8
11_0
  10
1.53
  20
1.27
  0
VERTEX
  8
11_0
  10
1.53
  20
0.81
  0
SEQEND
  0
POLYLINE
  8
99_1_0
  70
0
  66
1
  0
VERTEX
  8
11_0
  10
0.51
  20
0.81
  0
VERTEX
  8
11_0
  10
0.51
  20
1.27
  0
SEQEND
  0
ENDBLK
  0
BLOCK
  2
0805USBF
  3
0805USBF
  10
0
  20
0
  70
0
  0
POLYLINE
  8
13_0
  70
1
  66
1
  0
VERTEX
  8
13_0
  10
0
  20
1.27
  0
VERTEX
  8
13_0
  10
0
  20
0
  0
VERTEX
  8
13_0
  10
2.03
  20
0
  0
VERTEX
  8
13_0
  10
2.03
  20
1.27
  0
VERTEX
  8
13_0
  10
0
  20
1.27
  0
SEQEND
  0
POLYLINE
  8
11_0
  70
1
  66
1
  0
VERTEX
  8
11_0
  10
0
  20
1.27
  0
VERTEX
  8
11_0
  10
0
  20
0.81
  0
VERTEX
  8
11_0
  10
0.51
  20
0.81
  0
VERTEX
  8
11_0
  10
0.51
  20
1.27
  0
VERTEX
  8
11_0
  10
0
  20
1.27
  0
SEQEND
  0
POLYLINE
  8
11_0
  70
1
  66
1
  0
VERTEX
  8
11_0
  10
0
  20
0.46
  0
VERTEX
  8
11_0
  10
0
  20
0
  0
VERTEX
  8
11_0
  10
0.51
  20
0
  0
VERTEX
  8
11_0
  10
0.51
  20
0.46
  0
VERTEX
  8
11_0
  10
0
  20
0.46
  0
SEQEND
  0
POLYLINE
  8
11_0
  70
1
  66
1
  0
VERTEX
  8
11_0
  10
1.53
  20
0.46
  0
VERTEX
  8
11_0
  10
1.53
  20
0
  0
VERTEX
  8
11_0
  10
2.03
  20
0
  0
VERTEX
  8
11_0
  10
2.03
  20
0.46
  0
VERTEX
  8
11_0
  10
1.53
  20
0.46
  0
SEQEND
  0
POLYLINE
  8
11_0
  70
1
  66
1
  0
VERTEX
  8
11_0
  10
1.53
  20
1.27
  0
VERTEX
  8
11_0
  10
1.53
  20
0.81
  0
VERTEX
  8
11_0
  10
2.03
  20
0.81
  0
VERTEX
  8
11_0
  10
2.03
  20
1.27
  0
VERTEX
  8
11_0
  10
1.53
  20
1.27
  0
SEQEND
  0
POLYLINE
  8
99_2_0
  70
0
  66
1
  0
VERTEX
  8
11_0
  10
1.53
  20
1.27
  0
VERTEX
  8
11_0
  10
1.53
  20
0.81
  0
SEQEND
  0
POLYLINE
  8
99_3_0
  70
0
  66
1
  0
VERTEX
  8
11_0
  10
1.53
  20
0.46
  0
VERTEX
  8
11_0
  10
1.53
  20
0
  0
SEQEND
  0
POLYLINE
  8
99_1_0
  70
0
  66
1
  0
VERTEX
  8
11_0
  10
0.51
  20
0.81
  0
VERTEX
  8
11_0
  10
0.51
  20
1.27
  0
SEQEND
  0
POLYLINE
  8
99_4_0
  70
0
  66
1
  0
VERTEX
  8
11_0
  10
0.51
  20
0
  0
VERTEX
  8
11_0
  10
0.51
  20
0.46
  0
SEQEND
  0
ENDBLK
  0
BLOCK
  2
0805USBN
  3
0805USBN
  10
0
  20
0
  70
0
  0
POLYLINE
  8
13_0
  70
1
  66
1
  0
VERTEX
  8
13_0
  10
0
  20
1.27
  0
VERTEX
  8
13_0
  10
0
  20
0
  0
VERTEX
  8
13_0
  10
2.03
  20
0
  0
VERTEX
  8
13_0
  10
2.03
  20
1.27
  0
VERTEX
  8
13_0
  10
0
  20
1.27
  0
SEQEND
  0
POLYLINE
  8
11_0
  70
1
  66
1
  0
VERTEX
  8
11_0
  10
0
  20
1.27
  0
VERTEX
  8
11_0
  10
0
  20
0.81
  0
VERTEX
  8
11_0
  10
0.51
  20
0.81
  0
VERTEX
  8
11_0
  10
0.51
  20
1.27
  0
VERTEX
  8
11_0
  10
0
  20
1.27
  0
SEQEND
  0
POLYLINE
  8
11_0
  70
1
  66
1
  0
VERTEX
  8
11_0
  10
0
  20
0.46
  0
VERTEX
  8
11_0
  10
0
  20
0
  0
VERTEX
  8
11_0
  10
0.51
  20
0
  0
VERTEX
  8
11_0
  10
0.51
  20
0.46
  0
VERTEX
  8
11_0
  10
0
  20
0.46
  0
SEQEND
  0
POLYLINE
  8
11_0
  70
1
  66
1
  0
VERTEX
  8
11_0
  10
1.53
  20
0.46
  0
VERTEX
  8
11_0
  10
1.53
  20
0
  0
VERTEX
  8
11_0
  10
2.03
  20
0
  0
VERTEX
  8
11_0
  10
2.03
  20
0.46
  0
VERTEX
  8
11_0
  10
1.53
  20
0.46
  0
SEQEND
  0
POLYLINE
  8
11_0
  70
1
  66
1
  0
VERTEX
  8
11_0
  10
1.53
  20
1.27
  0
VERTEX
  8
11_0
  10
1.53
  20
0.81
  0
VERTEX
  8
11_0
  10
2.03
  20
0.81
  0
VERTEX
  8
11_0
  10
2.03
  20
1.27
  0
VERTEX
  8
11_0
  10
1.53
  20
1.27
  0
SEQEND
  0
POLYLINE
  8
99_2_0
  70
0
  66
1
  0
VERTEX
  8
11_0
  10
1.53
  20
1.27
  0
VERTEX
  8
11_0
  10
1.53
  20
0.81
  0
SEQEND
  0
POLYLINE
  8
99_3_0
  70
0
  66
1
  0
VERTEX
  8
11_0
  10
1.53
  20
0.46
  0
VERTEX
  8
11_0
  10
1.53
  20
0
  0
SEQEND
  0
POLYLINE
  8
99_1_0
  70
0
  66
1
  0
VERTEX
  8
11_0
  10
0.51
  20
0.81
  0
VERTEX
  8
11_0
  10
0.51
  20
1.27
  0
SEQEND
  0
POLYLINE
  8
99_4_0
  70
0
  66
1
  0
VERTEX
  8
11_0
  10
0.51
  20
0
  0
VERTEX
  8
11_0
  10
0.51
  20
0.46
  0
SEQEND
  0
ENDBLK
  0
BLOCK
  2
0806SQ
  3
0806SQ
  10
0
  20
0
  70
0
  0
POLYLINE
  8
13_0
  70
1
  66
1
  0
VERTEX
  8
13_0
  10
0
  20
1.829
  0
VERTEX
  8
13_0
  10
0
  20
0
  0
VERTEX
  8
13_0
  10
3.1
  20
0
  0
VERTEX
  8
13_0
  10
3.1
  20
1.829
  0
VERTEX
  8
13_0
  10
0
  20
1.829
  0
SEQEND
  0
POLYLINE
  8
11_0
  70
1
  66
1
  0
VERTEX
  8
11_0
  10
2.592
  20
1.829
  0
VERTEX
  8
11_0
  10
2.592
  20
0
  0
VERTEX
  8
11_0
  10
3.1
  20
0
  0
VERTEX
  8
11_0
  10
3.1
  20
1.829
  0
VERTEX
  8
11_0
  10
2.592
  20
1.829
  0
SEQEND
  0
POLYLINE
  8
11_0
  70
1
  66
1
  0
VERTEX
  8
11_0
  10
0.508
  20
1.829
  0
VERTEX
  8
11_0
  10
0
  20
1.829
  0
VERTEX
  8
11_0
  10
0
  20
0
  0
VERTEX
  8
11_0
  10
0.508
  20
0
  0
VERTEX
  8
11_0
  10
0.508
  20
1.829
  0
SEQEND
  0
POLYLINE
  8
99_1_0
  70
0
  66
1
  0
VERTEX
  8
99_1
  10
0.508
  20
0
  0
VERTEX
  8
99_1
  10
0.508
  20
1.829
  0
SEQEND
  0
POLYLINE
  8
99_2_0
  70
0
  66
1
  0
VERTEX
  8
99_2
  10
2.592
  20
1.829
  0
VERTEX
  8
99_2
  10
2.592
  20
0
  0
SEQEND
  0
ENDBLK
  0
BLOCK
  2
0807SQ
  3
0807SQ
  10
0
  20
0
  70
0
  0
POLYLINE
  8
13_0
  70
1
  66
1
  0
VERTEX
  8
13_0
  10
0
  20
1.829
  0
VERTEX
  8
13_0
  10
0
  20
0
  0
VERTEX
  8
13_0
  10
3.1
  20
0
  0
VERTEX
  8
13_0
  10
3.1
  20
1.829
  0
VERTEX
  8
13_0
  10
0
  20
1.829
  0
SEQEND
  0
POLYLINE
  8
11_0
  70
1
  66
1
  0
VERTEX
  8
11_0
  10
0.508
  20
1.829
  0
VERTEX
  8
11_0
  10
0
  20
1.829
  0
VERTEX
  8
11_0
  10
0
  20
0
  0
VERTEX
  8
11_0
  10
0.508
  20
0
  0
VERTEX
  8
11_0
  10
0.508
  20
1.829
  0
SEQEND
  0
POLYLINE
  8
11_0
  70
1
  66
1
  0
VERTEX
  8
11_0
  10
2.592
  20
1.829
  0
VERTEX
  8
11_0
  10
2.592
  20
0
  0
VERTEX
  8
11_0
  10
3.1
  20
0
  0
VERTEX
  8
11_0
  10
3.1
  20
1.829
  0
VERTEX
  8
11_0
  10
2.592
  20
1.829
  0
SEQEND
  0
POLYLINE
  8
99_2_0
  70
0
  66
1
  0
VERTEX
  8
99_2
  10
2.592
  20
1.829
  0
VERTEX
  8
99_2
  10
2.592
  20
0
  0
SEQEND
  0
POLYLINE
  8
99_1_0
  70
0
  66
1
  0
VERTEX
  8
99_1
  10
0.508
  20
0
  0
VERTEX
  8
99_1
  10
0.508
  20
1.829
  0
SEQEND
  0
ENDBLK
  0
BLOCK
  2
0908SQ
  3
0908SQ
  10
0
  20
0
  70
0
  0
POLYLINE
  8
13_0
  70
1
  66
1
  0
VERTEX
  8
13_0
  10
0
  20
2.134
  0
VERTEX
  8
13_0
  10
0
  20
0
  0
VERTEX
  8
13_0
  10
3.612
  20
0
  0
VERTEX
  8
13_0
  10
3.612
  20
2.134
  0
VERTEX
  8
13_0
  10
0
  20
2.134
  0
SEQEND
  0
POLYLINE
  8
11_0
  70
1
  66
1
  0
VERTEX
  8
11_0
  10
2.972
  20
2.134
  0
VERTEX
  8
11_0
  10
2.972
  20
0
  0
VERTEX
  8
11_0
  10
3.612
  20
0
  0
VERTEX
  8
11_0
  10
3.612
  20
2.134
  0
VERTEX
  8
11_0
  10
2.972
  20
2.134
  0
SEQEND
  0
POLYLINE
  8
11_0
  70
1
  66
1
  0
VERTEX
  8
11_0
  10
0.64
  20
2.134
  0
VERTEX
  8
11_0
  10
0
  20
2.134
  0
VERTEX
  8
11_0
  10
0
  20
0
  0
VERTEX
  8
11_0
  10
0.64
  20
0
  0
VERTEX
  8
11_0
  10
0.64
  20
2.134
  0
SEQEND
  0
POLYLINE
  8
99_2_0
  70
0
  66
1
  0
VERTEX
  8
99_2
  10
2.972
  20
2.134
  0
VERTEX
  8
99_2
  10
2.972
  20
0
  0
SEQEND
  0
POLYLINE
  8
99_1_0
  70
0
  66
1
  0
VERTEX
  8
99_1
  10
0.64
  20
0
  0
VERTEX
  8
99_1
  10
0.64
  20
2.134
  0
SEQEND
  0
ENDBLK
  0
BLOCK
  2
1008
  3
1008
  10
0
  20
0
  70
0
  0
POLYLINE
  8
13_0
  70
1
  66
1
  0
VERTEX
  8
13_0
  10
0
  20
0
  0
VERTEX
  8
13_0
  10
2.54
  20
0
  0
VERTEX
  8
13_0
  10
2.54
  20
2.032
  0
VERTEX
  8
13_0
  10
0
  20
2.032
  0
VERTEX
  8
13_0
  10
0
  20
0
  0
SEQEND
  0
POLYLINE
  8
11_0
  70
1
  66
1
  0
VERTEX
  8
11_0
  10
0.508
  20
2.032
  0
VERTEX
  8
11_0
  10
0
  20
2.032
  0
VERTEX
  8
11_0
  10
0
  20
0
  0
VERTEX
  8
11_0
  10
0.508
  20
0
  0
VERTEX
  8
11_0
  10
0.508
  20
2.032
  0
SEQEND
  0
POLYLINE
  8
11_0
  70
1
  66
1
  0
VERTEX
  8
11_0
  10
2.032
  20
0
  0
VERTEX
  8
11_0
  10
2.54
  20
0
  0
VERTEX
  8
11_0
  10
2.54
  20
2.032
  0
VERTEX
  8
11_0
  10
2.032
  20
2.032
  0
VERTEX
  8
11_0
  10
2.032
  20
0
  0
SEQEND
  0
POLYLINE
  8
99_1_0
  70
0
  66
1
  0
VERTEX
  8
99_1
  10
0.508
  20
0
  0
VERTEX
  8
99_1
  10
0.508
  20
2.032
  0
SEQEND
  0
POLYLINE
  8
99_2_0
  70
0
  66
1
  0
VERTEX
  8
99_2
  10
2.032
  20
2.032
  0
VERTEX
  8
99_2
  10
2.032
  20
0
  0
SEQEND
  0
ENDBLK
  0
BLOCK
  2
1008PS
  3
1008PS
  10
0
  20
0
  70
0
  0
POLYLINE
  8
13_0
  70
1
  66
1
  0
VERTEX
  8
13_0
  10
0.03
  20
1.55
  0
VERTEX
  8
13_0
  10
0.03
  20
0.28
  0
VERTEX
  8
13_0
  10
2.57
  20
0.28
  0
VERTEX
  8
13_0
  10
2.57
  20
1.55
  0
VERTEX
  8
13_0
  10
0.03
  20
1.55
  0
SEQEND
  0
POLYLINE
  8
11_0
  70
1
  66
1
  0
VERTEX
  8
11_0
  10
0.03
  20
0.28
  0
VERTEX
  8
11_0
  10
0.03
  20
-0.74
  0
VERTEX
  8
11_0
  10
2.57
  20
-0.74
  0
VERTEX
  8
11_0
  10
2.57
  20
0.28
  0
VERTEX
  8
11_0
  10
0.03
  20
0.28
  0
SEQEND
  0
POLYLINE
  8
11_0
  70
1
  66
1
  0
VERTEX
  8
11_0
  10
0.03
  20
2.57
  0
VERTEX
  8
11_0
  10
0.03
  20
1.55
  0
VERTEX
  8
11_0
  10
2.57
  20
1.55
  0
VERTEX
  8
11_0
  10
2.57
  20
2.57
  0
VERTEX
  8
11_0
  10
0.03
  20
2.57
  0
SEQEND
  0
POLYLINE
  8
99_2_0
  70
0
  66
1
  0
VERTEX
  8
11_0
  10
2.57
  20
0.28
  0
VERTEX
  8
11_0
  10
0.03
  20
0.28
  0
SEQEND
  0
POLYLINE
  8
99_1_0
  70
0
  66
1
  0
VERTEX
  8
11_0
  10
0.03
  20
1.55
  0
VERTEX
  8
11_0
  10
2.57
  20
1.55
  0
SEQEND
  0
ENDBLK
  0
BLOCK
  2
1010VS
  3
1010VS
  10
0
  20
0
  70
0
  0
POLYLINE
  8
13_0
  70
1
  66
1
  0
VERTEX
  8
13_0
  10
0
  20
0
  0
VERTEX
  8
13_0
  10
10.45
  20
0
  0
VERTEX
  8
13_0
  10
10.45
  20
9.53
  0
VERTEX
  8
13_0
  10
0
  20
9.53
  0
VERTEX
  8
13_0
  10
0
  20
0
  0
SEQEND
  0
POLYLINE
  8
11_0
  70
1
  66
1
  0
VERTEX
  8
11_0
  10
7.91
  20
0
  0
VERTEX
  8
11_0
  10
10.45
  20
0
  0
VERTEX
  8
11_0
  10
10.45
  20
9.53
  0
VERTEX
  8
11_0
  10
7.91
  20
9.53
  0
VERTEX
  8
11_0
  10
7.91
  20
0
  0
SEQEND
  0
POLYLINE
  8
11_0
  70
1
  66
1
  0
VERTEX
  8
11_0
  10
2.54
  20
9.53
  0
VERTEX
  8
11_0
  10
0
  20
9.53
  0
VERTEX
  8
11_0
  10
0
  20
0
  0
VERTEX
  8
11_0
  10
2.54
  20
0
  0
VERTEX
  8
11_0
  10
2.54
  20
9.53
  0
SEQEND
  0
POLYLINE
  8
99_2_0
  70
0
  66
1
  0
VERTEX
  8
99_2
  10
7.91
  20
9.53
  0
VERTEX
  8
99_2
  10
7.91
  20
0
  0
SEQEND
  0
POLYLINE
  8
99_1_0
  70
0
  66
1
  0
VERTEX
  8
99_1
  10
2.54
  20
0
  0
VERTEX
  8
99_1
  10
2.54
  20
9.53
  0
SEQEND
  0
ENDBLK
  0
BLOCK
  2
1111SQ
  3
1111SQ
  10
0
  20
0
  70
0
  0
POLYLINE
  8
13_0
  70
1
  66
1
  0
VERTEX
  8
13_0
  10
0
  20
0
  0
VERTEX
  8
13_0
  10
3.3
  20
0
  0
VERTEX
  8
13_0
  10
3.3
  20
2.67
  0
VERTEX
  8
13_0
  10
0
  20
2.67
  0
VERTEX
  8
13_0
  10
0
  20
0
  0
SEQEND
  0
POLYLINE
  8
11_0
  70
1
  66
1
  0
VERTEX
  8
11_0
  10
2.79
  20
0
  0
VERTEX
  8
11_0
  10
3.3
  20
0
  0
VERTEX
  8
11_0
  10
3.3
  20
2.67
  0
VERTEX
  8
11_0
  10
2.79
  20
2.67
  0
VERTEX
  8
11_0
  10
2.79
  20
0
  0
SEQEND
  0
POLYLINE
  8
11_0
  70
1
  66
1
  0
VERTEX
  8
11_0
  10
0.506
  20
2.67
  0
VERTEX
  8
11_0
  10
0
  20
2.67
  0
VERTEX
  8
11_0
  10
0
  20
0
  0
VERTEX
  8
11_0
  10
0.506
  20
0
  0
VERTEX
  8
11_0
  10
0.506
  20
2.67
  0
SEQEND
  0
POLYLINE
  8
99_2_0
  70
0
  66
1
  0
VERTEX
  8
99_2
  10
2.79
  20
2.67
  0
VERTEX
  8
99_2
  10
2.79
  20
0
  0
SEQEND
  0
POLYLINE
  8
99_1_0
  70
0
  66
1
  0
VERTEX
  8
99_1
  10
0.506
  20
0
  0
VERTEX
  8
99_1
  10
0.506
  20
2.67
  0
SEQEND
  0
ENDBLK
  0
BLOCK
  2
1206
  3
1206
  10
0
  20
0
  70
0
  0
POLYLINE
  8
13_0
  70
1
  66
1
  0
VERTEX
  8
13_0
  10
3.048
  20
0
  0
VERTEX
  8
13_0
  10
3.048
  20
1.524
  0
VERTEX
  8
13_0
  10
0
  20
1.524
  0
VERTEX
  8
13_0
  10
0
  20
0
  0
VERTEX
  8
13_0
  10
3.048
  20
0
  0
SEQEND
  0
POLYLINE
  8
11_0
  70
1
  66
1
  0
VERTEX
  8
11_0
  10
0.508
  20
1.524
  0
VERTEX
  8
11_0
  10
0
  20
1.524
  0
VERTEX
  8
11_0
  10
0
  20
0
  0
VERTEX
  8
11_0
  10
0.508
  20
0
  0
VERTEX
  8
11_0
  10
0.508
  20
1.524
  0
SEQEND
  0
POLYLINE
  8
11_0
  70
1
  66
1
  0
VERTEX
  8
11_0
  10
3.048
  20
0
  0
VERTEX
  8
11_0
  10
3.048
  20
1.524
  0
VERTEX
  8
11_0
  10
2.54
  20
1.524
  0
VERTEX
  8
11_0
  10
2.54
  20
0
  0
VERTEX
  8
11_0
  10
3.048
  20
0
  0
SEQEND
  0
POLYLINE
  8
99_1_0
  70
0
  66
1
  0
VERTEX
  8
99_1
  10
0.508
  20
0
  0
VERTEX
  8
99_1
  10
0.508
  20
1.524
  0
SEQEND
  0
POLYLINE
  8
99_2_0
  70
0
  66
1
  0
VERTEX
  8
99_2
  10
2.54
  20
1.524
  0
VERTEX
  8
99_2
  10
2.54
  20
0
  0
SEQEND
  0
ENDBLK
  0
BLOCK
  2
1206USB
  3
1206USB
  10
0
  20
0
  70
0
  0
POLYLINE
  8
13_0
  70
1
  66
1
  0
VERTEX
  8
13_0
  10
0
  20
1.6
  0
VERTEX
  8
13_0
  10
0
  20
0
  0
VERTEX
  8
13_0
  10
3.2
  20
0
  0
VERTEX
  8
13_0
  10
3.2
  20
1.6
  0
VERTEX
  8
13_0
  10
0
  20
1.6
  0
SEQEND
  0
POLYLINE
  8
11_0
  70
1
  66
1
  0
VERTEX
  8
11_0
  10
2.49
  20
0.61
  0
VERTEX
  8
11_0
  10
2.49
  20
0
  0
VERTEX
  8
11_0
  10
3.2
  20
0
  0
VERTEX
  8
11_0
  10
3.2
  20
0.61
  0
VERTEX
  8
11_0
  10
2.49
  20
0.61
  0
SEQEND
  0
POLYLINE
  8
11_0
  70
1
  66
1
  0
VERTEX
  8
11_0
  10
2.49
  20
1.6
  0
VERTEX
  8
11_0
  10
2.49
  20
0.99
  0
VERTEX
  8
11_0
  10
3.2
  20
0.99
  0
VERTEX
  8
11_0
  10
3.2
  20
1.6
  0
VERTEX
  8
11_0
  10
2.49
  20
1.6
  0
SEQEND
  0
POLYLINE
  8
11_0
  70
1
  66
1
  0
VERTEX
  8
11_0
  10
0
  20
1.6
  0
VERTEX
  8
11_0
  10
0
  20
0.99
  0
VERTEX
  8
11_0
  10
0.71
  20
0.99
  0
VERTEX
  8
11_0
  10
0.71
  20
1.6
  0
VERTEX
  8
11_0
  10
0
  20
1.6
  0
SEQEND
  0
POLYLINE
  8
11_0
  70
1
  66
1
  0
VERTEX
  8
11_0
  10
0
  20
0.61
  0
VERTEX
  8
11_0
  10
0
  20
0
  0
VERTEX
  8
11_0
  10
0.71
  20
0
  0
VERTEX
  8
11_0
  10
0.71
  20
0.61
  0
VERTEX
  8
11_0
  10
0
  20
0.61
  0
SEQEND
  0
POLYLINE
  8
99_2_0
  70
0
  66
1
  0
VERTEX
  8
11_0
  10
2.49
  20
1.6
  0
VERTEX
  8
11_0
  10
2.49
  20
0.99
  0
SEQEND
  0
POLYLINE
  8
99_4_0
  70
0
  66
1
  0
VERTEX
  8
11_0
  10
0.71
  20
0
  0
VERTEX
  8
11_0
  10
0.71
  20
0.61
  0
SEQEND
  0
POLYLINE
  8
99_1_0
  70
0
  66
1
  0
VERTEX
  8
11_0
  10
0.71
  20
0.99
  0
VERTEX
  8
11_0
  10
0.71
  20
1.6
  0
SEQEND
  0
POLYLINE
  8
99_3_0
  70
0
  66
1
  0
VERTEX
  8
11_0
  10
2.49
  20
0.61
  0
VERTEX
  8
11_0
  10
2.49
  20
0
  0
SEQEND
  0
ENDBLK
  0
BLOCK
  2
1212VS
  3
1212VS
  10
0
  20
0
  70
0
  0
POLYLINE
  8
13_0
  70
1
  66
1
  0
VERTEX
  8
13_0
  10
0
  20
0
  0
VERTEX
  8
13_0
  10
12.138
  20
0
  0
VERTEX
  8
13_0
  10
12.138
  20
10.34
  0
VERTEX
  8
13_0
  10
0
  20
10.34
  0
VERTEX
  8
13_0
  10
0
  20
0
  0
SEQEND
  0
POLYLINE
  8
11_0
  70
1
  66
1
  0
VERTEX
  8
11_0
  10
8.84
  20
0
  0
VERTEX
  8
11_0
  10
12.148
  20
0
  0
VERTEX
  8
11_0
  10
12.148
  20
10.34
  0
VERTEX
  8
11_0
  10
8.84
  20
10.34
  0
VERTEX
  8
11_0
  10
8.84
  20
0
  0
SEQEND
  0
POLYLINE
  8
11_0
  70
1
  66
1
  0
VERTEX
  8
11_0
  10
3.3
  20
10.34
  0
VERTEX
  8
11_0
  10
0
  20
10.34
  0
VERTEX
  8
11_0
  10
0
  20
0
  0
VERTEX
  8
11_0
  10
3.3
  20
0
  0
VERTEX
  8
11_0
  10
3.3
  20
10.34
  0
SEQEND
  0
POLYLINE
  8
99_2_0
  70
0
  66
1
  0
VERTEX
  8
99_2
  10
8.84
  20
10.34
  0
VERTEX
  8
99_2
  10
8.84
  20
0
  0
SEQEND
  0
POLYLINE
  8
99_1_0
  70
0
  66
1
  0
VERTEX
  8
99_1
  10
3.3
  20
0
  0
VERTEX
  8
99_1
  10
3.3
  20
10.34
  0
SEQEND
  0
ENDBLK
  0
BLOCK
  2
1515SQ
  3
1515SQ
  10
0
  20
0
  70
0
  0
POLYLINE
  8
13_0
  70
1
  66
1
  0
VERTEX
  8
13_0
  10
0
  20
0
  0
VERTEX
  8
13_0
  10
5.84
  20
0
  0
VERTEX
  8
13_0
  10
5.84
  20
3.56
  0
VERTEX
  8
13_0
  10
0
  20
3.56
  0
VERTEX
  8
13_0
  10
0
  20
0
  0
SEQEND
  0
POLYLINE
  8
11_0
  70
1
  66
1
  0
VERTEX
  8
11_0
  10
0.508
  20
3.56
  0
VERTEX
  8
11_0
  10
0
  20
3.56
  0
VERTEX
  8
11_0
  10
0
  20
0
  0
VERTEX
  8
11_0
  10
0.508
  20
0
  0
VERTEX
  8
11_0
  10
0.508
  20
3.56
  0
SEQEND
  0
POLYLINE
  8
11_0
  70
1
  66
1
  0
VERTEX
  8
11_0
  10
5.332
  20
0
  0
VERTEX
  8
11_0
  10
5.84
  20
0
  0
VERTEX
  8
11_0
  10
5.84
  20
3.56
  0
VERTEX
  8
11_0
  10
5.332
  20
3.56
  0
VERTEX
  8
11_0
  10
5.332
  20
0
  0
SEQEND
  0
POLYLINE
  8
99_2_0
  70
0
  66
1
  0
VERTEX
  8
99_2
  10
5.332
  20
3.56
  0
VERTEX
  8
99_2
  10
5.332
  20
0
  0
SEQEND
  0
POLYLINE
  8
99_1_0
  70
0
  66
1
  0
VERTEX
  8
99_1
  10
0.508
  20
0
  0
VERTEX
  8
99_1
  10
0.508
  20
3.56
  0
SEQEND
  0
ENDBLK
  0
BLOCK
  2
1812
  3
1812
  10
0
  20
0
  70
0
  0
POLYLINE
  8
13_0
  70
1
  66
1
  0
VERTEX
  8
13_0
  10
4.572
  20
0
  0
VERTEX
  8
13_0
  10
4.572
  20
3.048
  0
VERTEX
  8
13_0
  10
0
  20
3.048
  0
VERTEX
  8
13_0
  10
0
  20
0
  0
VERTEX
  8
13_0
  10
4.572
  20
0
  0
SEQEND
  0
POLYLINE
  8
11_0
  70
1
  66
1
  0
VERTEX
  8
11_0
  10
0
  20
3.048
  0
VERTEX
  8
11_0
  10
0
  20
0
  0
VERTEX
  8
11_0
  10
0.6604
  20
0
  0
VERTEX
  8
11_0
  10
0.6604
  20
3.048
  0
VERTEX
  8
11_0
  10
0
  20
3.048
  0
SEQEND
  0
POLYLINE
  8
11_0
  70
1
  66
1
  0
VERTEX
  8
11_0
  10
4.572
  20
3.048
  0
VERTEX
  8
11_0
  10
3.9116
  20
3.048
  0
VERTEX
  8
11_0
  10
3.9116
  20
0
  0
VERTEX
  8
11_0
  10
4.572
  20
0
  0
VERTEX
  8
11_0
  10
4.572
  20
3.048
  0
SEQEND
  0
POLYLINE
  8
99_1_0
  70
0
  66
1
  0
VERTEX
  8
99_1
  10
0.6604
  20
0
  0
VERTEX
  8
99_1
  10
0.6604
  20
3.048
  0
SEQEND
  0
POLYLINE
  8
99_2_0
  70
0
  66
1
  0
VERTEX
  8
99_2
  10
3.9116
  20
3.048
  0
VERTEX
  8
99_2
  10
3.9116
  20
0
  0
SEQEND
  0
ENDBLK
  0
BLOCK
  2
1812PS
  3
1812PS
  10
0
  20
0
  70
0
  0
POLYLINE
  8
13_0
  70
1
  66
1
  0
VERTEX
  8
13_0
  10
0.01
  20
3.19
  0
VERTEX
  8
13_0
  10
0.01
  20
0.19
  0
VERTEX
  8
13_0
  10
3.06
  20
0.19
  0
VERTEX
  8
13_0
  10
3.06
  20
3.19
  0
VERTEX
  8
13_0
  10
0.01
  20
3.19
  0
SEQEND
  0
POLYLINE
  8
11_0
  70
1
  66
1
  0
VERTEX
  8
11_0
  10
0.01
  20
0.19
  0
VERTEX
  8
11_0
  10
0.01
  20
-0.96
  0
VERTEX
  8
11_0
  10
3.06
  20
-0.96
  0
VERTEX
  8
11_0
  10
3.06
  20
0.19
  0
VERTEX
  8
11_0
  10
0.01
  20
0.19
  0
SEQEND
  0
POLYLINE
  8
11_0
  70
1
  66
1
  0
VERTEX
  8
11_0
  10
0.01
  20
4.34
  0
VERTEX
  8
11_0
  10
0.01
  20
3.19
  0
VERTEX
  8
11_0
  10
3.06
  20
3.19
  0
VERTEX
  8
11_0
  10
3.06
  20
4.34
  0
VERTEX
  8
11_0
  10
0.01
  20
4.34
  0
SEQEND
  0
POLYLINE
  8
99_2_0
  70
0
  66
1
  0
VERTEX
  8
11_0
  10
3.06
  20
0.19
  0
VERTEX
  8
11_0
  10
0.01
  20
0.19
  0
SEQEND
  0
POLYLINE
  8
99_1_0
  70
0
  66
1
  0
VERTEX
  8
11_0
  10
0.01
  20
3.19
  0
VERTEX
  8
11_0
  10
3.06
  20
3.19
  0
SEQEND
  0
ENDBLK
  0
BLOCK
  2
2014VS
  3
2014VS
  10
0
  20
0
  70
0
  0
POLYLINE
  8
13_0
  70
1
  66
1
  0
VERTEX
  8
13_0
  10
0
  20
0
  0
VERTEX
  8
13_0
  10
14.22
  20
0
  0
VERTEX
  8
13_0
  10
14.22
  20
20.71
  0
VERTEX
  8
13_0
  10
0
  20
20.71
  0
VERTEX
  8
13_0
  10
0
  20
0
  0
SEQEND
  0
POLYLINE
  8
11_0
  70
1
  66
1
  0
VERTEX
  8
11_0
  10
3.425
  20
20.71
  0
VERTEX
  8
11_0
  10
3.425
  20
16.65
  0
VERTEX
  8
11_0
  10
10.795
  20
16.65
  0
VERTEX
  8
11_0
  10
10.795
  20
20.71
  0
VERTEX
  8
11_0
  10
3.425
  20
20.71
  0
SEQEND
  0
POLYLINE
  8
11_0
  70
1
  66
1
  0
VERTEX
  8
11_0
  10
3.81
  20
4.7
  0
VERTEX
  8
11_0
  10
0
  20
4.7
  0
VERTEX
  8
11_0
  10
0
  20
0
  0
VERTEX
  8
11_0
  10
3.81
  20
0
  0
VERTEX
  8
11_0
  10
3.81
  20
4.7
  0
SEQEND
  0
POLYLINE
  8
11_0
  70
1
  66
1
  0
VERTEX
  8
11_0
  10
10.41
  20
0
  0
VERTEX
  8
11_0
  10
14.22
  20
0
  0
VERTEX
  8
11_0
  10
14.22
  20
4.7
  0
VERTEX
  8
11_0
  10
10.41
  20
4.7
  0
VERTEX
  8
11_0
  10
10.41
  20
0
  0
SEQEND
  0
POLYLINE
  8
99_1_0
  70
0
  66
1
  0
VERTEX
  8
99_1
  10
3.81
  20
0
  0
VERTEX
  8
99_1
  10
3.81
  20
4.7
  0
SEQEND
  0
POLYLINE
  8
99_2_0
  70
0
  66
1
  0
VERTEX
  8
99_2
  10
10.41
  20
4.7
  0
VERTEX
  8
99_2
  10
10.41
  20
0
  0
SEQEND
  0
ENDBLK
  0
BLOCK
  2
2222SQ
  3
2222SQ
  10
0
  20
0
  70
0
  0
POLYLINE
  8
13_0
  70
1
  66
1
  0
VERTEX
  8
13_0
  10
0
  20
0
  0
VERTEX
  8
13_0
  10
11.94
  20
0
  0
VERTEX
  8
13_0
  10
11.94
  20
5.72
  0
VERTEX
  8
13_0
  10
0
  20
5.72
  0
VERTEX
  8
13_0
  10
0
  20
0
  0
SEQEND
  0
POLYLINE
  8
11_0
  70
1
  66
1
  0
VERTEX
  8
11_0
  10
11.18
  20
0
  0
VERTEX
  8
11_0
  10
11.94
  20
0
  0
VERTEX
  8
11_0
  10
11.94
  20
5.72
  0
VERTEX
  8
11_0
  10
11.18
  20
5.72
  0
VERTEX
  8
11_0
  10
11.18
  20
0
  0
SEQEND
  0
POLYLINE
  8
11_0
  70
1
  66
1
  0
VERTEX
  8
11_0
  10
0.76
  20
5.72
  0
VERTEX
  8
11_0
  10
0
  20
5.72
  0
VERTEX
  8
11_0
  10
0
  20
0
  0
VERTEX
  8
11_0
  10
0.76
  20
0
  0
VERTEX
  8
11_0
  10
0.76
  20
5.72
  0
SEQEND
  0
POLYLINE
  8
99_2_0
  70
0
  66
1
  0
VERTEX
  8
99_2
  10
11.18
  20
5.72
  0
VERTEX
  8
99_2
  10
11.18
  20
0
  0
SEQEND
  0
POLYLINE
  8
99_1_0
  70
0
  66
1
  0
VERTEX
  8
99_1
  10
0.76
  20
0
  0
VERTEX
  8
99_1
  10
0.76
  20
5.72
  0
SEQEND
  0
ENDBLK
  0
BLOCK
  2
2929SQ
  3
2929SQ
  10
0
  20
0
  70
0
  0
POLYLINE
  8
13_0
  70
1
  66
1
  0
VERTEX
  8
13_0
  10
0
  20
0
  0
VERTEX
  8
13_0
  10
14.051
  20
0
  0
VERTEX
  8
13_0
  10
14.051
  20
7.49
  0
VERTEX
  8
13_0
  10
0
  20
7.49
  0
VERTEX
  8
13_0
  10
0
  20
0
  0
SEQEND
  0
POLYLINE
  8
11_0
  70
1
  66
1
  0
VERTEX
  8
11_0
  10
13.03
  20
0
  0
VERTEX
  8
11_0
  10
14.051
  20
0
  0
VERTEX
  8
11_0
  10
14.051
  20
7.49
  0
VERTEX
  8
11_0
  10
13.03
  20
7.49
  0
VERTEX
  8
11_0
  10
13.03
  20
0
  0
SEQEND
  0
POLYLINE
  8
11_0
  70
1
  66
1
  0
VERTEX
  8
11_0
  10
1.02
  20
7.49
  0
VERTEX
  8
11_0
  10
0
  20
7.49
  0
VERTEX
  8
11_0
  10
0
  20
0
  0
VERTEX
  8
11_0
  10
1.02
  20
0
  0
VERTEX
  8
11_0
  10
1.02
  20
7.49
  0
SEQEND
  0
POLYLINE
  8
99_1_0
  70
0
  66
1
  0
VERTEX
  8
99_1
  10
1.02
  20
0
  0
VERTEX
  8
99_1
  10
1.02
  20
7.49
  0
SEQEND
  0
POLYLINE
  8
99_2_0
  70
0
  66
1
  0
VERTEX
  8
99_2
  10
13.03
  20
7.49
  0
VERTEX
  8
99_2
  10
13.03
  20
0
  0
SEQEND
  0
ENDBLK
  0
BLOCK
  2
4310LC
  3
4310LC
  10
0
  20
0
  70
0
  0
POLYLINE
  8
13_0
  70
1
  66
1
  0
VERTEX
  8
13_0
  10
0
  20
5.458
  0
VERTEX
  8
13_0
  10
0
  20
0.632
  0
VERTEX
  8
13_0
  10
11.94
  20
0.632
  0
VERTEX
  8
13_0
  10
11.94
  20
5.458
  0
VERTEX
  8
13_0
  10
0
  20
5.458
  0
SEQEND
  0
POLYLINE
  8
11_0
  70
1
  66
1
  0
VERTEX
  8
11_0
  10
10.67
  20
6.09
  0
VERTEX
  8
11_0
  10
10.67
  20
5.458
  0
VERTEX
  8
11_0
  10
11.94
  20
5.458
  0
VERTEX
  8
11_0
  10
11.94
  20
6.09
  0
VERTEX
  8
11_0
  10
10.67
  20
6.09
  0
SEQEND
  0
POLYLINE
  8
11_0
  70
1
  66
1
  0
VERTEX
  8
11_0
  10
0
  20
0.632
  0
VERTEX
  8
11_0
  10
0
  20
0
  0
VERTEX
  8
11_0
  10
1.27
  20
0
  0
VERTEX
  8
11_0
  10
1.27
  20
0.632
  0
VERTEX
  8
11_0
  10
0
  20
0.632
  0
SEQEND
  0
POLYLINE
  8
99_2_0
  70
0
  66
1
  0
VERTEX
  8
11_0
  10
1.27
  20
0.632
  0
VERTEX
  8
11_0
  10
0
  20
0.632
  0
SEQEND
  0
POLYLINE
  8
99_1_0
  70
0
  66
1
  0
VERTEX
  8
11_0
  10
10.67
  20
5.458
  0
VERTEX
  8
11_0
  10
11.94
  20
5.458
  0
SEQEND
  0
ENDBLK
  0
BLOCK
  2
BCR_122
  3
BCR_122
  10
0
  20
0
  70
0
  0
POLYLINE
  8
13_0
  70
1
  66
1
  0
VERTEX
  8
13_0
  10
0
  20
2.79
  0
VERTEX
  8
13_0
  10
0
  20
0
  0
VERTEX
  8
13_0
  10
3.3
  20
0
  0
VERTEX
  8
13_0
  10
3.3
  20
2.79
  0
VERTEX
  8
13_0
  10
0
  20
2.79
  0
SEQEND
  0
POLYLINE
  8
11_0
  70
1
  66
1
  0
VERTEX
  8
11_0
  10
2.54
  20
0.76
  0
VERTEX
  8
11_0
  10
2.54
  20
0
  0
VERTEX
  8
11_0
  10
3.3
  20
0
  0
VERTEX
  8
11_0
  10
3.3
  20
0.76
  0
VERTEX
  8
11_0
  10
2.54
  20
0.76
  0
SEQEND
  0
POLYLINE
  8
11_0
  70
1
  66
1
  0
VERTEX
  8
11_0
  10
2.54
  20
2.79
  0
VERTEX
  8
11_0
  10
2.54
  20
2.03
  0
VERTEX
  8
11_0
  10
3.3
  20
2.03
  0
VERTEX
  8
11_0
  10
3.3
  20
2.79
  0
VERTEX
  8
11_0
  10
2.54
  20
2.79
  0
SEQEND
  0
POLYLINE
  8
11_0
  70
1
  66
1
  0
VERTEX
  8
11_0
  10
0
  20
2.79
  0
VERTEX
  8
11_0
  10
0
  20
2.03
  0
VERTEX
  8
11_0
  10
0.76
  20
2.03
  0
VERTEX
  8
11_0
  10
0.76
  20
2.79
  0
VERTEX
  8
11_0
  10
0
  20
2.79
  0
SEQEND
  0
POLYLINE
  8
11_0
  70
1
  66
1
  0
VERTEX
  8
11_0
  10
0
  20
0.76
  0
VERTEX
  8
11_0
  10
0
  20
0
  0
VERTEX
  8
11_0
  10
0.76
  20
0
  0
VERTEX
  8
11_0
  10
0.76
  20
0.76
  0
VERTEX
  8
11_0
  10
0
  20
0.76
  0
SEQEND
  0
POLYLINE
  8
99_2_0
  70
0
  66
1
  0
VERTEX
  8
11_0
  10
0.76
  20
2.03
  0
VERTEX
  8
11_0
  10
0.76
  20
2.79
  0
SEQEND
  0
POLYLINE
  8
99_1_0
  70
0
  66
1
  0
VERTEX
  8
11_0
  10
2.54
  20
0.76
  0
VERTEX
  8
11_0
  10
2.54
  20
0
  0
SEQEND
  0
ENDBLK
  0
BLOCK
  2
BCR_2
  3
BCR_2
  10
0
  20
0
  70
0
  0
POLYLINE
  8
13_0
  70
1
  66
1
  0
VERTEX
  8
13_0
  10
0
  20
4.07
  0
VERTEX
  8
13_0
  10
0
  20
0
  0
VERTEX
  8
13_0
  10
5.85
  20
0
  0
VERTEX
  8
13_0
  10
5.85
  20
4.07
  0
VERTEX
  8
13_0
  10
0
  20
4.07
  0
SEQEND
  0
POLYLINE
  8
11_0
  70
1
  66
1
  0
VERTEX
  8
11_0
  10
0
  20
4.07
  0
VERTEX
  8
11_0
  10
0
  20
3.05
  0
VERTEX
  8
11_0
  10
1.02
  20
3.05
  0
VERTEX
  8
11_0
  10
1.02
  20
4.07
  0
VERTEX
  8
11_0
  10
0
  20
4.07
  0
SEQEND
  0
POLYLINE
  8
11_0
  70
1
  66
1
  0
VERTEX
  8
11_0
  10
0
  20
1.02
  0
VERTEX
  8
11_0
  10
0
  20
0
  0
VERTEX
  8
11_0
  10
1.02
  20
0
  0
VERTEX
  8
11_0
  10
1.02
  20
1.02
  0
VERTEX
  8
11_0
  10
0
  20
1.02
  0
SEQEND
  0
POLYLINE
  8
11_0
  70
1
  66
1
  0
VERTEX
  8
11_0
  10
4.83
  20
4.07
  0
VERTEX
  8
11_0
  10
4.83
  20
3.05
  0
VERTEX
  8
11_0
  10
5.85
  20
3.05
  0
VERTEX
  8
11_0
  10
5.85
  20
4.07
  0
VERTEX
  8
11_0
  10
4.83
  20
4.07
  0
SEQEND
  0
POLYLINE
  8
11_0
  70
1
  66
1
  0
VERTEX
  8
11_0
  10
4.83
  20
1.02
  0
VERTEX
  8
11_0
  10
4.83
  20
0
  0
VERTEX
  8
11_0
  10
5.85
  20
0
  0
VERTEX
  8
11_0
  10
5.85
  20
1.02
  0
VERTEX
  8
11_0
  10
4.83
  20
1.02
  0
SEQEND
  0
POLYLINE
  8
99_2_0
  70
0
  66
1
  0
VERTEX
  8
11_0
  10
1.02
  20
3.05
  0
VERTEX
  8
11_0
  10
1.02
  20
4.07
  0
SEQEND
  0
POLYLINE
  8
99_1_0
  70
0
  66
1
  0
VERTEX
  8
11_0
  10
4.83
  20
1.02
  0
VERTEX
  8
11_0
  10
4.83
  20
0
  0
SEQEND
  0
ENDBLK
  0
BLOCK
  2
BCR_3
  3
BCR_3
  10
0
  20
0
  70
0
  0
POLYLINE
  8
13_0
  70
1
  66
1
  0
VERTEX
  8
13_0
  10
0
  20
6.1
  0
VERTEX
  8
13_0
  10
0
  20
0
  0
VERTEX
  8
13_0
  10
11.68
  20
0
  0
VERTEX
  8
13_0
  10
11.68
  20
6.1
  0
VERTEX
  8
13_0
  10
0
  20
6.1
  0
SEQEND
  0
POLYLINE
  8
11_0
  70
1
  66
1
  0
VERTEX
  8
11_0
  10
0
  20
1.27
  0
VERTEX
  8
11_0
  10
0
  20
0
  0
VERTEX
  8
11_0
  10
1.27
  20
0
  0
VERTEX
  8
11_0
  10
1.27
  20
1.27
  0
VERTEX
  8
11_0
  10
0
  20
1.27
  0
SEQEND
  0
POLYLINE
  8
11_0
  70
1
  66
1
  0
VERTEX
  8
11_0
  10
0
  20
6.1
  0
VERTEX
  8
11_0
  10
0
  20
4.83
  0
VERTEX
  8
11_0
  10
1.27
  20
4.83
  0
VERTEX
  8
11_0
  10
1.27
  20
6.1
  0
VERTEX
  8
11_0
  10
0
  20
6.1
  0
SEQEND
  0
POLYLINE
  8
11_0
  70
1
  66
1
  0
VERTEX
  8
11_0
  10
10.41
  20
1.27
  0
VERTEX
  8
11_0
  10
10.41
  20
0
  0
VERTEX
  8
11_0
  10
11.68
  20
0
  0
VERTEX
  8
11_0
  10
11.68
  20
1.27
  0
VERTEX
  8
11_0
  10
10.41
  20
1.27
  0
SEQEND
  0
POLYLINE
  8
11_0
  70
1
  66
1
  0
VERTEX
  8
11_0
  10
10.41
  20
6.1
  0
VERTEX
  8
11_0
  10
10.41
  20
4.83
  0
VERTEX
  8
11_0
  10
11.68
  20
4.83
  0
VERTEX
  8
11_0
  10
11.68
  20
6.1
  0
VERTEX
  8
11_0
  10
10.41
  20
6.1
  0
SEQEND
  0
POLYLINE
  8
99_1_0
  70
0
  66
1
  0
VERTEX
  8
11_0
  10
10.41
  20
1.27
  0
VERTEX
  8
11_0
  10
10.41
  20
0
  0
SEQEND
  0
POLYLINE
  8
99_2_0
  70
0
  66
1
  0
VERTEX
  8
11_0
  10
1.27
  20
4.83
  0
VERTEX
  8
11_0
  10
1.27
  20
6.1
  0
SEQEND
  0
ENDBLK
  0
BLOCK
  2
BCS_122
  3
BCS_122
  10
0
  20
0
  70
0
  0
POLYLINE
  8
13_0
  70
1
  66
1
  0
VERTEX
  8
13_0
  10
0
  20
2.79
  0
VERTEX
  8
13_0
  10
0
  20
0
  0
VERTEX
  8
13_0
  10
3.3
  20
0
  0
VERTEX
  8
13_0
  10
3.3
  20
2.79
  0
VERTEX
  8
13_0
  10
0
  20
2.79
  0
SEQEND
  0
POLYLINE
  8
11_0
  70
1
  66
1
  0
VERTEX
  8
11_0
  10
2.54
  20
0.76
  0
VERTEX
  8
11_0
  10
2.54
  20
0
  0
VERTEX
  8
11_0
  10
3.3
  20
0
  0
VERTEX
  8
11_0
  10
3.3
  20
0.76
  0
VERTEX
  8
11_0
  10
2.54
  20
0.76
  0
SEQEND
  0
POLYLINE
  8
11_0
  70
1
  66
1
  0
VERTEX
  8
11_0
  10
0
  20
2.79
  0
VERTEX
  8
11_0
  10
0
  20
2.03
  0
VERTEX
  8
11_0
  10
0.76
  20
2.03
  0
VERTEX
  8
11_0
  10
0.76
  20
2.79
  0
VERTEX
  8
11_0
  10
0
  20
2.79
  0
SEQEND
  0
POLYLINE
  8
11_0
  70
1
  66
1
  0
VERTEX
  8
11_0
  10
0
  20
0.76
  0
VERTEX
  8
11_0
  10
0
  20
0
  0
VERTEX
  8
11_0
  10
0.76
  20
0
  0
VERTEX
  8
11_0
  10
0.76
  20
0.76
  0
VERTEX
  8
11_0
  10
0
  20
0.76
  0
SEQEND
  0
POLYLINE
  8
99_1_0
  70
0
  66
1
  0
VERTEX
  8
11_0
  10
2.54
  20
0.76
  0
VERTEX
  8
11_0
  10
2.54
  20
0
  0
SEQEND
  0
POLYLINE
  8
99_2_0
  70
0
  66
1
  0
VERTEX
  8
11_0
  10
0.76
  20
2.03
  0
VERTEX
  8
11_0
  10
0.76
  20
2.79
  0
SEQEND
  0
ENDBLK
  0
BLOCK
  2
BCS_2
  3
BCS_2
  10
0
  20
0
  70
0
  0
POLYLINE
  8
13_0
  70
1
  66
1
  0
VERTEX
  8
13_0
  10
0
  20
4.07
  0
VERTEX
  8
13_0
  10
0
  20
0
  0
VERTEX
  8
13_0
  10
5.85
  20
0
  0
VERTEX
  8
13_0
  10
5.85
  20
4.07
  0
VERTEX
  8
13_0
  10
0
  20
4.07
  0
SEQEND
  0
POLYLINE
  8
11_0
  70
1
  66
1
  0
VERTEX
  8
11_0
  10
0
  20
4.07
  0
VERTEX
  8
11_0
  10
0
  20
3.05
  0
VERTEX
  8
11_0
  10
1.02
  20
3.05
  0
VERTEX
  8
11_0
  10
1.02
  20
4.07
  0
VERTEX
  8
11_0
  10
0
  20
4.07
  0
SEQEND
  0
POLYLINE
  8
11_0
  70
1
  66
1
  0
VERTEX
  8
11_0
  10
0
  20
1.02
  0
VERTEX
  8
11_0
  10
0
  20
0
  0
VERTEX
  8
11_0
  10
1.02
  20
0
  0
VERTEX
  8
11_0
  10
1.02
  20
1.02
  0
VERTEX
  8
11_0
  10
0
  20
1.02
  0
SEQEND
  0
POLYLINE
  8
11_0
  70
1
  66
1
  0
VERTEX
  8
11_0
  10
4.83
  20
1.02
  0
VERTEX
  8
11_0
  10
4.83
  20
0
  0
VERTEX
  8
11_0
  10
5.85
  20
0
  0
VERTEX
  8
11_0
  10
5.85
  20
1.02
  0
VERTEX
  8
11_0
  10
4.83
  20
1.02
  0
SEQEND
  0
POLYLINE
  8
99_2_0
  70
0
  66
1
  0
VERTEX
  8
11_0
  10
1.02
  20
3.05
  0
VERTEX
  8
11_0
  10
1.02
  20
4.07
  0
SEQEND
  0
POLYLINE
  8
99_1_0
  70
0
  66
1
  0
VERTEX
  8
11_0
  10
4.83
  20
1.02
  0
VERTEX
  8
11_0
  10
4.83
  20
0
  0
SEQEND
  0
ENDBLK
  0
BLOCK
  2
BCS_3
  3
BCS_3
  10
0
  20
0
  70
0
  0
POLYLINE
  8
13_0
  70
1
  66
1
  0
VERTEX
  8
13_0
  10
0
  20
6.1
  0
VERTEX
  8
13_0
  10
0
  20
0
  0
VERTEX
  8
13_0
  10
11.68
  20
0
  0
VERTEX
  8
13_0
  10
11.68
  20
6.1
  0
VERTEX
  8
13_0
  10
0
  20
6.1
  0
SEQEND
  0
POLYLINE
  8
11_0
  70
1
  66
1
  0
VERTEX
  8
11_0
  10
0
  20
1.27
  0
VERTEX
  8
11_0
  10
0
  20
0
  0
VERTEX
  8
11_0
  10
1.27
  20
0
  0
VERTEX
  8
11_0
  10
1.27
  20
1.27
  0
VERTEX
  8
11_0
  10
0
  20
1.27
  0
SEQEND
  0
POLYLINE
  8
11_0
  70
1
  66
1
  0
VERTEX
  8
11_0
  10
0
  20
6.1
  0
VERTEX
  8
11_0
  10
0
  20
4.83
  0
VERTEX
  8
11_0
  10
1.27
  20
4.83
  0
VERTEX
  8
11_0
  10
1.27
  20
6.1
  0
VERTEX
  8
11_0
  10
0
  20
6.1
  0
SEQEND
  0
POLYLINE
  8
11_0
  70
1
  66
1
  0
VERTEX
  8
11_0
  10
10.41
  20
1.27
  0
VERTEX
  8
11_0
  10
10.41
  20
0
  0
VERTEX
  8
11_0
  10
11.68
  20
0
  0
VERTEX
  8
11_0
  10
11.68
  20
1.27
  0
VERTEX
  8
11_0
  10
10.41
  20
1.27
  0
SEQEND
  0
POLYLINE
  8
99_1_0
  70
0
  66
1
  0
VERTEX
  8
11_0
  10
10.41
  20
1.27
  0
VERTEX
  8
11_0
  10
10.41
  20
0
  0
SEQEND
  0
POLYLINE
  8
99_2_0
  70
0
  66
1
  0
VERTEX
  8
11_0
  10
1.27
  20
4.83
  0
VERTEX
  8
11_0
  10
1.27
  20
6.1
  0
SEQEND
  0
ENDBLK
  0
BLOCK
  2
GA3092
  3
GA3092
  10
0
  20
0
  70
0
  0
POLYLINE
  8
13_0
  70
1
  66
1
  0
VERTEX
  8
13_0
  10
0
  20
0
  0
VERTEX
  8
13_0
  10
4.572
  20
0
  0
VERTEX
  8
13_0
  10
4.572
  20
5.84
  0
VERTEX
  8
13_0
  10
0
  20
5.84
  0
VERTEX
  8
13_0
  10
0
  20
0
  0
SEQEND
  0
POLYLINE
  8
11_0
  70
1
  66
1
  0
VERTEX
  8
11_0
  10
3.048
  20
0
  0
VERTEX
  8
11_0
  10
4.572
  20
0
  0
VERTEX
  8
11_0
  10
4.572
  20
5.84
  0
VERTEX
  8
11_0
  10
3.048
  20
5.84
  0
VERTEX
  8
11_0
  10
3.048
  20
0
  0
SEQEND
  0
POLYLINE
  8
11_0
  70
1
  66
1
  0
VERTEX
  8
11_0
  10
1.524
  20
5.84
  0
VERTEX
  8
11_0
  10
0
  20
5.84
  0
VERTEX
  8
11_0
  10
0
  20
0
  0
VERTEX
  8
11_0
  10
1.524
  20
0
  0
VERTEX
  8
11_0
  10
1.524
  20
5.84
  0
SEQEND
  0
POLYLINE
  8
99_1_0
  70
0
  66
1
  0
VERTEX
  8
99_1
  10
1.524
  20
0
  0
VERTEX
  8
99_1
  10
1.524
  20
5.84
  0
SEQEND
  0
POLYLINE
  8
99_2_0
  70
0
  66
1
  0
VERTEX
  8
99_2
  10
3.048
  20
5.84
  0
VERTEX
  8
99_2
  10
3.048
  20
0
  0
SEQEND
  0
ENDBLK
  0
BLOCK
  2
GA3093
  3
GA3093
  10
0
  20
0
  70
0
  0
POLYLINE
  8
13_0
  70
1
  66
1
  0
VERTEX
  8
13_0
  10
0
  20
0
  0
VERTEX
  8
13_0
  10
4.572
  20
0
  0
VERTEX
  8
13_0
  10
4.572
  20
5.84
  0
VERTEX
  8
13_0
  10
0
  20
5.84
  0
VERTEX
  8
13_0
  10
0
  20
0
  0
SEQEND
  0
POLYLINE
  8
11_0
  70
1
  66
1
  0
VERTEX
  8
11_0
  10
3.048
  20
0
  0
VERTEX
  8
11_0
  10
4.572
  20
0
  0
VERTEX
  8
11_0
  10
4.572
  20
5.84
  0
VERTEX
  8
11_0
  10
3.048
  20
5.84
  0
VERTEX
  8
11_0
  10
3.048
  20
0
  0
SEQEND
  0
POLYLINE
  8
11_0
  70
1
  66
1
  0
VERTEX
  8
11_0
  10
1.524
  20
5.84
  0
VERTEX
  8
11_0
  10
0
  20
5.84
  0
VERTEX
  8
11_0
  10
0
  20
0
  0
VERTEX
  8
11_0
  10
1.524
  20
0
  0
VERTEX
  8
11_0
  10
1.524
  20
5.84
  0
SEQEND
  0
POLYLINE
  8
99_1_0
  70
0
  66
1
  0
VERTEX
  8
99_1
  10
1.524
  20
0
  0
VERTEX
  8
99_1
  10
1.524
  20
5.84
  0
SEQEND
  0
POLYLINE
  8
99_2_0
  70
0
  66
1
  0
VERTEX
  8
99_2
  10
3.048
  20
5.84
  0
VERTEX
  8
99_2
  10
3.048
  20
0
  0
SEQEND
  0
ENDBLK
  0
BLOCK
  2
GA3094
  3
GA3094
  10
0
  20
0
  70
0
  0
POLYLINE
  8
13_0
  70
1
  66
1
  0
VERTEX
  8
13_0
  10
0
  20
0
  0
VERTEX
  8
13_0
  10
5.207
  20
0
  0
VERTEX
  8
13_0
  10
5.207
  20
5.84
  0
VERTEX
  8
13_0
  10
0
  20
5.84
  0
VERTEX
  8
13_0
  10
0
  20
0
  0
SEQEND
  0
POLYLINE
  8
11_0
  70
1
  66
1
  0
VERTEX
  8
11_0
  10
1.524
  20
5.84
  0
VERTEX
  8
11_0
  10
0
  20
5.84
  0
VERTEX
  8
11_0
  10
0
  20
0
  0
VERTEX
  8
11_0
  10
1.524
  20
0
  0
VERTEX
  8
11_0
  10
1.524
  20
5.84
  0
SEQEND
  0
POLYLINE
  8
11_0
  70
1
  66
1
  0
VERTEX
  8
11_0
  10
3.683
  20
0
  0
VERTEX
  8
11_0
  10
5.207
  20
0
  0
VERTEX
  8
11_0
  10
5.207
  20
5.84
  0
VERTEX
  8
11_0
  10
3.683
  20
5.84
  0
VERTEX
  8
11_0
  10
3.683
  20
0
  0
SEQEND
  0
POLYLINE
  8
99_2_0
  70
0
  66
1
  0
VERTEX
  8
99_2
  10
3.683
  20
5.84
  0
VERTEX
  8
99_2
  10
3.683
  20
0
  0
SEQEND
  0
POLYLINE
  8
99_1_0
  70
0
  66
1
  0
VERTEX
  8
99_1
  10
1.524
  20
0
  0
VERTEX
  8
99_1
  10
1.524
  20
5.84
  0
SEQEND
  0
ENDBLK
  0
BLOCK
  2
GA3095
  3
GA3095
  10
0
  20
0
  70
0
  0
POLYLINE
  8
13_0
  70
1
  66
1
  0
VERTEX
  8
13_0
  10
0
  20
0
  0
VERTEX
  8
13_0
  10
5.969
  20
0
  0
VERTEX
  8
13_0
  10
5.969
  20
5.84
  0
VERTEX
  8
13_0
  10
0
  20
5.84
  0
VERTEX
  8
13_0
  10
0
  20
0
  0
SEQEND
  0
POLYLINE
  8
11_0
  70
1
  66
1
  0
VERTEX
  8
11_0
  10
4.445
  20
0
  0
VERTEX
  8
11_0
  10
5.969
  20
0
  0
VERTEX
  8
11_0
  10
5.969
  20
5.84
  0
VERTEX
  8
11_0
  10
4.445
  20
5.84
  0
VERTEX
  8
11_0
  10
4.445
  20
0
  0
SEQEND
  0
POLYLINE
  8
11_0
  70
1
  66
1
  0
VERTEX
  8
11_0
  10
1.524
  20
5.84
  0
VERTEX
  8
11_0
  10
0
  20
5.84
  0
VERTEX
  8
11_0
  10
0
  20
0
  0
VERTEX
  8
11_0
  10
1.524
  20
0
  0
VERTEX
  8
11_0
  10
1.524
  20
5.84
  0
SEQEND
  0
POLYLINE
  8
99_2_0
  70
0
  66
1
  0
VERTEX
  8
99_2
  10
4.445
  20
5.84
  0
VERTEX
  8
99_2
  10
4.445
  20
0
  0
SEQEND
  0
POLYLINE
  8
99_1_0
  70
0
  66
1
  0
VERTEX
  8
99_1
  10
1.524
  20
0
  0
VERTEX
  8
99_1
  10
1.524
  20
5.84
  0
SEQEND
  0
ENDBLK
  0
BLOCK
  2
HA403x
  3
HA403x
  10
0
  20
0
  70
0
  0
POLYLINE
  8
13_0
  70
1
  66
1
  0
VERTEX
  8
13_0
  10
4.53
  20
0
  0
VERTEX
  8
13_0
  10
4.53
  20
2.54
  0
VERTEX
  8
13_0
  10
0
  20
2.54
  0
VERTEX
  8
13_0
  10
0
  20
0
  0
VERTEX
  8
13_0
  10
4.53
  20
0
  0
SEQEND
  0
POLYLINE
  8
11_0
  70
1
  66
1
  0
VERTEX
  8
11_0
  10
0
  20
2.54
  0
VERTEX
  8
11_0
  10
0
  20
0
  0
VERTEX
  8
11_0
  10
0.64
  20
0
  0
VERTEX
  8
11_0
  10
0.64
  20
2.54
  0
VERTEX
  8
11_0
  10
0
  20
2.54
  0
SEQEND
  0
POLYLINE
  8
11_0
  70
1
  66
1
  0
VERTEX
  8
11_0
  10
4.53
  20
2.54
  0
VERTEX
  8
11_0
  10
3.89
  20
2.54
  0
VERTEX
  8
11_0
  10
3.89
  20
0
  0
VERTEX
  8
11_0
  10
4.53
  20
0
  0
VERTEX
  8
11_0
  10
4.53
  20
2.54
  0
SEQEND
  0
POLYLINE
  8
99_1_0
  70
0
  66
1
  0
VERTEX
  8
99_1
  10
0.64
  20
0
  0
VERTEX
  8
99_1
  10
0.64
  20
2.54
  0
SEQEND
  0
POLYLINE
  8
99_2_0
  70
0
  66
1
  0
VERTEX
  8
99_2
  10
3.89
  20
2.54
  0
VERTEX
  8
99_2
  10
3.89
  20
0
  0
SEQEND
  0
ENDBLK
  0
BLOCK
  2
LPD3015
  3
LPD3015
  10
0
  20
0
  70
0
  0
POLYLINE
  8
13_0
  70
1
  66
1
  0
VERTEX
  8
13_0
  10
0.5
  20
0
  0
VERTEX
  8
13_0
  10
0
  20
0.5
  0
VERTEX
  8
13_0
  10
0
  20
2.8
  0
VERTEX
  8
13_0
  10
0.5
  20
3.3
  0
VERTEX
  8
13_0
  10
2.8
  20
3.3
  0
VERTEX
  8
13_0
  10
3.3
  20
2.8
  0
VERTEX
  8
13_0
  10
3.3
  20
0.5
  0
VERTEX
  8
13_0
  10
2.8
  20
0
  0
VERTEX
  8
13_0
  10
0.5
  20
0
  0
SEQEND
  0
POLYLINE
  8
11_0
  70
1
  66
1
  0
VERTEX
  8
11_0
  10
0.5
  20
0
  0
VERTEX
  8
11_0
  10
0
  20
0.5
  0
VERTEX
  8
11_0
  10
0
  20
1.14
  0
VERTEX
  8
11_0
  10
0.54
  20
1.14
  0
VERTEX
  8
11_0
  10
1.14
  20
0.54
  0
VERTEX
  8
11_0
  10
1.14
  20
0
  0
VERTEX
  8
11_0
  10
0.5
  20
0
  0
SEQEND
  0
POLYLINE
  8
11_0
  70
1
  66
1
  0
VERTEX
  8
11_0
  10
3.3
  20
0.5
  0
VERTEX
  8
11_0
  10
2.8
  20
0
  0
VERTEX
  8
11_0
  10
2.16
  20
0
  0
VERTEX
  8
11_0
  10
2.16
  20
0.54
  0
VERTEX
  8
11_0
  10
2.76
  20
1.14
  0
VERTEX
  8
11_0
  10
3.3
  20
1.14
  0
VERTEX
  8
11_0
  10
3.3
  20
0.5
  0
SEQEND
  0
POLYLINE
  8
11_0
  70
1
  66
1
  0
VERTEX
  8
11_0
  10
2.8
  20
3.3
  0
VERTEX
  8
11_0
  10
3.3
  20
2.8
  0
VERTEX
  8
11_0
  10
3.3
  20
2.16
  0
VERTEX
  8
11_0
  10
2.76
  20
2.16
  0
VERTEX
  8
11_0
  10
2.16
  20
2.76
  0
VERTEX
  8
11_0
  10
2.16
  20
3.3
  0
VERTEX
  8
11_0
  10
2.8
  20
3.3
  0
SEQEND
  0
POLYLINE
  8
11_0
  70
1
  66
1
  0
VERTEX
  8
11_0
  10
0
  20
2.8
  0
VERTEX
  8
11_0
  10
0.5
  20
3.3
  0
VERTEX
  8
11_0
  10
1.14
  20
3.3
  0
VERTEX
  8
11_0
  10
1.14
  20
2.76
  0
VERTEX
  8
11_0
  10
0.54
  20
2.16
  0
VERTEX
  8
11_0
  10
0
  20
2.16
  0
VERTEX
  8
11_0
  10
0
  20
2.8
  0
SEQEND
  0
POLYLINE
  8
99_2_0
  70
0
  66
1
  0
VERTEX
  8
11_0
  10
1.14
  20
0.54
  0
VERTEX
  8
11_0
  10
0.54
  20
1.14
  0
SEQEND
  0
POLYLINE
  8
99_1_0
  70
0
  66
1
  0
VERTEX
  8
11_0
  10
0.54
  20
2.16
  0
VERTEX
  8
11_0
  10
1.14
  20
2.76
  0
SEQEND
  0
POLYLINE
  8
99_3_0
  70
0
  66
1
  0
VERTEX
  8
11_0
  10
2.76
  20
1.14
  0
VERTEX
  8
11_0
  10
2.16
  20
0.54
  0
SEQEND
  0
POLYLINE
  8
99_4_0
  70
0
  66
1
  0
VERTEX
  8
11_0
  10
2.16
  20
2.76
  0
VERTEX
  8
11_0
  10
2.76
  20
2.16
  0
SEQEND
  0
ENDBLK
  0
BLOCK
  2
LPD4012
  3
LPD4012
  10
0
  20
0
  70
0
  0
POLYLINE
  8
13_0
  70
1
  66
1
  0
VERTEX
  8
13_0
  10
0.897
  20
0
  0
VERTEX
  8
13_0
  10
0
  20
0.897
  0
VERTEX
  8
13_0
  10
0
  20
3.503
  0
VERTEX
  8
13_0
  10
0.897
  20
4.4
  0
VERTEX
  8
13_0
  10
3.503
  20
4.4
  0
VERTEX
  8
13_0
  10
4.4
  20
3.503
  0
VERTEX
  8
13_0
  10
4.4
  20
0.897
  0
VERTEX
  8
13_0
  10
3.503
  20
0
  0
VERTEX
  8
13_0
  10
0.897
  20
0
  0
SEQEND
  0
POLYLINE
  8
11_0
  70
1
  66
1
  0
VERTEX
  8
11_0
  10
3.503
  20
0
  0
VERTEX
  8
11_0
  10
4.4
  20
0.897
  0
VERTEX
  8
11_0
  10
4.4
  20
1.58
  0
VERTEX
  8
11_0
  10
3.62
  20
1.58
  0
VERTEX
  8
11_0
  10
2.82
  20
0.78
  0
VERTEX
  8
11_0
  10
2.82
  20
0
  0
VERTEX
  8
11_0
  10
3.503
  20
0
  0
SEQEND
  0
POLYLINE
  8
11_0
  70
1
  66
1
  0
VERTEX
  8
11_0
  10
0.897
  20
4.4
  0
VERTEX
  8
11_0
  10
0
  20
3.503
  0
VERTEX
  8
11_0
  10
0
  20
2.82
  0
VERTEX
  8
11_0
  10
0.78
  20
2.82
  0
VERTEX
  8
11_0
  10
1.58
  20
3.62
  0
VERTEX
  8
11_0
  10
1.58
  20
4.4
  0
VERTEX
  8
11_0
  10
0.897
  20
4.4
  0
SEQEND
  0
POLYLINE
  8
11_0
  70
1
  66
1
  0
VERTEX
  8
11_0
  10
0
  20
0.897
  0
VERTEX
  8
11_0
  10
0.897
  20
0
  0
VERTEX
  8
11_0
  10
1.58
  20
0
  0
VERTEX
  8
11_0
  10
1.58
  20
0.78
  0
VERTEX
  8
11_0
  10
0.78
  20
1.58
  0
VERTEX
  8
11_0
  10
0
  20
1.58
  0
VERTEX
  8
11_0
  10
0
  20
0.897
  0
SEQEND
  0
POLYLINE
  8
11_0
  70
1
  66
1
  0
VERTEX
  8
11_0
  10
4.4
  20
3.503
  0
VERTEX
  8
11_0
  10
3.503
  20
4.4
  0
VERTEX
  8
11_0
  10
2.82
  20
4.4
  0
VERTEX
  8
11_0
  10
2.82
  20
3.62
  0
VERTEX
  8
11_0
  10
3.62
  20
2.82
  0
VERTEX
  8
11_0
  10
4.4
  20
2.82
  0
VERTEX
  8
11_0
  10
4.4
  20
3.503
  0
SEQEND
  0
POLYLINE
  8
99_1_0
  70
0
  66
1
  0
VERTEX
  8
11_0
  10
0.78
  20
2.82
  0
VERTEX
  8
11_0
  10
1.58
  20
3.62
  0
SEQEND
  0
POLYLINE
  8
99_2_0
  70
0
  66
1
  0
VERTEX
  8
11_0
  10
1.58
  20
0.78
  0
VERTEX
  8
11_0
  10
0.78
  20
1.58
  0
SEQEND
  0
POLYLINE
  8
99_3_0
  70
0
  66
1
  0
VERTEX
  8
11_0
  10
3.62
  20
1.58
  0
VERTEX
  8
11_0
  10
2.82
  20
0.78
  0
SEQEND
  0
POLYLINE
  8
99_4_0
  70
0
  66
1
  0
VERTEX
  8
11_0
  10
2.82
  20
3.62
  0
VERTEX
  8
11_0
  10
3.62
  20
2.82
  0
SEQEND
  0
ENDBLK
  0
BLOCK
  2
LPD5010
  3
LPD5010
  10
0
  20
0
  70
0
  0
POLYLINE
  8
13_0
  70
1
  66
1
  0
VERTEX
  8
13_0
  10
0.8
  20
0
  0
VERTEX
  8
13_0
  10
0
  20
0.8
  0
VERTEX
  8
13_0
  10
0
  20
4.2
  0
VERTEX
  8
13_0
  10
0.8
  20
5
  0
VERTEX
  8
13_0
  10
4.2
  20
5
  0
VERTEX
  8
13_0
  10
5
  20
4.2
  0
VERTEX
  8
13_0
  10
5
  20
0.8
  0
VERTEX
  8
13_0
  10
4.2
  20
0
  0
VERTEX
  8
13_0
  10
0.8
  20
0
  0
SEQEND
  0
POLYLINE
  8
11_0
  70
1
  66
1
  0
VERTEX
  8
11_0
  10
0
  20
0.8
  0
VERTEX
  8
11_0
  10
0.8
  20
0
  0
VERTEX
  8
11_0
  10
1.75
  20
0
  0
VERTEX
  8
11_0
  10
1.75
  20
0.75
  0
VERTEX
  8
11_0
  10
1.35
  20
0.75
  0
VERTEX
  8
11_0
  10
0.75
  20
1.35
  0
VERTEX
  8
11_0
  10
0.75
  20
1.75
  0
VERTEX
  8
11_0
  10
0
  20
1.75
  0
VERTEX
  8
11_0
  10
0
  20
0.8
  0
SEQEND
  0
POLYLINE
  8
11_0
  70
1
  66
1
  0
VERTEX
  8
11_0
  10
4.2
  20
0
  0
VERTEX
  8
11_0
  10
5
  20
0.8
  0
VERTEX
  8
11_0
  10
5
  20
1.75
  0
VERTEX
  8
11_0
  10
4.25
  20
1.75
  0
VERTEX
  8
11_0
  10
4.25
  20
1.35
  0
VERTEX
  8
11_0
  10
3.65
  20
0.75
  0
VERTEX
  8
11_0
  10
3.25
  20
0.75
  0
VERTEX
  8
11_0
  10
3.25
  20
0
  0
VERTEX
  8
11_0
  10
4.2
  20
0
  0
SEQEND
  0
POLYLINE
  8
11_0
  70
1
  66
1
  0
VERTEX
  8
11_0
  10
5
  20
4.2
  0
VERTEX
  8
11_0
  10
4.2
  20
5
  0
VERTEX
  8
11_0
  10
3.25
  20
5
  0
VERTEX
  8
11_0
  10
3.25
  20
4.25
  0
VERTEX
  8
11_0
  10
3.65
  20
4.25
  0
VERTEX
  8
11_0
  10
4.25
  20
3.65
  0
VERTEX
  8
11_0
  10
4.25
  20
3.25
  0
VERTEX
  8
11_0
  10
5
  20
3.25
  0
VERTEX
  8
11_0
  10
5
  20
4.2
  0
SEQEND
  0
POLYLINE
  8
11_0
  70
1
  66
1
  0
VERTEX
  8
11_0
  10
0.8
  20
5
  0
VERTEX
  8
11_0
  10
0
  20
4.2
  0
VERTEX
  8
11_0
  10
0
  20
3.25
  0
VERTEX
  8
11_0
  10
0.75
  20
3.25
  0
VERTEX
  8
11_0
  10
0.75
  20
3.65
  0
VERTEX
  8
11_0
  10
1.35
  20
4.25
  0
VERTEX
  8
11_0
  10
1.75
  20
4.25
  0
VERTEX
  8
11_0
  10
1.75
  20
5
  0
VERTEX
  8
11_0
  10
0.8
  20
5
  0
SEQEND
  0
POLYLINE
  8
99_2_0
  70
0
  66
1
  0
VERTEX
  8
11_0
  10
1.35
  20
0.75
  0
VERTEX
  8
11_0
  10
0.75
  20
1.35
  0
SEQEND
  0
POLYLINE
  8
99_3_0
  70
0
  66
1
  0
VERTEX
  8
11_0
  10
4.25
  20
1.35
  0
VERTEX
  8
11_0
  10
3.65
  20
0.75
  0
SEQEND
  0
POLYLINE
  8
99_4_0
  70
0
  66
1
  0
VERTEX
  8
11_0
  10
3.65
  20
4.25
  0
VERTEX
  8
11_0
  10
4.25
  20
3.65
  0
SEQEND
  0
POLYLINE
  8
99_1_0
  70
0
  66
1
  0
VERTEX
  8
11_0
  10
0.75
  20
3.65
  0
VERTEX
  8
11_0
  10
1.35
  20
4.25
  0
SEQEND
  0
ENDBLK
  0
BLOCK
  2
LPD5030
  3
LPD5030
  10
0
  20
0
  70
0
  0
POLYLINE
  8
13_0
  70
1
  66
1
  0
VERTEX
  8
13_0
  10
0.8
  20
0
  0
VERTEX
  8
13_0
  10
0
  20
0.8
  0
VERTEX
  8
13_0
  10
0
  20
4.2
  0
VERTEX
  8
13_0
  10
0.8
  20
5
  0
VERTEX
  8
13_0
  10
4.2
  20
5
  0
VERTEX
  8
13_0
  10
5
  20
4.2
  0
VERTEX
  8
13_0
  10
5
  20
0.8
  0
VERTEX
  8
13_0
  10
4.2
  20
0
  0
VERTEX
  8
13_0
  10
0.8
  20
0
  0
SEQEND
  0
POLYLINE
  8
11_0
  70
1
  66
1
  0
VERTEX
  8
11_0
  10
0
  20
0.8
  0
VERTEX
  8
11_0
  10
0.8
  20
0
  0
VERTEX
  8
11_0
  10
1.75
  20
0
  0
VERTEX
  8
11_0
  10
1.75
  20
0.75
  0
VERTEX
  8
11_0
  10
1.35
  20
0.75
  0
VERTEX
  8
11_0
  10
0.75
  20
1.35
  0
VERTEX
  8
11_0
  10
0.75
  20
1.75
  0
VERTEX
  8
11_0
  10
0
  20
1.75
  0
VERTEX
  8
11_0
  10
0
  20
0.8
  0
SEQEND
  0
POLYLINE
  8
11_0
  70
1
  66
1
  0
VERTEX
  8
11_0
  10
4.2
  20
0
  0
VERTEX
  8
11_0
  10
5
  20
0.8
  0
VERTEX
  8
11_0
  10
5
  20
1.75
  0
VERTEX
  8
11_0
  10
4.25
  20
1.75
  0
VERTEX
  8
11_0
  10
4.25
  20
1.35
  0
VERTEX
  8
11_0
  10
3.65
  20
0.75
  0
VERTEX
  8
11_0
  10
3.25
  20
0.75
  0
VERTEX
  8
11_0
  10
3.25
  20
0
  0
VERTEX
  8
11_0
  10
4.2
  20
0
  0
SEQEND
  0
POLYLINE
  8
11_0
  70
1
  66
1
  0
VERTEX
  8
11_0
  10
5
  20
4.2
  0
VERTEX
  8
11_0
  10
4.2
  20
5
  0
VERTEX
  8
11_0
  10
3.25
  20
5
  0
VERTEX
  8
11_0
  10
3.25
  20
4.25
  0
VERTEX
  8
11_0
  10
3.65
  20
4.25
  0
VERTEX
  8
11_0
  10
4.25
  20
3.65
  0
VERTEX
  8
11_0
  10
4.25
  20
3.25
  0
VERTEX
  8
11_0
  10
5
  20
3.25
  0
VERTEX
  8
11_0
  10
5
  20
4.2
  0
SEQEND
  0
POLYLINE
  8
11_0
  70
1
  66
1
  0
VERTEX
  8
11_0
  10
0.8
  20
5
  0
VERTEX
  8
11_0
  10
0
  20
4.2
  0
VERTEX
  8
11_0
  10
0
  20
3.25
  0
VERTEX
  8
11_0
  10
0.75
  20
3.25
  0
VERTEX
  8
11_0
  10
0.75
  20
3.65
  0
VERTEX
  8
11_0
  10
1.35
  20
4.25
  0
VERTEX
  8
11_0
  10
1.75
  20
4.25
  0
VERTEX
  8
11_0
  10
1.75
  20
5
  0
VERTEX
  8
11_0
  10
0.8
  20
5
  0
SEQEND
  0
POLYLINE
  8
99_2_0
  70
0
  66
1
  0
VERTEX
  8
11_0
  10
1.35
  20
0.75
  0
VERTEX
  8
11_0
  10
0.75
  20
1.35
  0
SEQEND
  0
POLYLINE
  8
99_3_0
  70
0
  66
1
  0
VERTEX
  8
11_0
  10
4.25
  20
1.35
  0
VERTEX
  8
11_0
  10
3.65
  20
0.75
  0
SEQEND
  0
POLYLINE
  8
99_4_0
  70
0
  66
1
  0
VERTEX
  8
11_0
  10
3.65
  20
4.25
  0
VERTEX
  8
11_0
  10
4.25
  20
3.65
  0
SEQEND
  0
POLYLINE
  8
99_1_0
  70
0
  66
1
  0
VERTEX
  8
11_0
  10
0.75
  20
3.65
  0
VERTEX
  8
11_0
  10
1.35
  20
4.25
  0
SEQEND
  0
ENDBLK
  0
BLOCK
  2
LPD5030V
  3
LPD5030V
  10
0
  20
0
  70
0
  0
POLYLINE
  8
13_0
  70
1
  66
1
  0
VERTEX
  8
13_0
  10
0.8
  20
0
  0
VERTEX
  8
13_0
  10
0
  20
0.8
  0
VERTEX
  8
13_0
  10
0
  20
4.2
  0
VERTEX
  8
13_0
  10
0.8
  20
5
  0
VERTEX
  8
13_0
  10
4.2
  20
5
  0
VERTEX
  8
13_0
  10
5
  20
4.2
  0
VERTEX
  8
13_0
  10
5
  20
0.8
  0
VERTEX
  8
13_0
  10
4.2
  20
0
  0
VERTEX
  8
13_0
  10
0.8
  20
0
  0
SEQEND
  0
POLYLINE
  8
11_0
  70
1
  66
1
  0
VERTEX
  8
11_0
  10
0
  20
0.8
  0
VERTEX
  8
11_0
  10
0.8
  20
0
  0
VERTEX
  8
11_0
  10
1.75
  20
0
  0
VERTEX
  8
11_0
  10
1.75
  20
0.75
  0
VERTEX
  8
11_0
  10
1.35
  20
0.75
  0
VERTEX
  8
11_0
  10
0.75
  20
1.35
  0
VERTEX
  8
11_0
  10
0.75
  20
1.75
  0
VERTEX
  8
11_0
  10
0
  20
1.75
  0
VERTEX
  8
11_0
  10
0
  20
0.8
  0
SEQEND
  0
POLYLINE
  8
11_0
  70
1
  66
1
  0
VERTEX
  8
11_0
  10
4.2
  20
0
  0
VERTEX
  8
11_0
  10
5
  20
0.8
  0
VERTEX
  8
11_0
  10
5
  20
1.75
  0
VERTEX
  8
11_0
  10
4.25
  20
1.75
  0
VERTEX
  8
11_0
  10
4.25
  20
1.35
  0
VERTEX
  8
11_0
  10
3.65
  20
0.75
  0
VERTEX
  8
11_0
  10
3.25
  20
0.75
  0
VERTEX
  8
11_0
  10
3.25
  20
0
  0
VERTEX
  8
11_0
  10
4.2
  20
0
  0
SEQEND
  0
POLYLINE
  8
11_0
  70
1
  66
1
  0
VERTEX
  8
11_0
  10
5
  20
4.2
  0
VERTEX
  8
11_0
  10
4.2
  20
5
  0
VERTEX
  8
11_0
  10
3.25
  20
5
  0
VERTEX
  8
11_0
  10
3.25
  20
4.25
  0
VERTEX
  8
11_0
  10
3.65
  20
4.25
  0
VERTEX
  8
11_0
  10
4.25
  20
3.65
  0
VERTEX
  8
11_0
  10
4.25
  20
3.25
  0
VERTEX
  8
11_0
  10
5
  20
3.25
  0
VERTEX
  8
11_0
  10
5
  20
4.2
  0
SEQEND
  0
POLYLINE
  8
11_0
  70
1
  66
1
  0
VERTEX
  8
11_0
  10
0.8
  20
5
  0
VERTEX
  8
11_0
  10
0
  20
4.2
  0
VERTEX
  8
11_0
  10
0
  20
3.25
  0
VERTEX
  8
11_0
  10
0.75
  20
3.25
  0
VERTEX
  8
11_0
  10
0.75
  20
3.65
  0
VERTEX
  8
11_0
  10
1.35
  20
4.25
  0
VERTEX
  8
11_0
  10
1.75
  20
4.25
  0
VERTEX
  8
11_0
  10
1.75
  20
5
  0
VERTEX
  8
11_0
  10
0.8
  20
5
  0
SEQEND
  0
POLYLINE
  8
99_2_0
  70
0
  66
1
  0
VERTEX
  8
11_0
  10
1.35
  20
0.75
  0
VERTEX
  8
11_0
  10
0.75
  20
1.35
  0
SEQEND
  0
POLYLINE
  8
99_3_0
  70
0
  66
1
  0
VERTEX
  8
11_0
  10
4.25
  20
1.35
  0
VERTEX
  8
11_0
  10
3.65
  20
0.75
  0
SEQEND
  0
POLYLINE
  8
99_4_0
  70
0
  66
1
  0
VERTEX
  8
11_0
  10
3.65
  20
4.25
  0
VERTEX
  8
11_0
  10
4.25
  20
3.65
  0
SEQEND
  0
POLYLINE
  8
99_1_0
  70
0
  66
1
  0
VERTEX
  8
11_0
  10
0.75
  20
3.65
  0
VERTEX
  8
11_0
  10
1.35
  20
4.25
  0
SEQEND
  0
ENDBLK
  0
BLOCK
  2
LPD6235
  3
LPD6235
  10
0
  20
0
  70
0
  0
POLYLINE
  8
13_0
  70
1
  66
1
  0
VERTEX
  8
13_0
  10
1.175
  20
0
  0
VERTEX
  8
13_0
  10
0
  20
1.175
  0
VERTEX
  8
13_0
  10
0
  20
5.425
  0
VERTEX
  8
13_0
  10
1.175
  20
6.6
  0
VERTEX
  8
13_0
  10
5.425
  20
6.6
  0
VERTEX
  8
13_0
  10
6.6
  20
5.425
  0
VERTEX
  8
13_0
  10
6.6
  20
1.175
  0
VERTEX
  8
13_0
  10
5.425
  20
0
  0
VERTEX
  8
13_0
  10
1.175
  20
0
  0
SEQEND
  0
POLYLINE
  8
11_0
  70
1
  66
1
  0
VERTEX
  8
11_0
  10
6.6
  20
5.425
  0
VERTEX
  8
11_0
  10
5.425
  20
6.6
  0
VERTEX
  8
11_0
  10
4.3
  20
6.6
  0
VERTEX
  8
11_0
  10
4.3
  20
5.4
  0
VERTEX
  8
11_0
  10
5.4
  20
4.3
  0
VERTEX
  8
11_0
  10
6.6
  20
4.3
  0
VERTEX
  8
11_0
  10
6.6
  20
5.425
  0
SEQEND
  0
POLYLINE
  8
11_0
  70
1
  66
1
  0
VERTEX
  8
11_0
  10
5.425
  20
0
  0
VERTEX
  8
11_0
  10
6.6
  20
1.175
  0
VERTEX
  8
11_0
  10
6.6
  20
2.3
  0
VERTEX
  8
11_0
  10
5.4
  20
2.3
  0
VERTEX
  8
11_0
  10
4.3
  20
1.2
  0
VERTEX
  8
11_0
  10
4.3
  20
0
  0
VERTEX
  8
11_0
  10
5.425
  20
0
  0
SEQEND
  0
POLYLINE
  8
11_0
  70
1
  66
1
  0
VERTEX
  8
11_0
  10
0
  20
1.175
  0
VERTEX
  8
11_0
  10
1.175
  20
0
  0
VERTEX
  8
11_0
  10
2.3
  20
0
  0
VERTEX
  8
11_0
  10
2.3
  20
1.2
  0
VERTEX
  8
11_0
  10
1.2
  20
2.3
  0
VERTEX
  8
11_0
  10
0
  20
2.3
  0
VERTEX
  8
11_0
  10
0
  20
1.175
  0
SEQEND
  0
POLYLINE
  8
11_0
  70
1
  66
1
  0
VERTEX
  8
11_0
  10
1.175
  20
6.6
  0
VERTEX
  8
11_0
  10
0
  20
5.425
  0
VERTEX
  8
11_0
  10
0
  20
4.3
  0
VERTEX
  8
11_0
  10
1.2
  20
4.3
  0
VERTEX
  8
11_0
  10
2.3
  20
5.4
  0
VERTEX
  8
11_0
  10
2.3
  20
6.6
  0
VERTEX
  8
11_0
  10
1.175
  20
6.6
  0
SEQEND
  0
POLYLINE
  8
99_2_0
  70
0
  66
1
  0
VERTEX
  8
11_0
  10
2.3
  20
1.2
  0
VERTEX
  8
11_0
  10
1.2
  20
2.3
  0
SEQEND
  0
POLYLINE
  8
99_3_0
  70
0
  66
1
  0
VERTEX
  8
11_0
  10
5.4
  20
2.3
  0
VERTEX
  8
11_0
  10
4.3
  20
1.2
  0
SEQEND
  0
POLYLINE
  8
99_4_0
  70
0
  66
1
  0
VERTEX
  8
11_0
  10
4.3
  20
5.4
  0
VERTEX
  8
11_0
  10
5.4
  20
4.3
  0
SEQEND
  0
POLYLINE
  8
99_1_0
  70
0
  66
1
  0
VERTEX
  8
11_0
  10
1.2
  20
4.3
  0
VERTEX
  8
11_0
  10
2.3
  20
5.4
  0
SEQEND
  0
ENDBLK
  0
BLOCK
  2
LPR4012
  3
LPR4012
  10
0
  20
0
  70
0
  0
POLYLINE
  8
13_0
  70
1
  66
1
  0
VERTEX
  8
13_0
  10
0.897
  20
0
  0
VERTEX
  8
13_0
  10
0
  20
0.897
  0
VERTEX
  8
13_0
  10
0
  20
3.503
  0
VERTEX
  8
13_0
  10
0.897
  20
4.4
  0
VERTEX
  8
13_0
  10
3.503
  20
4.4
  0
VERTEX
  8
13_0
  10
4.4
  20
3.503
  0
VERTEX
  8
13_0
  10
4.4
  20
0.897
  0
VERTEX
  8
13_0
  10
3.503
  20
0
  0
VERTEX
  8
13_0
  10
0.897
  20
0
  0
SEQEND
  0
POLYLINE
  8
11_0
  70
1
  66
1
  0
VERTEX
  8
11_0
  10
3.503
  20
0
  0
VERTEX
  8
11_0
  10
4.4
  20
0.897
  0
VERTEX
  8
11_0
  10
4.4
  20
1.58
  0
VERTEX
  8
11_0
  10
3.62
  20
1.58
  0
VERTEX
  8
11_0
  10
2.82
  20
0.78
  0
VERTEX
  8
11_0
  10
2.82
  20
0
  0
VERTEX
  8
11_0
  10
3.503
  20
0
  0
SEQEND
  0
POLYLINE
  8
11_0
  70
1
  66
1
  0
VERTEX
  8
11_0
  10
0.897
  20
4.4
  0
VERTEX
  8
11_0
  10
0
  20
3.503
  0
VERTEX
  8
11_0
  10
0
  20
2.82
  0
VERTEX
  8
11_0
  10
0.78
  20
2.82
  0
VERTEX
  8
11_0
  10
1.58
  20
3.62
  0
VERTEX
  8
11_0
  10
1.58
  20
4.4
  0
VERTEX
  8
11_0
  10
0.897
  20
4.4
  0
SEQEND
  0
POLYLINE
  8
11_0
  70
1
  66
1
  0
VERTEX
  8
11_0
  10
0
  20
0.897
  0
VERTEX
  8
11_0
  10
0.897
  20
0
  0
VERTEX
  8
11_0
  10
1.58
  20
0
  0
VERTEX
  8
11_0
  10
1.58
  20
0.78
  0
VERTEX
  8
11_0
  10
0.78
  20
1.58
  0
VERTEX
  8
11_0
  10
0
  20
1.58
  0
VERTEX
  8
11_0
  10
0
  20
0.897
  0
SEQEND
  0
POLYLINE
  8
11_0
  70
1
  66
1
  0
VERTEX
  8
11_0
  10
4.4
  20
3.503
  0
VERTEX
  8
11_0
  10
3.503
  20
4.4
  0
VERTEX
  8
11_0
  10
2.82
  20
4.4
  0
VERTEX
  8
11_0
  10
2.82
  20
3.62
  0
VERTEX
  8
11_0
  10
3.62
  20
2.82
  0
VERTEX
  8
11_0
  10
4.4
  20
2.82
  0
VERTEX
  8
11_0
  10
4.4
  20
3.503
  0
SEQEND
  0
POLYLINE
  8
99_1_0
  70
0
  66
1
  0
VERTEX
  8
11_0
  10
0.78
  20
2.82
  0
VERTEX
  8
11_0
  10
1.58
  20
3.62
  0
SEQEND
  0
POLYLINE
  8
99_2_0
  70
0
  66
1
  0
VERTEX
  8
11_0
  10
1.58
  20
0.78
  0
VERTEX
  8
11_0
  10
0.78
  20
1.58
  0
SEQEND
  0
POLYLINE
  8
99_3_0
  70
0
  66
1
  0
VERTEX
  8
11_0
  10
3.62
  20
1.58
  0
VERTEX
  8
11_0
  10
2.82
  20
0.78
  0
SEQEND
  0
POLYLINE
  8
99_4_0
  70
0
  66
1
  0
VERTEX
  8
11_0
  10
2.82
  20
3.62
  0
VERTEX
  8
11_0
  10
3.62
  20
2.82
  0
SEQEND
  0
ENDBLK
  0
BLOCK
  2
LPR6235
  3
LPR6235
  10
0
  20
0
  70
0
  0
POLYLINE
  8
13_0
  70
1
  66
1
  0
VERTEX
  8
13_0
  10
1.175
  20
0
  0
VERTEX
  8
13_0
  10
0
  20
1.175
  0
VERTEX
  8
13_0
  10
0
  20
5.425
  0
VERTEX
  8
13_0
  10
1.175
  20
6.6
  0
VERTEX
  8
13_0
  10
5.425
  20
6.6
  0
VERTEX
  8
13_0
  10
6.6
  20
5.425
  0
VERTEX
  8
13_0
  10
6.6
  20
1.175
  0
VERTEX
  8
13_0
  10
5.425
  20
0
  0
VERTEX
  8
13_0
  10
1.175
  20
0
  0
SEQEND
  0
POLYLINE
  8
11_0
  70
1
  66
1
  0
VERTEX
  8
11_0
  10
6.6
  20
5.425
  0
VERTEX
  8
11_0
  10
5.425
  20
6.6
  0
VERTEX
  8
11_0
  10
4.3
  20
6.6
  0
VERTEX
  8
11_0
  10
4.3
  20
5.4
  0
VERTEX
  8
11_0
  10
5.4
  20
4.3
  0
VERTEX
  8
11_0
  10
6.6
  20
4.3
  0
VERTEX
  8
11_0
  10
6.6
  20
5.425
  0
SEQEND
  0
POLYLINE
  8
11_0
  70
1
  66
1
  0
VERTEX
  8
11_0
  10
5.425
  20
0
  0
VERTEX
  8
11_0
  10
6.6
  20
1.175
  0
VERTEX
  8
11_0
  10
6.6
  20
2.3
  0
VERTEX
  8
11_0
  10
5.4
  20
2.3
  0
VERTEX
  8
11_0
  10
4.3
  20
1.2
  0
VERTEX
  8
11_0
  10
4.3
  20
0
  0
VERTEX
  8
11_0
  10
5.425
  20
0
  0
SEQEND
  0
POLYLINE
  8
11_0
  70
1
  66
1
  0
VERTEX
  8
11_0
  10
0
  20
1.175
  0
VERTEX
  8
11_0
  10
1.175
  20
0
  0
VERTEX
  8
11_0
  10
2.3
  20
0
  0
VERTEX
  8
11_0
  10
2.3
  20
1.2
  0
VERTEX
  8
11_0
  10
1.2
  20
2.3
  0
VERTEX
  8
11_0
  10
0
  20
2.3
  0
VERTEX
  8
11_0
  10
0
  20
1.175
  0
SEQEND
  0
POLYLINE
  8
11_0
  70
1
  66
1
  0
VERTEX
  8
11_0
  10
1.175
  20
6.6
  0
VERTEX
  8
11_0
  10
0
  20
5.425
  0
VERTEX
  8
11_0
  10
0
  20
4.3
  0
VERTEX
  8
11_0
  10
1.2
  20
4.3
  0
VERTEX
  8
11_0
  10
2.3
  20
5.4
  0
VERTEX
  8
11_0
  10
2.3
  20
6.6
  0
VERTEX
  8
11_0
  10
1.175
  20
6.6
  0
SEQEND
  0
POLYLINE
  8
99_2_0
  70
0
  66
1
  0
VERTEX
  8
11_0
  10
2.3
  20
1.2
  0
VERTEX
  8
11_0
  10
1.2
  20
2.3
  0
SEQEND
  0
POLYLINE
  8
99_3_0
  70
0
  66
1
  0
VERTEX
  8
11_0
  10
5.4
  20
2.3
  0
VERTEX
  8
11_0
  10
4.3
  20
1.2
  0
SEQEND
  0
POLYLINE
  8
99_4_0
  70
0
  66
1
  0
VERTEX
  8
11_0
  10
4.3
  20
5.4
  0
VERTEX
  8
11_0
  10
5.4
  20
4.3
  0
SEQEND
  0
POLYLINE
  8
99_1_0
  70
0
  66
1
  0
VERTEX
  8
11_0
  10
1.2
  20
4.3
  0
VERTEX
  8
11_0
  10
2.3
  20
5.4
  0
SEQEND
  0
ENDBLK
  0
BLOCK
  2
MSC1278
  3
MSC1278
  10
0
  20
0
  70
0
  0
POLYLINE
  8
13_0
  70
1
  66
1
  0
VERTEX
  8
13_0
  10
0
  20
12
  0
VERTEX
  8
13_0
  10
0
  20
0
  0
VERTEX
  8
13_0
  10
12
  20
0
  0
VERTEX
  8
13_0
  10
12
  20
12
  0
VERTEX
  8
13_0
  10
0
  20
12
  0
SEQEND
  0
POLYLINE
  8
11_0
  70
1
  66
1
  0
VERTEX
  8
11_0
  10
3.5
  20
3.5
  0
VERTEX
  8
11_0
  10
3.5
  20
0
  0
VERTEX
  8
11_0
  10
5
  20
0
  0
VERTEX
  8
11_0
  10
5
  20
3.5
  0
VERTEX
  8
11_0
  10
3.5
  20
3.5
  0
SEQEND
  0
POLYLINE
  8
11_0
  70
1
  66
1
  0
VERTEX
  8
11_0
  10
7
  20
3.5
  0
VERTEX
  8
11_0
  10
7
  20
0
  0
VERTEX
  8
11_0
  10
8.5
  20
0
  0
VERTEX
  8
11_0
  10
8.5
  20
3.5
  0
VERTEX
  8
11_0
  10
7
  20
3.5
  0
SEQEND
  0
POLYLINE
  8
11_0
  70
1
  66
1
  0
VERTEX
  8
11_0
  10
3.5
  20
12
  0
VERTEX
  8
11_0
  10
3.5
  20
8.5
  0
VERTEX
  8
11_0
  10
5
  20
8.5
  0
VERTEX
  8
11_0
  10
5
  20
12
  0
VERTEX
  8
11_0
  10
3.5
  20
12
  0
SEQEND
  0
POLYLINE
  8
11_0
  70
1
  66
1
  0
VERTEX
  8
11_0
  10
7
  20
12
  0
VERTEX
  8
11_0
  10
7
  20
8.5
  0
VERTEX
  8
11_0
  10
8.5
  20
8.5
  0
VERTEX
  8
11_0
  10
8.5
  20
12
  0
VERTEX
  8
11_0
  10
7
  20
12
  0
SEQEND
  0
POLYLINE
  8
99_1_0
  70
0
  66
1
  0
VERTEX
  8
11_0
  10
7
  20
8.5
  0
VERTEX
  8
11_0
  10
8.5
  20
8.5
  0
SEQEND
  0
POLYLINE
  8
99_2_0
  70
0
  66
1
  0
VERTEX
  8
11_0
  10
3.5
  20
8.5
  0
VERTEX
  8
11_0
  10
5
  20
8.5
  0
SEQEND
  0
POLYLINE
  8
99_3_0
  70
0
  66
1
  0
VERTEX
  8
11_0
  10
5
  20
3.5
  0
VERTEX
  8
11_0
  10
3.5
  20
3.5
  0
SEQEND
  0
POLYLINE
  8
99_4_0
  70
0
  66
1
  0
VERTEX
  8
11_0
  10
8.5
  20
3.5
  0
VERTEX
  8
11_0
  10
7
  20
3.5
  0
SEQEND
  0
ENDBLK
  0
BLOCK
  2
MSD1260
  3
MSD1260
  10
0
  20
0
  70
0
  0
POLYLINE
  8
13_0
  70
1
  66
1
  0
VERTEX
  8
13_0
  10
0
  20
12
  0
VERTEX
  8
13_0
  10
0
  20
0
  0
VERTEX
  8
13_0
  10
12
  20
0
  0
VERTEX
  8
13_0
  10
12
  20
12
  0
VERTEX
  8
13_0
  10
0
  20
12
  0
SEQEND
  0
POLYLINE
  8
11_0
  70
1
  66
1
  0
VERTEX
  8
11_0
  10
3.5
  20
3.5
  0
VERTEX
  8
11_0
  10
3.5
  20
0
  0
VERTEX
  8
11_0
  10
5
  20
0
  0
VERTEX
  8
11_0
  10
5
  20
3.5
  0
VERTEX
  8
11_0
  10
3.5
  20
3.5
  0
SEQEND
  0
POLYLINE
  8
11_0
  70
1
  66
1
  0
VERTEX
  8
11_0
  10
7
  20
3.5
  0
VERTEX
  8
11_0
  10
7
  20
0
  0
VERTEX
  8
11_0
  10
8.5
  20
0
  0
VERTEX
  8
11_0
  10
8.5
  20
3.5
  0
VERTEX
  8
11_0
  10
7
  20
3.5
  0
SEQEND
  0
POLYLINE
  8
11_0
  70
1
  66
1
  0
VERTEX
  8
11_0
  10
3.5
  20
12
  0
VERTEX
  8
11_0
  10
3.5
  20
8.5
  0
VERTEX
  8
11_0
  10
5
  20
8.5
  0
VERTEX
  8
11_0
  10
5
  20
12
  0
VERTEX
  8
11_0
  10
3.5
  20
12
  0
SEQEND
  0
POLYLINE
  8
11_0
  70
1
  66
1
  0
VERTEX
  8
11_0
  10
7
  20
12
  0
VERTEX
  8
11_0
  10
7
  20
8.5
  0
VERTEX
  8
11_0
  10
8.5
  20
8.5
  0
VERTEX
  8
11_0
  10
8.5
  20
12
  0
VERTEX
  8
11_0
  10
7
  20
12
  0
SEQEND
  0
POLYLINE
  8
99_1_0
  70
0
  66
1
  0
VERTEX
  8
11_0
  10
7
  20
8.5
  0
VERTEX
  8
11_0
  10
8.5
  20
8.5
  0
SEQEND
  0
POLYLINE
  8
99_2_0
  70
0
  66
1
  0
VERTEX
  8
11_0
  10
3.5
  20
8.5
  0
VERTEX
  8
11_0
  10
5
  20
8.5
  0
SEQEND
  0
POLYLINE
  8
99_3_0
  70
0
  66
1
  0
VERTEX
  8
11_0
  10
5
  20
3.5
  0
VERTEX
  8
11_0
  10
3.5
  20
3.5
  0
SEQEND
  0
POLYLINE
  8
99_4_0
  70
0
  66
1
  0
VERTEX
  8
11_0
  10
8.5
  20
3.5
  0
VERTEX
  8
11_0
  10
7
  20
3.5
  0
SEQEND
  0
ENDBLK
  0
BLOCK
  2
MSD1260T
  3
MSD1260T
  10
0
  20
0
  70
0
  0
POLYLINE
  8
13_0
  70
1
  66
1
  0
VERTEX
  8
13_0
  10
0
  20
12
  0
VERTEX
  8
13_0
  10
0
  20
0
  0
VERTEX
  8
13_0
  10
12
  20
0
  0
VERTEX
  8
13_0
  10
12
  20
12
  0
VERTEX
  8
13_0
  10
0
  20
12
  0
SEQEND
  0
POLYLINE
  8
11_0
  70
1
  66
1
  0
VERTEX
  8
11_0
  10
3.5
  20
3.5
  0
VERTEX
  8
11_0
  10
3.5
  20
0
  0
VERTEX
  8
11_0
  10
5
  20
0
  0
VERTEX
  8
11_0
  10
5
  20
3.5
  0
VERTEX
  8
11_0
  10
3.5
  20
3.5
  0
SEQEND
  0
POLYLINE
  8
11_0
  70
1
  66
1
  0
VERTEX
  8
11_0
  10
7
  20
3.5
  0
VERTEX
  8
11_0
  10
7
  20
0
  0
VERTEX
  8
11_0
  10
8.5
  20
0
  0
VERTEX
  8
11_0
  10
8.5
  20
3.5
  0
VERTEX
  8
11_0
  10
7
  20
3.5
  0
SEQEND
  0
POLYLINE
  8
11_0
  70
1
  66
1
  0
VERTEX
  8
11_0
  10
3.5
  20
12
  0
VERTEX
  8
11_0
  10
3.5
  20
8.5
  0
VERTEX
  8
11_0
  10
5
  20
8.5
  0
VERTEX
  8
11_0
  10
5
  20
12
  0
VERTEX
  8
11_0
  10
3.5
  20
12
  0
SEQEND
  0
POLYLINE
  8
11_0
  70
1
  66
1
  0
VERTEX
  8
11_0
  10
7
  20
12
  0
VERTEX
  8
11_0
  10
7
  20
8.5
  0
VERTEX
  8
11_0
  10
8.5
  20
8.5
  0
VERTEX
  8
11_0
  10
8.5
  20
12
  0
VERTEX
  8
11_0
  10
7
  20
12
  0
SEQEND
  0
POLYLINE
  8
99_1_0
  70
0
  66
1
  0
VERTEX
  8
11_0
  10
7
  20
8.5
  0
VERTEX
  8
11_0
  10
8.5
  20
8.5
  0
SEQEND
  0
POLYLINE
  8
99_2_0
  70
0
  66
1
  0
VERTEX
  8
11_0
  10
3.5
  20
8.5
  0
VERTEX
  8
11_0
  10
5
  20
8.5
  0
SEQEND
  0
POLYLINE
  8
99_3_0
  70
0
  66
1
  0
VERTEX
  8
11_0
  10
5
  20
3.5
  0
VERTEX
  8
11_0
  10
3.5
  20
3.5
  0
SEQEND
  0
POLYLINE
  8
99_4_0
  70
0
  66
1
  0
VERTEX
  8
11_0
  10
8.5
  20
3.5
  0
VERTEX
  8
11_0
  10
7
  20
3.5
  0
SEQEND
  0
ENDBLK
  0
BLOCK
  2
MSD1278
  3
MSD1278
  10
0
  20
0
  70
0
  0
POLYLINE
  8
13_0
  70
1
  66
1
  0
VERTEX
  8
13_0
  10
0
  20
12
  0
VERTEX
  8
13_0
  10
0
  20
0
  0
VERTEX
  8
13_0
  10
12
  20
0
  0
VERTEX
  8
13_0
  10
12
  20
12
  0
VERTEX
  8
13_0
  10
0
  20
12
  0
SEQEND
  0
POLYLINE
  8
11_0
  70
1
  66
1
  0
VERTEX
  8
11_0
  10
3.5
  20
3.5
  0
VERTEX
  8
11_0
  10
3.5
  20
0
  0
VERTEX
  8
11_0
  10
5
  20
0
  0
VERTEX
  8
11_0
  10
5
  20
3.5
  0
VERTEX
  8
11_0
  10
3.5
  20
3.5
  0
SEQEND
  0
POLYLINE
  8
11_0
  70
1
  66
1
  0
VERTEX
  8
11_0
  10
7
  20
3.5
  0
VERTEX
  8
11_0
  10
7
  20
0
  0
VERTEX
  8
11_0
  10
8.5
  20
0
  0
VERTEX
  8
11_0
  10
8.5
  20
3.5
  0
VERTEX
  8
11_0
  10
7
  20
3.5
  0
SEQEND
  0
POLYLINE
  8
11_0
  70
1
  66
1
  0
VERTEX
  8
11_0
  10
3.5
  20
12
  0
VERTEX
  8
11_0
  10
3.5
  20
8.5
  0
VERTEX
  8
11_0
  10
5
  20
8.5
  0
VERTEX
  8
11_0
  10
5
  20
12
  0
VERTEX
  8
11_0
  10
3.5
  20
12
  0
SEQEND
  0
POLYLINE
  8
11_0
  70
1
  66
1
  0
VERTEX
  8
11_0
  10
7
  20
12
  0
VERTEX
  8
11_0
  10
7
  20
8.5
  0
VERTEX
  8
11_0
  10
8.5
  20
8.5
  0
VERTEX
  8
11_0
  10
8.5
  20
12
  0
VERTEX
  8
11_0
  10
7
  20
12
  0
SEQEND
  0
POLYLINE
  8
99_1_0
  70
0
  66
1
  0
VERTEX
  8
11_0
  10
7
  20
8.5
  0
VERTEX
  8
11_0
  10
8.5
  20
8.5
  0
SEQEND
  0
POLYLINE
  8
99_2_0
  70
0
  66
1
  0
VERTEX
  8
11_0
  10
3.5
  20
8.5
  0
VERTEX
  8
11_0
  10
5
  20
8.5
  0
SEQEND
  0
POLYLINE
  8
99_3_0
  70
0
  66
1
  0
VERTEX
  8
11_0
  10
5
  20
3.5
  0
VERTEX
  8
11_0
  10
3.5
  20
3.5
  0
SEQEND
  0
POLYLINE
  8
99_4_0
  70
0
  66
1
  0
VERTEX
  8
11_0
  10
8.5
  20
3.5
  0
VERTEX
  8
11_0
  10
7
  20
3.5
  0
SEQEND
  0
ENDBLK
  0
BLOCK
  2
MSD1278T
  3
MSD1278T
  10
0
  20
0
  70
0
  0
POLYLINE
  8
13_0
  70
1
  66
1
  0
VERTEX
  8
13_0
  10
0
  20
12
  0
VERTEX
  8
13_0
  10
0
  20
0
  0
VERTEX
  8
13_0
  10
12
  20
0
  0
VERTEX
  8
13_0
  10
12
  20
12
  0
VERTEX
  8
13_0
  10
0
  20
12
  0
SEQEND
  0
POLYLINE
  8
11_0
  70
1
  66
1
  0
VERTEX
  8
11_0
  10
3.5
  20
3.5
  0
VERTEX
  8
11_0
  10
3.5
  20
0
  0
VERTEX
  8
11_0
  10
5
  20
0
  0
VERTEX
  8
11_0
  10
5
  20
3.5
  0
VERTEX
  8
11_0
  10
3.5
  20
3.5
  0
SEQEND
  0
POLYLINE
  8
11_0
  70
1
  66
1
  0
VERTEX
  8
11_0
  10
7
  20
3.5
  0
VERTEX
  8
11_0
  10
7
  20
0
  0
VERTEX
  8
11_0
  10
8.5
  20
0
  0
VERTEX
  8
11_0
  10
8.5
  20
3.5
  0
VERTEX
  8
11_0
  10
7
  20
3.5
  0
SEQEND
  0
POLYLINE
  8
11_0
  70
1
  66
1
  0
VERTEX
  8
11_0
  10
3.5
  20
12
  0
VERTEX
  8
11_0
  10
3.5
  20
8.5
  0
VERTEX
  8
11_0
  10
5
  20
8.5
  0
VERTEX
  8
11_0
  10
5
  20
12
  0
VERTEX
  8
11_0
  10
3.5
  20
12
  0
SEQEND
  0
POLYLINE
  8
11_0
  70
1
  66
1
  0
VERTEX
  8
11_0
  10
7
  20
12
  0
VERTEX
  8
11_0
  10
7
  20
8.5
  0
VERTEX
  8
11_0
  10
8.5
  20
8.5
  0
VERTEX
  8
11_0
  10
8.5
  20
12
  0
VERTEX
  8
11_0
  10
7
  20
12
  0
SEQEND
  0
POLYLINE
  8
99_1_0
  70
0
  66
1
  0
VERTEX
  8
11_0
  10
7
  20
8.5
  0
VERTEX
  8
11_0
  10
8.5
  20
8.5
  0
SEQEND
  0
POLYLINE
  8
99_2_0
  70
0
  66
1
  0
VERTEX
  8
11_0
  10
3.5
  20
8.5
  0
VERTEX
  8
11_0
  10
5
  20
8.5
  0
SEQEND
  0
POLYLINE
  8
99_3_0
  70
0
  66
1
  0
VERTEX
  8
11_0
  10
5
  20
3.5
  0
VERTEX
  8
11_0
  10
3.5
  20
3.5
  0
SEQEND
  0
POLYLINE
  8
99_4_0
  70
0
  66
1
  0
VERTEX
  8
11_0
  10
8.5
  20
3.5
  0
VERTEX
  8
11_0
  10
7
  20
3.5
  0
SEQEND
  0
ENDBLK
  0
BLOCK
  2
MSD7342
  3
MSD7342
  10
0
  20
0
  70
0
  0
POLYLINE
  8
13_0
  70
1
  66
1
  0
VERTEX
  8
13_0
  10
0
  20
7
  0
VERTEX
  8
13_0
  10
0
  20
0
  0
VERTEX
  8
13_0
  10
7
  20
0
  0
VERTEX
  8
13_0
  10
7
  20
7
  0
VERTEX
  8
13_0
  10
0
  20
7
  0
SEQEND
  0
POLYLINE
  8
11_0
  70
1
  66
1
  0
VERTEX
  8
11_0
  10
2.35
  20
1.6
  0
VERTEX
  8
11_0
  10
2.35
  20
0
  0
VERTEX
  8
11_0
  10
3.05
  20
0
  0
VERTEX
  8
11_0
  10
3.05
  20
1.6
  0
VERTEX
  8
11_0
  10
2.35
  20
1.6
  0
SEQEND
  0
POLYLINE
  8
11_0
  70
1
  66
1
  0
VERTEX
  8
11_0
  10
3.95
  20
1.6
  0
VERTEX
  8
11_0
  10
3.95
  20
0
  0
VERTEX
  8
11_0
  10
4.65
  20
0
  0
VERTEX
  8
11_0
  10
4.65
  20
1.6
  0
VERTEX
  8
11_0
  10
3.95
  20
1.6
  0
SEQEND
  0
POLYLINE
  8
11_0
  70
1
  66
1
  0
VERTEX
  8
11_0
  10
2.35
  20
7
  0
VERTEX
  8
11_0
  10
2.35
  20
5.4
  0
VERTEX
  8
11_0
  10
3.05
  20
5.4
  0
VERTEX
  8
11_0
  10
3.05
  20
7
  0
VERTEX
  8
11_0
  10
2.35
  20
7
  0
SEQEND
  0
POLYLINE
  8
11_0
  70
1
  66
1
  0
VERTEX
  8
11_0
  10
3.95
  20
7
  0
VERTEX
  8
11_0
  10
3.95
  20
5.4
  0
VERTEX
  8
11_0
  10
4.65
  20
5.4
  0
VERTEX
  8
11_0
  10
4.65
  20
7
  0
VERTEX
  8
11_0
  10
3.95
  20
7
  0
SEQEND
  0
POLYLINE
  8
99_1_0
  70
0
  66
1
  0
VERTEX
  8
11_0
  10
3.95
  20
5.4
  0
VERTEX
  8
11_0
  10
4.65
  20
5.4
  0
SEQEND
  0
POLYLINE
  8
99_2_0
  70
0
  66
1
  0
VERTEX
  8
11_0
  10
2.35
  20
5.4
  0
VERTEX
  8
11_0
  10
3.05
  20
5.4
  0
SEQEND
  0
POLYLINE
  8
99_3_0
  70
0
  66
1
  0
VERTEX
  8
11_0
  10
3.05
  20
1.6
  0
VERTEX
  8
11_0
  10
2.35
  20
1.6
  0
SEQEND
  0
POLYLINE
  8
99_4_0
  70
0
  66
1
  0
VERTEX
  8
11_0
  10
4.65
  20
1.6
  0
VERTEX
  8
11_0
  10
3.95
  20
1.6
  0
SEQEND
  0
ENDBLK
  0
BLOCK
  2
MaxiSeries
  3
MaxiSeries
  10
0
  20
0
  70
0
  0
POLYLINE
  8
13_0
  70
1
  66
1
  0
VERTEX
  8
13_0
  10
-1
  20
6.67
  0
VERTEX
  8
13_0
  10
-1
  20
0.92
  0
VERTEX
  8
13_0
  10
9.55
  20
0.92
  0
VERTEX
  8
13_0
  10
9.55
  20
6.67
  0
VERTEX
  8
13_0
  10
-1
  20
6.67
  0
SEQEND
  0
POLYLINE
  8
11_0
  70
1
  66
1
  0
VERTEX
  8
11_0
  10
-0.05
  20
7.06
  0
VERTEX
  8
11_0
  10
-0.05
  20
6.67
  0
VERTEX
  8
11_0
  10
0.25
  20
6.67
  0
VERTEX
  8
11_0
  10
0.25
  20
7.06
  0
VERTEX
  8
11_0
  10
-0.05
  20
7.06
  0
SEQEND
  0
POLYLINE
  8
11_0
  70
1
  66
1
  0
VERTEX
  8
11_0
  10
8.3
  20
0.92
  0
VERTEX
  8
11_0
  10
8.3
  20
0.53
  0
VERTEX
  8
11_0
  10
8.6
  20
0.53
  0
VERTEX
  8
11_0
  10
8.6
  20
0.92
  0
VERTEX
  8
11_0
  10
8.3
  20
0.92
  0
SEQEND
  0
POLYLINE
  8
99_2_0
  70
0
  66
1
  0
VERTEX
  8
13_0
  10
8.6
  20
0.92
  0
VERTEX
  8
13_0
  10
8.3
  20
0.92
  0
SEQEND
  0
POLYLINE
  8
99_1_0
  70
0
  66
1
  0
VERTEX
  8
13_0
  10
-0.05
  20
6.67
  0
VERTEX
  8
13_0
  10
0.25
  20
6.67
  0
SEQEND
  0
ENDBLK
  0
BLOCK
  2
MicroSeries_0906
  3
MicroSeries_0906
  10
0
  20
0
  70
0
  0
POLYLINE
  8
13_0
  70
1
  66
1
  0
VERTEX
  8
13_0
  10
-0.04
  20
1.66
  0
VERTEX
  8
13_0
  10
-0.04
  20
0.26
  0
VERTEX
  8
13_0
  10
2.37
  20
0.26
  0
VERTEX
  8
13_0
  10
2.37
  20
1.66
  0
VERTEX
  8
13_0
  10
-0.04
  20
1.66
  0
SEQEND
  0
POLYLINE
  8
11_0
  70
1
  66
1
  0
VERTEX
  8
11_0
  10
1.86
  20
0.26
  0
VERTEX
  8
11_0
  10
1.86
  20
-0.64
  0
VERTEX
  8
11_0
  10
2.37
  20
-0.64
  0
VERTEX
  8
11_0
  10
2.37
  20
0.26
  0
VERTEX
  8
11_0
  10
1.86
  20
0.26
  0
SEQEND
  0
POLYLINE
  8
11_0
  70
1
  66
1
  0
VERTEX
  8
11_0
  10
-0.04
  20
2.56
  0
VERTEX
  8
11_0
  10
-0.04
  20
1.66
  0
VERTEX
  8
11_0
  10
0.47
  20
1.66
  0
VERTEX
  8
11_0
  10
0.47
  20
2.56
  0
VERTEX
  8
11_0
  10
-0.04
  20
2.56
  0
SEQEND
  0
POLYLINE
  8
99_2_0
  70
0
  66
1
  0
VERTEX
  8
11_0
  10
2.37
  20
0.26
  0
VERTEX
  8
11_0
  10
1.86
  20
0.26
  0
SEQEND
  0
POLYLINE
  8
99_1_0
  70
0
  66
1
  0
VERTEX
  8
11_0
  10
-0.04
  20
1.66
  0
VERTEX
  8
11_0
  10
0.47
  20
1.66
  0
SEQEND
  0
ENDBLK
  0
BLOCK
  2
MicroSeries_1606
  3
MicroSeries_1606
  10
0
  20
0
  70
0
  0
POLYLINE
  8
13_0
  70
1
  66
1
  0
VERTEX
  8
13_0
  10
-0.04
  20
1.66
  0
VERTEX
  8
13_0
  10
-0.04
  20
0.26
  0
VERTEX
  8
13_0
  10
4.19
  20
0.26
  0
VERTEX
  8
13_0
  10
4.19
  20
1.66
  0
VERTEX
  8
13_0
  10
-0.04
  20
1.66
  0
SEQEND
  0
POLYLINE
  8
11_0
  70
1
  66
1
  0
VERTEX
  8
11_0
  10
3.68
  20
0.26
  0
VERTEX
  8
11_0
  10
3.68
  20
-0.64
  0
VERTEX
  8
11_0
  10
4.19
  20
-0.64
  0
VERTEX
  8
11_0
  10
4.19
  20
0.26
  0
VERTEX
  8
11_0
  10
3.68
  20
0.26
  0
SEQEND
  0
POLYLINE
  8
11_0
  70
1
  66
1
  0
VERTEX
  8
11_0
  10
-0.04
  20
2.56
  0
VERTEX
  8
11_0
  10
-0.04
  20
1.66
  0
VERTEX
  8
11_0
  10
0.47
  20
1.66
  0
VERTEX
  8
11_0
  10
0.47
  20
2.56
  0
VERTEX
  8
11_0
  10
-0.04
  20
2.56
  0
SEQEND
  0
POLYLINE
  8
99_1_0
  70
0
  66
1
  0
VERTEX
  8
11_0
  10
-0.04
  20
1.66
  0
VERTEX
  8
11_0
  10
0.47
  20
1.66
  0
SEQEND
  0
POLYLINE
  8
99_2_0
  70
0
  66
1
  0
VERTEX
  8
11_0
  10
4.19
  20
0.26
  0
VERTEX
  8
11_0
  10
3.68
  20
0.26
  0
SEQEND
  0
ENDBLK
  0
BLOCK
  2
MidiSeries
  3
MidiSeries
  10
0
  20
0
  70
0
  0
POLYLINE
  8
13_0
  70
1
  66
1
  0
VERTEX
  8
13_0
  10
-0.2
  20
3.84
  0
VERTEX
  8
13_0
  10
-0.2
  20
0.29
  0
VERTEX
  8
13_0
  10
4.75
  20
0.29
  0
VERTEX
  8
13_0
  10
4.75
  20
3.84
  0
VERTEX
  8
13_0
  10
-0.2
  20
3.84
  0
SEQEND
  0
POLYLINE
  8
11_0
  70
1
  66
1
  0
VERTEX
  8
11_0
  10
-0.2
  20
5.135
  0
VERTEX
  8
11_0
  10
-0.2
  20
3.84
  0
VERTEX
  8
11_0
  10
0.56
  20
3.84
  0
VERTEX
  8
11_0
  10
0.56
  20
5.135
  0
VERTEX
  8
11_0
  10
-0.2
  20
5.135
  0
SEQEND
  0
POLYLINE
  8
11_0
  70
1
  66
1
  0
VERTEX
  8
11_0
  10
4.01
  20
0.29
  0
VERTEX
  8
11_0
  10
4.01
  20
-0.98
  0
VERTEX
  8
11_0
  10
4.75
  20
-0.98
  0
VERTEX
  8
11_0
  10
4.75
  20
0.29
  0
VERTEX
  8
11_0
  10
4.01
  20
0.29
  0
SEQEND
  0
POLYLINE
  8
99_2_0
  70
0
  66
1
  0
VERTEX
  8
13_0
  10
4.75
  20
0.29
  0
VERTEX
  8
13_0
  10
4.01
  20
0.29
  0
SEQEND
  0
POLYLINE
  8
99_1_0
  70
0
  66
1
  0
VERTEX
  8
13_0
  10
-0.2
  20
3.84
  0
VERTEX
  8
13_0
  10
0.56
  20
3.84
  0
SEQEND
  0
ENDBLK
  0
BLOCK
  2
MiniASeries
  3
MiniASeries
  10
0
  20
0
  70
0
  0
POLYLINE
  8
13_0
  70
1
  66
1
  0
VERTEX
  8
13_0
  10
-0.03
  20
3.49
  0
VERTEX
  8
13_0
  10
-0.03
  20
0.31
  0
VERTEX
  8
13_0
  10
3.79
  20
0.31
  0
VERTEX
  8
13_0
  10
3.79
  20
3.49
  0
VERTEX
  8
13_0
  10
-0.03
  20
3.49
  0
SEQEND
  0
POLYLINE
  8
11_0
  70
1
  66
1
  0
VERTEX
  8
11_0
  10
3.05
  20
0.31
  0
VERTEX
  8
11_0
  10
3.05
  20
-0.33
  0
VERTEX
  8
11_0
  10
3.79
  20
-0.33
  0
VERTEX
  8
11_0
  10
3.79
  20
0.31
  0
VERTEX
  8
11_0
  10
3.05
  20
0.31
  0
SEQEND
  0
POLYLINE
  8
11_0
  70
1
  66
1
  0
VERTEX
  8
11_0
  10
-0.03
  20
4.115
  0
VERTEX
  8
11_0
  10
-0.03
  20
3.49
  0
VERTEX
  8
11_0
  10
0.7
  20
3.49
  0
VERTEX
  8
11_0
  10
0.7
  20
4.115
  0
VERTEX
  8
11_0
  10
-0.03
  20
4.115
  0
SEQEND
  0
POLYLINE
  8
99_1_0
  70
0
  66
1
  0
VERTEX
  8
11_0
  10
-0.03
  20
3.49
  0
VERTEX
  8
11_0
  10
0.7
  20
3.49
  0
SEQEND
  0
POLYLINE
  8
99_2_0
  70
0
  66
1
  0
VERTEX
  8
11_0
  10
3.79
  20
0.31
  0
VERTEX
  8
11_0
  10
3.05
  20
0.31
  0
SEQEND
  0
ENDBLK
  0
BLOCK
  2
MiniBSeries
  3
MiniBSeries
  10
0
  20
0
  70
0
  0
POLYLINE
  8
13_0
  70
1
  66
1
  0
VERTEX
  8
13_0
  10
-0.01
  20
3.18
  0
VERTEX
  8
13_0
  10
-0.01
  20
0
  0
VERTEX
  8
13_0
  10
6.85
  20
0
  0
VERTEX
  8
13_0
  10
6.85
  20
3.18
  0
VERTEX
  8
13_0
  10
-0.01
  20
3.18
  0
SEQEND
  0
POLYLINE
  8
11_0
  70
1
  66
1
  0
VERTEX
  8
11_0
  10
0.63
  20
3.92
  0
VERTEX
  8
11_0
  10
-0.01
  20
3.92
  0
VERTEX
  8
11_0
  10
-0.01
  20
3.18
  0
VERTEX
  8
11_0
  10
0.63
  20
3.18
  0
VERTEX
  8
11_0
  10
0.63
  20
3.92
  0
SEQEND
  0
POLYLINE
  8
11_0
  70
1
  66
1
  0
VERTEX
  8
11_0
  10
6.85
  20
0
  0
VERTEX
  8
11_0
  10
6.21
  20
0
  0
VERTEX
  8
11_0
  10
6.21
  20
-0.74
  0
VERTEX
  8
11_0
  10
6.85
  20
-0.74
  0
VERTEX
  8
11_0
  10
6.85
  20
0
  0
SEQEND
  0
POLYLINE
  8
99_2_0
  70
0
  66
1
  0
VERTEX
  8
11_0
  10
6.85
  20
0
  0
VERTEX
  8
11_0
  10
6.21
  20
0
  0
SEQEND
  0
POLYLINE
  8
99_1_0
  70
0
  66
1
  0
VERTEX
  8
11_0
  10
-0.01
  20
3.18
  0
VERTEX
  8
11_0
  10
0.63
  20
3.18
  0
SEQEND
  0
ENDBLK
  0
BLOCK
  2
MiniLPSeries_1508
  3
MiniLPSeries_1508
  10
0
  20
0
  70
0
  0
POLYLINE
  8
13_0
  70
1
  66
1
  0
VERTEX
  8
13_0
  10
-0.06
  20
3.45
  0
VERTEX
  8
13_0
  10
-0.06
  20
0.02
  0
VERTEX
  8
13_0
  10
3.88
  20
0.02
  0
VERTEX
  8
13_0
  10
3.88
  20
3.45
  0
VERTEX
  8
13_0
  10
-0.06
  20
3.45
  0
SEQEND
  0
POLYLINE
  8
11_0
  70
1
  66
1
  0
VERTEX
  8
11_0
  10
3.88
  20
0.02
  0
VERTEX
  8
11_0
  10
3.14
  20
0.02
  0
VERTEX
  8
11_0
  10
3.14
  20
-0.36
  0
VERTEX
  8
11_0
  10
3.88
  20
-0.36
  0
VERTEX
  8
11_0
  10
3.88
  20
0.02
  0
SEQEND
  0
POLYLINE
  8
11_0
  70
1
  66
1
  0
VERTEX
  8
11_0
  10
0.68
  20
3.83
  0
VERTEX
  8
11_0
  10
-0.06
  20
3.83
  0
VERTEX
  8
11_0
  10
-0.06
  20
3.45
  0
VERTEX
  8
11_0
  10
0.68
  20
3.45
  0
VERTEX
  8
11_0
  10
0.68
  20
3.83
  0
SEQEND
  0
POLYLINE
  8
99_2_0
  70
0
  66
1
  0
VERTEX
  8
11_0
  10
3.88
  20
0.02
  0
VERTEX
  8
11_0
  10
3.14
  20
0.02
  0
SEQEND
  0
POLYLINE
  8
99_1_0
  70
0
  66
1
  0
VERTEX
  8
11_0
  10
-0.06
  20
3.45
  0
VERTEX
  8
11_0
  10
0.68
  20
3.45
  0
SEQEND
  0
ENDBLK
  0
BLOCK
  2
MiniLPSeries_2508
  3
MiniLPSeries_2508
  10
0
  20
0
  70
0
  0
POLYLINE
  8
13_0
  70
1
  66
1
  0
VERTEX
  8
13_0
  10
0.02
  20
3.93
  0
VERTEX
  8
13_0
  10
0.02
  20
0.5
  0
VERTEX
  8
13_0
  10
6.88
  20
0.5
  0
VERTEX
  8
13_0
  10
6.88
  20
3.93
  0
VERTEX
  8
13_0
  10
0.02
  20
3.93
  0
SEQEND
  0
POLYLINE
  8
11_0
  70
1
  66
1
  0
VERTEX
  8
11_0
  10
6.88
  20
0.5
  0
VERTEX
  8
11_0
  10
6.14
  20
0.5
  0
VERTEX
  8
11_0
  10
6.14
  20
0.12
  0
VERTEX
  8
11_0
  10
6.88
  20
0.12
  0
VERTEX
  8
11_0
  10
6.88
  20
0.5
  0
SEQEND
  0
POLYLINE
  8
11_0
  70
1
  66
1
  0
VERTEX
  8
11_0
  10
0.76
  20
4.31
  0
VERTEX
  8
11_0
  10
0.02
  20
4.31
  0
VERTEX
  8
11_0
  10
0.02
  20
3.93
  0
VERTEX
  8
11_0
  10
0.76
  20
3.93
  0
VERTEX
  8
11_0
  10
0.76
  20
4.31
  0
SEQEND
  0
POLYLINE
  8
99_2_0
  70
0
  66
1
  0
VERTEX
  8
13_0
  10
6.88
  20
0.5
  0
VERTEX
  8
13_0
  10
6.14
  20
0.5
  0
SEQEND
  0
POLYLINE
  8
99_1_0
  70
0
  66
1
  0
VERTEX
  8
13_0
  10
0.02
  20
3.93
  0
VERTEX
  8
13_0
  10
0.76
  20
3.93
  0
SEQEND
  0
ENDBLK
  0
BLOCK
  2
MiniSeries
  3
MiniSeries
  10
0
  20
0
  70
0
  0
POLYLINE
  8
13_0
  70
1
  66
1
  0
VERTEX
  8
13_0
  10
-0.03
  20
3.49
  0
VERTEX
  8
13_0
  10
-0.03
  20
0.31
  0
VERTEX
  8
13_0
  10
3.79
  20
0.31
  0
VERTEX
  8
13_0
  10
3.79
  20
3.49
  0
VERTEX
  8
13_0
  10
-0.03
  20
3.49
  0
SEQEND
  0
POLYLINE
  8
11_0
  70
1
  66
1
  0
VERTEX
  8
11_0
  10
3.05
  20
0.31
  0
VERTEX
  8
11_0
  10
3.05
  20
-0.33
  0
VERTEX
  8
11_0
  10
3.79
  20
-0.33
  0
VERTEX
  8
11_0
  10
3.79
  20
0.31
  0
VERTEX
  8
11_0
  10
3.05
  20
0.31
  0
SEQEND
  0
POLYLINE
  8
11_0
  70
1
  66
1
  0
VERTEX
  8
11_0
  10
-0.03
  20
4.115
  0
VERTEX
  8
11_0
  10
-0.03
  20
3.49
  0
VERTEX
  8
11_0
  10
0.7
  20
3.49
  0
VERTEX
  8
11_0
  10
0.7
  20
4.115
  0
VERTEX
  8
11_0
  10
-0.03
  20
4.115
  0
SEQEND
  0
POLYLINE
  8
99_1_0
  70
0
  66
1
  0
VERTEX
  8
11_0
  10
-0.03
  20
3.49
  0
VERTEX
  8
11_0
  10
0.7
  20
3.49
  0
SEQEND
  0
POLYLINE
  8
99_2_0
  70
0
  66
1
  0
VERTEX
  8
11_0
  10
3.79
  20
0.31
  0
VERTEX
  8
11_0
  10
3.05
  20
0.31
  0
SEQEND
  0
ENDBLK
  0
BLOCK
  2
NA593x
  3
NA593x
  10
0
  20
0
  70
0
  0
POLYLINE
  8
13_0
  70
1
  66
1
  0
VERTEX
  8
13_0
  10
-1
  20
6.67
  0
VERTEX
  8
13_0
  10
-1
  20
0.92
  0
VERTEX
  8
13_0
  10
9.55
  20
0.92
  0
VERTEX
  8
13_0
  10
9.55
  20
6.67
  0
VERTEX
  8
13_0
  10
-1
  20
6.67
  0
SEQEND
  0
POLYLINE
  8
11_0
  70
1
  66
1
  0
VERTEX
  8
11_0
  10
-0.05
  20
7.06
  0
VERTEX
  8
11_0
  10
-0.05
  20
6.67
  0
VERTEX
  8
11_0
  10
0.25
  20
6.67
  0
VERTEX
  8
11_0
  10
0.25
  20
7.06
  0
VERTEX
  8
11_0
  10
-0.05
  20
7.06
  0
SEQEND
  0
POLYLINE
  8
11_0
  70
1
  66
1
  0
VERTEX
  8
11_0
  10
8.3
  20
0.92
  0
VERTEX
  8
11_0
  10
8.3
  20
0.53
  0
VERTEX
  8
11_0
  10
8.6
  20
0.53
  0
VERTEX
  8
11_0
  10
8.6
  20
0.92
  0
VERTEX
  8
11_0
  10
8.3
  20
0.92
  0
SEQEND
  0
POLYLINE
  8
99_2_0
  70
0
  66
1
  0
VERTEX
  8
13_0
  10
8.6
  20
0.92
  0
VERTEX
  8
13_0
  10
8.3
  20
0.92
  0
SEQEND
  0
POLYLINE
  8
99_1_0
  70
0
  66
1
  0
VERTEX
  8
13_0
  10
-0.05
  20
6.67
  0
VERTEX
  8
13_0
  10
0.25
  20
6.67
  0
SEQEND
  0
ENDBLK
  0
BLOCK
  2
PFD2015
  3
PFD2015
  10
0
  20
0
  70
0
  0
POLYLINE
  8
13_0
  70
1
  66
1
  0
VERTEX
  8
13_0
  10
0
  20
1.52
  0
VERTEX
  8
13_0
  10
0
  20
0
  0
VERTEX
  8
13_0
  10
2.29
  20
0
  0
VERTEX
  8
13_0
  10
2.29
  20
1.52
  0
VERTEX
  8
13_0
  10
0
  20
1.52
  0
SEQEND
  0
POLYLINE
  8
11_0
  70
1
  66
1
  0
VERTEX
  8
11_0
  10
0
  20
0.432
  0
VERTEX
  8
11_0
  10
0
  20
0
  0
VERTEX
  8
11_0
  10
0.356
  20
0
  0
VERTEX
  8
11_0
  10
0.356
  20
0.432
  0
VERTEX
  8
11_0
  10
0
  20
0.432
  0
SEQEND
  0
POLYLINE
  8
11_0
  70
1
  66
1
  0
VERTEX
  8
11_0
  10
1.934
  20
0.432
  0
VERTEX
  8
11_0
  10
1.934
  20
0
  0
VERTEX
  8
11_0
  10
2.29
  20
0
  0
VERTEX
  8
11_0
  10
2.29
  20
0.432
  0
VERTEX
  8
11_0
  10
1.934
  20
0.432
  0
SEQEND
  0
POLYLINE
  8
11_0
  70
1
  66
1
  0
VERTEX
  8
11_0
  10
0
  20
1.52
  0
VERTEX
  8
11_0
  10
0
  20
1.088
  0
VERTEX
  8
11_0
  10
0.356
  20
1.088
  0
VERTEX
  8
11_0
  10
0.356
  20
1.52
  0
VERTEX
  8
11_0
  10
0
  20
1.52
  0
SEQEND
  0
POLYLINE
  8
11_0
  70
1
  66
1
  0
VERTEX
  8
11_0
  10
1.934
  20
1.52
  0
VERTEX
  8
11_0
  10
1.934
  20
1.088
  0
VERTEX
  8
11_0
  10
2.29
  20
1.088
  0
VERTEX
  8
11_0
  10
2.29
  20
1.52
  0
VERTEX
  8
11_0
  10
1.934
  20
1.52
  0
SEQEND
  0
POLYLINE
  8
99_2_0
  70
0
  66
1
  0
VERTEX
  8
11_0
  10
1.934
  20
0.432
  0
VERTEX
  8
11_0
  10
1.934
  20
0
  0
SEQEND
  0
POLYLINE
  8
99_3_0
  70
0
  66
1
  0
VERTEX
  8
11_0
  10
1.934
  20
1.52
  0
VERTEX
  8
11_0
  10
1.934
  20
1.088
  0
SEQEND
  0
POLYLINE
  8
99_4_0
  70
0
  66
1
  0
VERTEX
  8
11_0
  10
0.356
  20
1.088
  0
VERTEX
  8
11_0
  10
0.356
  20
1.52
  0
SEQEND
  0
POLYLINE
  8
99_1_0
  70
0
  66
1
  0
VERTEX
  8
11_0
  10
0.356
  20
0
  0
VERTEX
  8
11_0
  10
0.356
  20
0.432
  0
SEQEND
  0
ENDBLK
  0
BLOCK
  2
PFD3215
  3
PFD3215
  10
0
  20
0
  70
0
  0
POLYLINE
  8
13_0
  70
1
  66
1
  0
VERTEX
  8
13_0
  10
0
  20
2.33
  0
VERTEX
  8
13_0
  10
0
  20
0
  0
VERTEX
  8
13_0
  10
3.32
  20
0
  0
VERTEX
  8
13_0
  10
3.32
  20
2.33
  0
VERTEX
  8
13_0
  10
0
  20
2.33
  0
SEQEND
  0
POLYLINE
  8
11_0
  70
1
  66
1
  0
VERTEX
  8
11_0
  10
0
  20
0.635
  0
VERTEX
  8
11_0
  10
0
  20
0
  0
VERTEX
  8
11_0
  10
0.356
  20
0
  0
VERTEX
  8
11_0
  10
0.356
  20
0.635
  0
VERTEX
  8
11_0
  10
0
  20
0.635
  0
SEQEND
  0
POLYLINE
  8
11_0
  70
1
  66
1
  0
VERTEX
  8
11_0
  10
2.964
  20
0.635
  0
VERTEX
  8
11_0
  10
2.964
  20
0
  0
VERTEX
  8
11_0
  10
3.32
  20
0
  0
VERTEX
  8
11_0
  10
3.32
  20
0.635
  0
VERTEX
  8
11_0
  10
2.964
  20
0.635
  0
SEQEND
  0
POLYLINE
  8
11_0
  70
1
  66
1
  0
VERTEX
  8
11_0
  10
2.964
  20
2.33
  0
VERTEX
  8
11_0
  10
2.964
  20
1.695
  0
VERTEX
  8
11_0
  10
3.32
  20
1.695
  0
VERTEX
  8
11_0
  10
3.32
  20
2.33
  0
VERTEX
  8
11_0
  10
2.964
  20
2.33
  0
SEQEND
  0
POLYLINE
  8
11_0
  70
1
  66
1
  0
VERTEX
  8
11_0
  10
0
  20
2.33
  0
VERTEX
  8
11_0
  10
0
  20
1.695
  0
VERTEX
  8
11_0
  10
0.356
  20
1.695
  0
VERTEX
  8
11_0
  10
0.356
  20
2.33
  0
VERTEX
  8
11_0
  10
0
  20
2.33
  0
SEQEND
  0
POLYLINE
  8
99_2_0
  70
0
  66
1
  0
VERTEX
  8
11_0
  10
2.964
  20
0.635
  0
VERTEX
  8
11_0
  10
2.964
  20
0
  0
SEQEND
  0
POLYLINE
  8
99_3_0
  70
0
  66
1
  0
VERTEX
  8
11_0
  10
2.964
  20
2.33
  0
VERTEX
  8
11_0
  10
2.964
  20
1.695
  0
SEQEND
  0
POLYLINE
  8
99_4_0
  70
0
  66
1
  0
VERTEX
  8
11_0
  10
0.356
  20
1.695
  0
VERTEX
  8
11_0
  10
0.356
  20
2.33
  0
SEQEND
  0
POLYLINE
  8
99_1_0
  70
0
  66
1
  0
VERTEX
  8
11_0
  10
0.356
  20
0
  0
VERTEX
  8
11_0
  10
0.356
  20
0.635
  0
SEQEND
  0
ENDBLK
  0
BLOCK
  2
PWB
  3
PWB
  10
0
  20
0
  70
0
  0
POLYLINE
  8
13_0
  70
1
  66
1
  0
VERTEX
  8
13_0
  10
0
  20
6.35
  0
VERTEX
  8
13_0
  10
0
  20
0
  0
VERTEX
  8
13_0
  10
7.37
  20
0
  0
VERTEX
  8
13_0
  10
7.37
  20
6.35
  0
VERTEX
  8
13_0
  10
0
  20
6.35
  0
SEQEND
  0
POLYLINE
  8
11_0
  70
1
  66
1
  0
VERTEX
  8
11_0
  10
5.85
  20
3.81
  0
VERTEX
  8
11_0
  10
5.85
  20
2.54
  0
VERTEX
  8
11_0
  10
7.37
  20
2.54
  0
VERTEX
  8
11_0
  10
7.37
  20
3.81
  0
VERTEX
  8
11_0
  10
5.85
  20
3.81
  0
SEQEND
  0
POLYLINE
  8
11_0
  70
1
  66
1
  0
VERTEX
  8
11_0
  10
5.85
  20
1.27
  0
VERTEX
  8
11_0
  10
5.85
  20
0
  0
VERTEX
  8
11_0
  10
7.37
  20
0
  0
VERTEX
  8
11_0
  10
7.37
  20
1.27
  0
VERTEX
  8
11_0
  10
5.85
  20
1.27
  0
SEQEND
  0
POLYLINE
  8
11_0
  70
1
  66
1
  0
VERTEX
  8
11_0
  10
5.85
  20
6.35
  0
VERTEX
  8
11_0
  10
5.85
  20
5.08
  0
VERTEX
  8
11_0
  10
7.37
  20
5.08
  0
VERTEX
  8
11_0
  10
7.37
  20
6.35
  0
VERTEX
  8
11_0
  10
5.85
  20
6.35
  0
SEQEND
  0
POLYLINE
  8
11_0
  70
1
  66
1
  0
VERTEX
  8
11_0
  10
0
  20
6.35
  0
VERTEX
  8
11_0
  10
0
  20
5.08
  0
VERTEX
  8
11_0
  10
1.52
  20
5.08
  0
VERTEX
  8
11_0
  10
1.52
  20
6.35
  0
VERTEX
  8
11_0
  10
0
  20
6.35
  0
SEQEND
  0
POLYLINE
  8
11_0
  70
1
  66
1
  0
VERTEX
  8
11_0
  10
0
  20
1.27
  0
VERTEX
  8
11_0
  10
0
  20
0
  0
VERTEX
  8
11_0
  10
1.52
  20
0
  0
VERTEX
  8
11_0
  10
1.52
  20
1.27
  0
VERTEX
  8
11_0
  10
0
  20
1.27
  0
SEQEND
  0
POLYLINE
  8
11_0
  70
1
  66
1
  0
VERTEX
  8
11_0
  10
0
  20
3.81
  0
VERTEX
  8
11_0
  10
0
  20
2.549
  0
VERTEX
  8
11_0
  10
1.52
  20
2.549
  0
VERTEX
  8
11_0
  10
1.52
  20
3.81
  0
VERTEX
  8
11_0
  10
0
  20
3.81
  0
SEQEND
  0
POLYLINE
  8
99_4_0
  70
0
  66
1
  0
VERTEX
  8
13_0
  10
5.85
  20
6.35
  0
VERTEX
  8
13_0
  10
5.85
  20
5.08
  0
SEQEND
  0
POLYLINE
  8
99_3_0
  70
0
  66
1
  0
VERTEX
  8
13_0
  10
5.85
  20
1.27
  0
VERTEX
  8
13_0
  10
5.85
  20
0
  0
SEQEND
  0
POLYLINE
  8
99_2_0
  70
0
  66
1
  0
VERTEX
  8
13_0
  10
1.52
  20
0
  0
VERTEX
  8
13_0
  10
1.52
  20
1.27
  0
SEQEND
  0
POLYLINE
  8
99_1_0
  70
0
  66
1
  0
VERTEX
  8
13_0
  10
1.52
  20
5.08
  0
VERTEX
  8
13_0
  10
1.52
  20
6.35
  0
SEQEND
  0
ENDBLK
  0
BLOCK
  2
SMLC
  3
SMLC
  10
0
  20
0
  70
0
  0
POLYLINE
  8
13_0
  70
1
  66
1
  0
VERTEX
  8
13_0
  10
0
  20
3.18
  0
VERTEX
  8
13_0
  10
0
  20
0
  0
VERTEX
  8
13_0
  10
4.57
  20
0
  0
VERTEX
  8
13_0
  10
4.57
  20
3.18
  0
VERTEX
  8
13_0
  10
0
  20
3.18
  0
SEQEND
  0
POLYLINE
  8
11_0
  70
1
  66
1
  0
VERTEX
  8
11_0
  10
1.77
  20
1.02
  0
VERTEX
  8
11_0
  10
1.77
  20
0.002
  0
VERTEX
  8
11_0
  10
2.799
  20
0.002
  0
VERTEX
  8
11_0
  10
2.799
  20
1.02
  0
VERTEX
  8
11_0
  10
1.77
  20
1.02
  0
SEQEND
  0
POLYLINE
  8
11_0
  70
1
  66
1
  0
VERTEX
  8
11_0
  10
1.53
  20
3.18
  0
VERTEX
  8
11_0
  10
0.51
  20
3.18
  0
VERTEX
  8
11_0
  10
0.51
  20
2.17
  0
VERTEX
  8
11_0
  10
1.53
  20
2.17
  0
VERTEX
  8
11_0
  10
1.53
  20
3.18
  0
SEQEND
  0
POLYLINE
  8
11_0
  70
1
  66
1
  0
VERTEX
  8
11_0
  10
4.07
  20
3.18
  0
VERTEX
  8
11_0
  10
3.05
  20
3.18
  0
VERTEX
  8
11_0
  10
3.05
  20
2.177
  0
VERTEX
  8
11_0
  10
4.07
  20
2.177
  0
VERTEX
  8
11_0
  10
4.07
  20
3.18
  0
SEQEND
  0
POLYLINE
  8
99_1_0
  70
0
  66
1
  0
VERTEX
  8
99_1
  10
1.53
  20
2.17
  0
VERTEX
  8
99_1
  10
1.53
  20
3.18
  0
SEQEND
  0
POLYLINE
  8
99_2_0
  70
0
  66
1
  0
VERTEX
  8
99_2
  10
3.05
  20
3.18
  0
VERTEX
  8
99_2
  10
3.05
  20
2.177
  0
SEQEND
  0
ENDBLK
  0
BLOCK
  2
WBC
  3
WBC
  10
0
  20
0
  70
0
  0
POLYLINE
  8
13_0
  70
1
  66
1
  0
VERTEX
  8
13_0
  10
0
  20
3.81
  0
VERTEX
  8
13_0
  10
0
  20
0
  0
VERTEX
  8
13_0
  10
3.81
  20
0
  0
VERTEX
  8
13_0
  10
3.81
  20
3.81
  0
VERTEX
  8
13_0
  10
0
  20
3.81
  0
SEQEND
  0
POLYLINE
  8
11_0
  70
1
  66
1
  0
VERTEX
  8
11_0
  10
1.52
  20
3.81
  0
VERTEX
  8
11_0
  10
1.52
  20
2.79
  0
VERTEX
  8
11_0
  10
2.29
  20
2.79
  0
VERTEX
  8
11_0
  10
2.29
  20
3.81
  0
VERTEX
  8
11_0
  10
1.52
  20
3.81
  0
SEQEND
  0
POLYLINE
  8
11_0
  70
1
  66
1
  0
VERTEX
  8
11_0
  10
1.52
  20
1.02
  0
VERTEX
  8
11_0
  10
1.52
  20
0
  0
VERTEX
  8
11_0
  10
2.29
  20
0
  0
VERTEX
  8
11_0
  10
2.29
  20
1.02
  0
VERTEX
  8
11_0
  10
1.52
  20
1.02
  0
SEQEND
  0
POLYLINE
  8
11_0
  70
1
  66
1
  0
VERTEX
  8
11_0
  10
3.05
  20
3.81
  0
VERTEX
  8
11_0
  10
3.05
  20
2.79
  0
VERTEX
  8
11_0
  10
3.81
  20
2.79
  0
VERTEX
  8
11_0
  10
3.81
  20
3.81
  0
VERTEX
  8
11_0
  10
3.05
  20
3.81
  0
SEQEND
  0
POLYLINE
  8
11_0
  70
1
  66
1
  0
VERTEX
  8
11_0
  10
3.05
  20
1.02
  0
VERTEX
  8
11_0
  10
3.05
  20
0
  0
VERTEX
  8
11_0
  10
3.81
  20
0
  0
VERTEX
  8
11_0
  10
3.81
  20
1.02
  0
VERTEX
  8
11_0
  10
3.05
  20
1.02
  0
SEQEND
  0
POLYLINE
  8
11_0
  70
1
  66
1
  0
VERTEX
  8
11_0
  10
0
  20
3.81
  0
VERTEX
  8
11_0
  10
0
  20
2.79
  0
VERTEX
  8
11_0
  10
0.76
  20
2.79
  0
VERTEX
  8
11_0
  10
0.76
  20
3.81
  0
VERTEX
  8
11_0
  10
0
  20
3.81
  0
SEQEND
  0
POLYLINE
  8
11_0
  70
1
  66
1
  0
VERTEX
  8
11_0
  10
0
  20
1.02
  0
VERTEX
  8
11_0
  10
0
  20
0
  0
VERTEX
  8
11_0
  10
0.76
  20
0
  0
VERTEX
  8
11_0
  10
0.76
  20
1.02
  0
VERTEX
  8
11_0
  10
0
  20
1.02
  0
SEQEND
  0
POLYLINE
  8
99_2_0
  70
0
  66
1
  0
VERTEX
  8
13_0
  10
3.81
  20
1.02
  0
VERTEX
  8
13_0
  10
3.05
  20
1.02
  0
SEQEND
  0
POLYLINE
  8
99_3_0
  70
0
  66
1
  0
VERTEX
  8
13_0
  10
3.05
  20
2.79
  0
VERTEX
  8
13_0
  10
3.81
  20
2.79
  0
SEQEND
  0
POLYLINE
  8
99_1_0
  70
0
  66
1
  0
VERTEX
  8
13_0
  10
0.76
  20
1.02
  0
VERTEX
  8
13_0
  10
0
  20
1.02
  0
SEQEND
  0
POLYLINE
  8
99_4_0
  70
0
  66
1
  0
VERTEX
  8
13_0
  10
0
  20
2.79
  0
VERTEX
  8
13_0
  10
0.76
  20
2.79
  0
SEQEND
  0
ENDBLK
  0
ENDSEC
  0
SECTION
  2
ENTITIES
  0
INSERT
  8
Default
  2
smaconnector
  10
0
  20
0
  50
0
  41
1
  42
1
  0
ENDSEC
  0
EOF
